<svg width="14" height="10" viewBox="0 0 14 10" fill="none" xmlns="http://www.w3.org/2000/svg">
<path d="M13.9258 1.17261L12.7821 0.0730586C12.7588 0.0497449 12.7306 0.0312127 12.6992 0.018648C12.6678 0.00608333 12.634 -0.000237341 12.5999 8.85217e-05C12.5656 -0.00081747 12.5316 0.00524007 12.5001 0.0178415C12.4687 0.030443 12.4405 0.049286 12.4176 0.0730586L4.48563 7.52301L1.59903 4.83111C1.57559 4.808 1.54734 4.78959 1.51601 4.77701C1.48467 4.76443 1.45092 4.75794 1.41681 4.75794C1.38269 4.75794 1.34894 4.76443 1.31761 4.77701C1.28628 4.78959 1.25803 4.808 1.23458 4.83111L0.078014 5.90967C0.0533172 5.9322 0.0336942 5.9591 0.0202975 5.9888C0.00690084 6.01849 0 6.05038 0 6.0826C0 6.11482 0.00690084 6.14671 0.0202975 6.17641C0.0336942 6.2061 0.0533172 6.233 0.078014 6.25553L3.72245 9.65414C3.91981 9.85539 4.19191 9.97904 4.48349 10C4.76813 9.97517 5.03405 9.85685 5.23381 9.66614H5.24025L13.9311 1.51947C13.9764 1.47128 14.001 1.40915 14 1.34508C13.999 1.28101 13.9725 1.21956 13.9258 1.17261Z" fill="white"/>
</svg>
