<svg width="20" height="20" viewBox="0 0 20 20" fill="none" xmlns="http://www.w3.org/2000/svg">
<path d="M17.7778 0H2.22222C0.994923 0 0 0.994923 0 2.22222V17.7778C0 19.0051 0.994923 20 2.22222 20H17.7778C19.0051 20 20 19.0051 20 17.7778V2.22222C20 0.994923 19.0051 0 17.7778 0Z" fill="#FF9900"/>
<path d="M16.9258 6.17261L15.7821 5.07306C15.7588 5.04974 15.7306 5.03121 15.6992 5.01865C15.6678 5.00608 15.634 4.99976 15.5999 5.00009C15.5656 4.99918 15.5316 5.00524 15.5001 5.01784C15.4687 5.03044 15.4405 5.04929 15.4176 5.07306L7.48563 12.523L4.59903 9.83111C4.57559 9.808 4.54734 9.78959 4.51601 9.77701C4.48467 9.76443 4.45092 9.75794 4.41681 9.75794C4.38269 9.75794 4.34894 9.76443 4.31761 9.77701C4.28628 9.78959 4.25803 9.808 4.23458 9.83111L3.07801 10.9097C3.05332 10.9322 3.03369 10.9591 3.0203 10.9888C3.0069 11.0185 3 11.0504 3 11.0826C3 11.1148 3.0069 11.1467 3.0203 11.1764C3.03369 11.2061 3.05332 11.233 3.07801 11.2555L6.72245 14.6541C6.91981 14.8554 7.19191 14.979 7.48349 15C7.76813 14.9752 8.03405 14.8568 8.23381 14.6661H8.24025L16.9311 6.51947C16.9764 6.47128 17.001 6.40915 17 6.34508C16.999 6.28101 16.9725 6.21956 16.9258 6.17261Z" fill="white"/>
</svg>
