<svg width="12" height="16" viewBox="0 0 12 16" fill="none" xmlns="http://www.w3.org/2000/svg">
<path d="M4.70974 0.966H7.28319V1.416H8.2146V0.9C8.2146 0.661305 8.12318 0.432387 7.96044 0.263604C7.7977 0.0948212 7.57697 0 7.34683 0L4.64707 0C4.41692 0 4.1962 0.0948212 4.03346 0.263604C3.87072 0.432387 3.7793 0.661305 3.7793 0.9V1.413H4.71071L4.70974 0.966Z" fill="#FF453A"/>
<path d="M10.3698 5.24219H1.62835C1.57166 5.24213 1.51557 5.25427 1.46363 5.27785C1.41169 5.30142 1.36504 5.33592 1.32661 5.37915C1.28819 5.42239 1.25883 5.47342 1.2404 5.52902C1.22197 5.58463 1.21486 5.6436 1.21953 5.70219L1.95039 15.0742C1.96997 15.3258 2.07993 15.5606 2.2585 15.7321C2.43707 15.9036 2.67122 15.9992 2.91459 16.0002H9.07774C9.32111 15.9992 9.55527 15.9036 9.73384 15.7321C9.91241 15.5606 10.0224 15.3258 10.0419 15.0742L10.7728 5.70219C10.7775 5.6436 10.7704 5.58463 10.7519 5.52902C10.7335 5.47342 10.7041 5.42239 10.6657 5.37915C10.6273 5.33592 10.5806 5.30142 10.5287 5.27785C10.4768 5.25427 10.4207 5.24213 10.364 5.24219H10.3698ZM3.74477 15.0002H3.71584C3.59751 14.9999 3.48372 14.9529 3.39758 14.8688C3.31144 14.7847 3.25941 14.6697 3.25206 14.5472L2.79407 6.85318C2.78904 6.78914 2.79637 6.72472 2.81565 6.66367C2.83493 6.60261 2.86576 6.54615 2.90634 6.4976C2.94691 6.44906 2.99642 6.40939 3.05196 6.38094C3.1075 6.35248 3.16796 6.3358 3.22979 6.33188C3.29162 6.32795 3.35358 6.33686 3.41205 6.35808C3.47052 6.3793 3.52433 6.41241 3.57031 6.45546C3.61629 6.49851 3.65353 6.55065 3.67984 6.60881C3.70616 6.66697 3.72102 6.73 3.72355 6.79419L4.18058 14.4922C4.18718 14.6193 4.14509 14.7441 4.06347 14.8392C3.98185 14.9343 3.86731 14.9922 3.74477 15.0002ZM6.46959 14.5182C6.46959 14.6463 6.42052 14.7691 6.33319 14.8597C6.24585 14.9503 6.12739 15.0012 6.00388 15.0012C5.88037 15.0012 5.76191 14.9503 5.67458 14.8597C5.58724 14.7691 5.53817 14.6463 5.53817 14.5182V6.82419C5.53817 6.69609 5.58724 6.57323 5.67458 6.48265C5.76191 6.39207 5.88037 6.34119 6.00388 6.34119C6.12739 6.34119 6.24585 6.39207 6.33319 6.48265C6.42052 6.57323 6.46959 6.69609 6.46959 6.82419V14.5182ZM9.20405 6.85219L8.76727 14.5462C8.76015 14.669 8.70809 14.7844 8.62172 14.8688C8.53535 14.9531 8.42118 15.0002 8.30253 15.0002H8.27456C8.15132 14.9927 8.03599 14.9348 7.95391 14.8392C7.87182 14.7435 7.82971 14.618 7.83682 14.4902L8.2736 6.79619C8.28387 6.67068 8.34101 6.55429 8.43283 6.47185C8.52465 6.38941 8.64389 6.34744 8.76513 6.35487C8.88637 6.36231 9.00001 6.41857 9.08182 6.51166C9.16364 6.60475 9.20715 6.72729 9.20309 6.85318L9.20405 6.85219Z" fill="#FF453A"/>
<path d="M11.9799 3.75186L11.6742 2.80086C11.6349 2.67849 11.5595 2.57206 11.4586 2.49667C11.3577 2.42128 11.2365 2.38076 11.1121 2.38086H0.885816C0.761623 2.38097 0.64061 2.4216 0.539903 2.49697C0.439195 2.57235 0.363893 2.67865 0.324653 2.80086L0.019002 3.75186C0.000180384 3.81173 -0.00474886 3.87535 0.00461533 3.93756C0.0139795 3.99977 0.0373726 4.05882 0.0728912 4.10989C0.10841 4.16095 0.155051 4.2026 0.209019 4.23144C0.262987 4.26028 0.322758 4.2755 0.383469 4.27586H11.6164C11.6884 4.276 11.759 4.25483 11.8198 4.21486C11.8926 4.16734 11.9479 4.09597 11.9771 4.01209C12.0063 3.9282 12.0076 3.83661 11.9808 3.75186H11.9799Z" fill="#FF453A"/>
</svg>
