<svg width="24" height="24" viewBox="0 0 24 24" fill="none" xmlns="http://www.w3.org/2000/svg">
<rect width="24" height="24" rx="4" fill="#FFECEF"/>
<path d="M10.7097 3.966H13.2832V4.416H14.2146V3.9C14.2146 3.66131 14.1232 3.43239 13.9604 3.2636C13.7977 3.09482 13.577 3 13.3468 3H10.6471C10.4169 3 10.1962 3.09482 10.0335 3.2636C9.87072 3.43239 9.7793 3.66131 9.7793 3.9V4.413H10.7107L10.7097 3.966Z" fill="#FF453A"/>
<path d="M16.3698 8.24219H7.62835C7.57166 8.24213 7.51557 8.25427 7.46363 8.27785C7.41169 8.30142 7.36504 8.33592 7.32661 8.37915C7.28819 8.42239 7.25883 8.47342 7.2404 8.52902C7.22197 8.58463 7.21486 8.6436 7.21953 8.70219L7.95039 18.0742C7.96997 18.3258 8.07993 18.5606 8.2585 18.7321C8.43707 18.9036 8.67122 18.9992 8.91459 19.0002H15.0777C15.3211 18.9992 15.5553 18.9036 15.7338 18.7321C15.9124 18.5606 16.0224 18.3258 16.0419 18.0742L16.7728 8.70219C16.7775 8.6436 16.7704 8.58463 16.7519 8.52902C16.7335 8.47342 16.7041 8.42239 16.6657 8.37915C16.6273 8.33592 16.5806 8.30142 16.5287 8.27785C16.4768 8.25427 16.4207 8.24213 16.364 8.24219H16.3698ZM9.74477 18.0002H9.71584C9.59751 17.9999 9.48372 17.9529 9.39758 17.8688C9.31144 17.7847 9.25941 17.6697 9.25206 17.5472L8.79407 9.85318C8.78904 9.78914 8.79637 9.72472 8.81565 9.66367C8.83493 9.60261 8.86576 9.54615 8.90634 9.4976C8.94691 9.44906 8.99642 9.40939 9.05196 9.38094C9.1075 9.35248 9.16796 9.3358 9.22979 9.33188C9.29162 9.32795 9.35358 9.33686 9.41205 9.35808C9.47052 9.3793 9.52433 9.41241 9.57031 9.45546C9.61629 9.49851 9.65353 9.55065 9.67984 9.60881C9.70616 9.66697 9.72102 9.73 9.72355 9.79419L10.1806 17.4922C10.1872 17.6193 10.1451 17.7441 10.0635 17.8392C9.98185 17.9343 9.86731 17.9922 9.74477 18.0002ZM12.4696 17.5182C12.4696 17.6463 12.4205 17.7691 12.3332 17.8597C12.2458 17.9503 12.1274 18.0012 12.0039 18.0012C11.8804 18.0012 11.7619 17.9503 11.6746 17.8597C11.5872 17.7691 11.5382 17.6463 11.5382 17.5182V9.82419C11.5382 9.69609 11.5872 9.57323 11.6746 9.48265C11.7619 9.39207 11.8804 9.34119 12.0039 9.34119C12.1274 9.34119 12.2458 9.39207 12.3332 9.48265C12.4205 9.57323 12.4696 9.69609 12.4696 9.82419V17.5182ZM15.2041 9.85219L14.7673 17.5462C14.7601 17.669 14.7081 17.7844 14.6217 17.8688C14.5353 17.9531 14.4212 18.0002 14.3025 18.0002H14.2746C14.1513 17.9927 14.036 17.9348 13.9539 17.8392C13.8718 17.7435 13.8297 17.618 13.8368 17.4902L14.2736 9.79619C14.2839 9.67068 14.341 9.55429 14.4328 9.47185C14.5247 9.38941 14.6439 9.34744 14.7651 9.35487C14.8864 9.36231 15 9.41857 15.0818 9.51166C15.1636 9.60475 15.2072 9.72729 15.2031 9.85318L15.2041 9.85219Z" fill="#FF453A"/>
<path d="M17.9799 6.75186L17.6742 5.80086C17.6349 5.67849 17.5595 5.57206 17.4586 5.49667C17.3577 5.42128 17.2365 5.38076 17.1121 5.38086H6.88582C6.76162 5.38097 6.64061 5.4216 6.5399 5.49697C6.43919 5.57235 6.36389 5.67865 6.32465 5.80086L6.019 6.75186C6.00018 6.81173 5.99525 6.87535 6.00462 6.93756C6.01398 6.99977 6.03737 7.05882 6.07289 7.10989C6.10841 7.16095 6.15505 7.2026 6.20902 7.23144C6.26299 7.26028 6.32276 7.2755 6.38347 7.27586H17.6164C17.6884 7.276 17.759 7.25483 17.8198 7.21486C17.8926 7.16734 17.9479 7.09597 17.9771 7.01209C18.0063 6.9282 18.0076 6.83661 17.9808 6.75186H17.9799Z" fill="#FF453A"/>
</svg>
