<svg width="24" height="24" viewBox="0 0 24 24" fill="none" xmlns="http://www.w3.org/2000/svg">
<path fill-rule="evenodd" clip-rule="evenodd" d="M12 2C12.5523 2 13 2.34717 13 2.77542L13 15.2246C13 15.6528 12.5523 16 12 16C11.4477 16 11 15.6528 11 15.2246L11 2.77542C11 2.34717 11.4477 2 12 2Z" fill="#FF453A"/>
<path fill-rule="evenodd" clip-rule="evenodd" d="M15.7591 13.1975C16.0794 13.4615 16.0804 13.8905 15.7615 14.1556L12.5798 16.8006C12.4263 16.9282 12.2176 17 12 17C11.7824 17 11.5737 16.9282 11.4202 16.8006L8.2385 14.1556C7.91958 13.8905 7.92064 13.4615 8.24087 13.1975C8.56111 12.9334 9.07924 12.9343 9.39816 13.1994L12 15.3624L14.6018 13.1994C14.9208 12.9343 15.4389 12.9334 15.7591 13.1975Z" fill="#FF453A"/>
<path fill-rule="evenodd" clip-rule="evenodd" d="M20.5 11.5176C20.5 9.86548 19.1867 8.52794 17.566 8.52794H16.633C16.2188 8.52794 15.883 8.1859 15.883 7.76397C15.883 7.34204 16.2188 7 16.633 7H17.566C20.0153 7 22 9.02189 22 11.5176V16.4926C22 18.9823 20.0192 21 17.575 21L6.435 21C3.98579 21 2 18.9772 2 16.4824V11.5064C2 9.01741 3.98205 7 6.425 7H7.367C7.78121 7 8.117 7.34204 8.117 7.76397C8.117 8.1859 7.78121 8.52794 7.367 8.52794H6.425C4.80995 8.52794 3.5 9.86181 3.5 11.5064V16.4824C3.5 18.1334 4.81421 19.4721 6.435 19.4721L17.575 19.4721C19.1908 19.4721 20.5 18.1385 20.5 16.4926V11.5176Z" fill="#FF453A"/>
</svg>
