<svg width="36" height="36" viewBox="0 0 36 36" fill="none" xmlns="http://www.w3.org/2000/svg">
<circle cx="18" cy="18" r="16" fill="#FF453A" stroke="white" stroke-width="2"/>
<path fill-rule="evenodd" clip-rule="evenodd" d="M23.5815 11.4185C23.7645 11.6016 23.7645 11.8984 23.5815 12.0815L18.4565 17.2065C18.2734 17.3895 17.9766 17.3895 17.7935 17.2065C17.6105 17.0234 17.6105 16.7266 17.7935 16.5435L22.9185 11.4185C23.1016 11.2355 23.3984 11.2355 23.5815 11.4185Z" fill="white"/>
<path fill-rule="evenodd" clip-rule="evenodd" d="M20.2812 11.25C20.2812 10.9911 20.4911 10.7812 20.75 10.7812H23.75C24.0089 10.7812 24.2187 10.9911 24.2187 11.25V14.25C24.2187 14.5089 24.0089 14.7188 23.75 14.7188C23.4911 14.7188 23.2812 14.5089 23.2812 14.25V11.7188H20.75C20.4911 11.7188 20.2812 11.5089 20.2812 11.25Z" fill="white"/>
<path fill-rule="evenodd" clip-rule="evenodd" d="M11.9342 11.9342C12.7682 11.1001 14.0163 10.7812 15.625 10.7812H16.875C17.1339 10.7812 17.3438 10.9911 17.3438 11.25C17.3438 11.5089 17.1339 11.7188 16.875 11.7188H15.625C14.1087 11.7188 13.1693 12.0249 12.5971 12.5971C12.0249 13.1693 11.7188 14.1087 11.7188 15.625V19.375C11.7188 20.8913 12.0249 21.8307 12.5971 22.4029C13.1693 22.9751 14.1087 23.2812 15.625 23.2812H19.375C20.8913 23.2812 21.8307 22.9751 22.4029 22.4029C22.9751 21.8307 23.2812 20.8913 23.2812 19.375V18.125C23.2812 17.8661 23.4911 17.6562 23.75 17.6562C24.0089 17.6562 24.2188 17.8661 24.2188 18.125V19.375C24.2188 20.9837 23.8999 22.2318 23.0658 23.0658C22.2318 23.8999 20.9837 24.2188 19.375 24.2188H15.625C14.0163 24.2188 12.7682 23.8999 11.9342 23.0658C11.1001 22.2318 10.7812 20.9837 10.7812 19.375V15.625C10.7812 14.0163 11.1001 12.7682 11.9342 11.9342Z" fill="white"/>
</svg>
