<svg width="36" height="36" viewBox="0 0 36 36" fill="none" xmlns="http://www.w3.org/2000/svg">
<circle cx="18" cy="18" r="16" fill="#FF453A" stroke="white" stroke-width="2"/>
<path fill-rule="evenodd" clip-rule="evenodd" d="M22.7618 13.2382C22.9127 13.3892 22.9127 13.634 22.7618 13.785L18.535 18.0118C18.384 18.1627 18.1392 18.1627 17.9882 18.0118C17.8373 17.8608 17.8373 17.616 17.9882 17.465L22.215 13.2382C22.366 13.0873 22.6108 13.0873 22.7618 13.2382Z" fill="white"/>
<path fill-rule="evenodd" clip-rule="evenodd" d="M17.6943 15C17.9397 15 18.1386 15.1989 18.1386 15.4443V17.8614H20.5557C20.8011 17.8614 21 18.0603 21 18.3057C21 18.5511 20.8011 18.75 20.5557 18.75H17.6943C17.4489 18.75 17.25 18.5511 17.25 18.3057V15.4443C17.25 15.1989 17.4489 15 17.6943 15Z" fill="white"/>
<path fill-rule="evenodd" clip-rule="evenodd" d="M12.5902 14.0902C13.2885 13.392 14.3334 13.125 15.6802 13.125H16.7267C16.9435 13.125 17.1192 13.3007 17.1192 13.5174C17.1192 13.7342 16.9435 13.9099 16.7267 13.9099H15.6802C14.4108 13.9099 13.6243 14.1662 13.1452 14.6452C12.6662 15.1243 12.4099 15.9108 12.4099 17.1802V20.3198C12.4099 21.5892 12.6662 22.3757 13.1452 22.8548C13.6243 23.3338 14.4108 23.5901 15.6802 23.5901H18.8198C20.0892 23.5901 20.8757 23.3338 21.3548 22.8548C21.8338 22.3757 22.0901 21.5892 22.0901 20.3198V19.2733C22.0901 19.0565 22.2658 18.8808 22.4826 18.8808C22.6993 18.8808 22.875 19.0565 22.875 19.2733V20.3198C22.875 21.6666 22.608 22.7115 21.9098 23.4098C21.2115 24.108 20.1666 24.375 18.8198 24.375H15.6802C14.3334 24.375 13.2885 24.108 12.5902 23.4098C11.892 22.7115 11.625 21.6666 11.625 20.3198V17.1802C11.625 15.8334 11.892 14.7885 12.5902 14.0902Z" fill="white"/>
</svg>
