<svg width="24" height="24" viewBox="0 0 24 24" fill="none" xmlns="http://www.w3.org/2000/svg">
<path d="M7.53487 8.69551C7.73215 8.69551 7.92135 8.62147 8.06085 8.48967C8.20035 8.35787 8.27872 8.17912 8.27872 7.99273V3.7032C8.27872 3.5167 8.2003 3.33784 8.06072 3.20596C7.92114 3.07409 7.73183 3 7.53444 3C7.33704 3 7.14773 3.07409 7.00815 3.20596C6.86858 3.33784 6.79016 3.5167 6.79016 3.7032V7.99109C6.78994 8.08359 6.80904 8.17522 6.84637 8.26073C6.88371 8.34624 6.93853 8.42394 7.00772 8.48938C7.07691 8.55483 7.15909 8.60672 7.24955 8.6421C7.34001 8.67747 7.43697 8.69562 7.53487 8.69551Z" fill="#7B7B7B"/>
<path d="M10.3214 3.0005C10.1241 3.0005 9.93489 3.07454 9.79539 3.20634C9.6559 3.33814 9.57753 3.5169 9.57753 3.70329V8.09754C9.57753 8.61039 9.3619 9.10223 8.97808 9.46486C8.59426 9.8275 8.07368 10.0312 7.53087 10.0312C6.98807 10.0312 6.4675 9.8275 6.08367 9.46486C5.69985 9.10223 5.48422 8.61039 5.48422 8.09754V3.70329C5.47137 3.52561 5.38759 3.35917 5.24983 3.2376C5.11208 3.11604 4.93061 3.04843 4.74211 3.04843C4.55361 3.04843 4.37214 3.11604 4.23439 3.2376C4.09663 3.35917 4.01286 3.52561 4 3.70329V8.09754C4.00104 8.86099 4.27842 9.60113 4.7861 10.1951C5.29378 10.789 6.00121 11.2011 6.79093 11.3628V20.2969C6.79093 20.4834 6.86934 20.6623 7.00892 20.7941C7.1485 20.926 7.33781 21.0001 7.5352 21.0001C7.7326 21.0001 7.92191 20.926 8.06149 20.7941C8.20107 20.6623 8.27948 20.4834 8.27948 20.2969V11.3628C9.06904 11.2009 9.77627 10.7888 10.2838 10.1949C10.7913 9.60093 11.0686 8.86087 11.0695 8.09754V3.70329C11.0695 3.61065 11.0502 3.51893 11.0125 3.43339C10.9749 3.34786 10.9197 3.2702 10.8501 3.20489C10.7806 3.13958 10.6981 3.08789 10.6074 3.05282C10.5166 3.01774 10.4194 2.99996 10.3214 3.0005Z" fill="#7B7B7B"/>
<path d="M19.09 4.87561C18.3851 3.6664 17.4551 3.00043 16.4645 3.00043C15.4738 3.00043 14.5412 3.6664 13.8389 4.87561C13.267 5.86522 12.9552 6.9702 12.9297 8.09747C12.9307 8.86091 13.2081 9.60106 13.7158 10.195C14.2235 10.789 14.9309 11.201 15.7206 11.3627V20.2968C15.7206 20.4833 15.799 20.6622 15.9386 20.7941C16.0782 20.9259 16.2675 21 16.4649 21C16.6623 21 16.8516 20.9259 16.9912 20.7941C17.1307 20.6622 17.2092 20.4833 17.2092 20.2968V11.3627C17.9989 11.201 18.7063 10.789 19.214 10.195C19.7217 9.60106 19.9991 8.86091 20.0001 8.09747C19.9744 6.97013 19.6622 5.86515 19.09 4.87561ZM16.4645 10.0299C15.922 10.0293 15.4019 9.82538 15.0183 9.46296C14.6347 9.10055 14.4189 8.60919 14.4182 8.09665C14.4441 7.20602 14.6928 6.33383 15.1439 5.5514C15.5544 4.84452 16.0601 4.406 16.4645 4.406C16.8689 4.406 17.3754 4.84534 17.785 5.5514C18.2361 6.33383 18.4848 7.20602 18.5107 8.09665C18.5105 8.60947 18.2948 9.10125 17.9112 9.46402C17.5276 9.82679 17.0072 10.0309 16.4645 10.0316V10.0299Z" fill="#7B7B7B"/>
</svg>
