<svg width="120" height="24" viewBox="0 0 120 24" fill="none" xmlns="http://www.w3.org/2000/svg">
<path d="M0 8.92546H3.15169V9.95821H3.18622C3.86192 9.16478 4.80311 8.69117 5.80357 8.64115C6.43779 8.5961 7.07129 8.73981 7.63428 9.05645C8.19727 9.37309 8.6679 9.85037 8.99432 10.4357C9.34224 9.91307 9.79475 9.48063 10.3187 9.17011C10.8426 8.85958 11.4246 8.67884 12.022 8.64115C13.6941 8.64115 15.5841 9.53843 15.5841 12.2728V18.7324H12.4279V13.1889C12.4516 12.9518 12.4275 12.7121 12.3572 12.4859C12.2869 12.2597 12.172 12.0524 12.0204 11.8781C11.8688 11.7038 11.684 11.5666 11.4786 11.4758C11.2732 11.385 11.052 11.3427 10.83 11.3518C10.6374 11.3409 10.4448 11.3725 10.2641 11.4447C10.0834 11.5168 9.91838 11.628 9.77928 11.7713C9.64018 11.9146 9.52995 12.087 9.45539 12.2779C9.38084 12.4687 9.34355 12.674 9.34583 12.8809V18.7214H6.21395V13.1889C6.23756 12.9514 6.2132 12.7112 6.14252 12.4847C6.07185 12.2582 5.95652 12.0508 5.80439 11.8764C5.65226 11.7021 5.46691 11.565 5.26096 11.4744C5.05501 11.3839 4.8333 11.3421 4.61093 11.3518C4.41103 11.3444 4.21193 11.3825 4.02676 11.4636C3.84158 11.5448 3.67455 11.6672 3.53666 11.8227C3.39877 11.9782 3.29316 12.1633 3.22681 12.3658C3.16045 12.5683 3.13485 12.7836 3.15169 12.9975V18.7324H0V8.92546Z" fill="#FF453A"/>
<path d="M20.1601 14.2939C20.1566 14.5697 20.2061 14.8433 20.3056 15.0976C20.4052 15.3519 20.5525 15.5814 20.7385 15.7718C20.9244 15.9622 21.145 16.1094 21.3863 16.2041C21.6277 16.2988 21.8847 16.3391 22.1412 16.3223C22.5653 16.3583 22.9911 16.28 23.3799 16.0945C23.7686 15.9091 24.1081 15.6224 24.3674 15.2604L26.6435 16.4815C25.6144 18.3344 23.9372 19.0464 21.9091 19.0464C20.6045 19.0677 19.3449 18.5351 18.4044 17.5645C17.464 16.5938 16.9189 15.2637 16.8878 13.8638C16.915 12.4617 17.458 11.1281 18.3981 10.1542C19.3382 9.18021 20.5992 8.64499 21.9057 8.66536C24.6793 8.66536 26.8036 10.4229 26.8036 13.8638C26.814 14.0158 26.814 14.1685 26.8036 14.3206L20.1601 14.2939ZM23.747 12.4246C23.7116 11.969 23.5107 11.5467 23.1878 11.2487C22.8648 10.9507 22.4456 10.8009 22.0206 10.8317C21.8074 10.8065 21.5915 10.8283 21.3864 10.8958C21.1812 10.9633 20.9911 11.075 20.8276 11.2241C20.6641 11.3733 20.5307 11.5567 20.4356 11.7631C20.3404 11.9695 20.2856 12.1946 20.2744 12.4246H23.747Z" fill="#FF453A"/>
<path d="M28.2493 8.92542H31.401V9.95818H31.4355C31.7697 9.56486 32.1729 9.24609 32.622 9.0201C33.0711 8.79411 33.5573 8.66533 34.0528 8.64111C35.7249 8.64111 38.0604 9.5384 38.0604 12.2728V18.7323H34.9081V13.1889C34.9208 12.9471 34.8883 12.7051 34.8123 12.4771C34.7363 12.2491 34.6185 12.0398 34.4658 11.8615C34.3131 11.6833 34.1287 11.5397 33.9234 11.4393C33.7181 11.3389 33.4961 11.2838 33.2706 11.2771C32.7949 11.2942 32.3417 11.4985 31.9972 11.851C31.6528 12.2035 31.4412 12.6797 31.4027 13.1889V18.7323H28.2493V8.92542Z" fill="#FF453A"/>
<path d="M42.9925 13.5874C42.9925 15.5199 43.4872 16.2422 44.7931 16.2422C46.0989 16.2422 46.5891 15.4986 46.5891 13.5874V8.92542H49.7408V14.4106C49.7408 17.6971 48.2125 19.0197 44.7937 19.0197C41.3748 19.0197 39.8465 17.6978 39.8465 14.4106V8.92542H42.9925V13.5874Z" fill="#FF453A"/>
<path d="M51.7036 8.92544H54.8553V9.95819H54.9119C55.5883 9.1627 56.5314 8.68808 57.5338 8.63869C58.1674 8.59331 58.8004 8.73692 59.3627 9.05364C59.9251 9.37035 60.3948 9.84783 60.72 10.4333C61.0687 9.91145 61.5214 9.47963 62.0451 9.1692C62.5689 8.85877 63.1505 8.67754 63.7477 8.63869C65.4249 8.63869 67.3098 9.53597 67.3098 12.2703V18.7324H64.1564V13.1889C64.18 12.9514 64.1557 12.7112 64.085 12.4847C64.0143 12.2582 63.899 12.0507 63.7469 11.8764C63.5947 11.7021 63.4094 11.5649 63.2034 11.4744C62.9975 11.3839 62.7758 11.3421 62.5534 11.3518C62.3607 11.3401 62.1678 11.3711 61.9867 11.443C61.8056 11.5149 61.6403 11.626 61.5011 11.7695C61.3618 11.9129 61.2516 12.0857 61.1773 12.2769C61.103 12.4681 61.0662 12.6737 61.0692 12.8809V18.7214H57.9176V13.1889C57.9412 12.9514 57.9168 12.7112 57.8461 12.4847C57.7755 12.2582 57.6601 12.0507 57.508 11.8764C57.3559 11.7021 57.1705 11.5649 56.9646 11.4744C56.7586 11.3839 56.5369 11.3421 56.3145 11.3518C56.1126 11.3404 55.9107 11.3756 55.7225 11.4551C55.5343 11.5345 55.3642 11.6563 55.2236 11.8122C55.0829 11.9682 54.9751 12.1547 54.9072 12.3591C54.8394 12.5636 54.8132 12.7813 54.8304 12.9975V18.7324H51.681L51.7036 8.92544Z" fill="#FF9900"/>
<path d="M73.1266 8.63866C73.676 8.62021 74.2232 8.71861 74.7369 8.92818C75.2506 9.13775 75.7206 9.45435 76.1198 9.85974V8.9254H79.2715V18.7329H76.1527V17.623H76.1181C75.7366 18.0657 75.2735 18.4185 74.7583 18.659C74.243 18.8995 73.6868 19.0225 73.1249 19.0203C70.4533 19.0203 68.5831 16.7051 68.5831 13.8377C68.5831 10.9703 70.455 8.63866 73.1266 8.63866ZM74.0714 16.1298C74.3536 16.1396 74.6347 16.0868 74.897 15.9747C75.1594 15.8626 75.3974 15.6936 75.5961 15.4783C75.7948 15.263 75.9501 15.006 76.0521 14.7234C76.1541 14.4408 76.2006 14.1387 76.1889 13.8358C76.1889 13.2303 75.9648 12.6495 75.5658 12.2213C75.1668 11.7931 74.6257 11.5525 74.0615 11.5525C73.4972 11.5525 72.9561 11.7931 72.5571 12.2213C72.1581 12.6495 71.934 13.2303 71.934 13.8358C71.9197 14.1411 71.9652 14.4463 72.0676 14.7315C72.1699 15.0168 72.3269 15.2758 72.5283 15.492C72.7297 15.7081 72.971 15.8766 73.2368 15.9864C73.5026 16.0963 73.7869 16.1451 74.0714 16.1298Z" fill="#FF9900"/>
<path d="M81.4076 8.92542H84.5638V9.95818H84.5983C84.9326 9.56486 85.3358 9.24609 85.7849 9.0201C86.234 8.79411 86.7202 8.66533 87.2157 8.64111C88.8877 8.64111 91.2232 9.5384 91.2232 12.2728V18.7323H88.0602V13.1889C88.0729 12.9471 88.0403 12.7051 87.9644 12.4771C87.8884 12.2491 87.7706 12.0398 87.6179 11.8615C87.4652 11.6833 87.2808 11.5397 87.0755 11.4393C86.8702 11.3389 86.6482 11.2838 86.4227 11.2771C85.947 11.2942 85.4937 11.4985 85.1493 11.851C84.8048 12.2035 84.5932 12.6797 84.5547 13.1889V18.7323H81.3979L81.4076 8.92542Z" fill="#FF9900"/>
<path d="M95.3548 19.7839C95.6296 20.2063 96.0022 20.5445 96.436 20.7651C96.8698 20.9858 97.3497 21.0812 97.8284 21.042C98.1172 21.0595 98.4064 21.0129 98.6777 20.905C98.949 20.7971 99.1966 20.6303 99.4051 20.4149C99.6136 20.1996 99.7784 19.9405 99.8893 19.6536C100 19.3668 100.055 19.0585 100.049 18.7481V18.0191C99.3765 18.8264 98.3078 19.0172 97.0812 19.0172C94.4095 19.0172 92.5393 16.702 92.5393 13.8346C92.5393 10.9672 94.4072 8.63618 97.0812 8.63618C98.1651 8.60015 99.2195 9.01925 100.02 9.80441H100.069V8.92535H103.226V19.0141C103.226 22.3007 100.961 23.9999 97.8482 23.9999C95.9384 23.9999 93.7518 23.5431 92.7872 21.1538L95.3548 19.7839ZM98.0066 16.1309C98.2893 16.1415 98.5709 16.0893 98.8339 15.9775C99.0969 15.8658 99.3355 15.6969 99.5348 15.4815C99.7341 15.2661 99.8897 15.0089 99.9921 14.7259C100.094 14.4429 100.141 14.1403 100.129 13.837C100.129 13.2314 99.9051 12.6507 99.5062 12.2225C99.1072 11.7943 98.5661 11.5537 98.0018 11.5537C97.4376 11.5537 96.8965 11.7943 96.4975 12.2225C96.0985 12.6507 95.8744 13.2314 95.8744 13.837C95.8595 14.142 95.9043 14.447 96.0061 14.7322C96.108 15.0174 96.2644 15.2765 96.4654 15.4927C96.6664 15.7089 96.9074 15.8775 97.1729 15.9874C97.4384 16.0973 97.7224 16.1462 98.0066 16.1309Z" fill="#FF9900"/>
<path d="M119.879 2.05457C119.8 2.44763 119.24 5.32537 117.005 6.19592C116.155 6.47279 115.251 6.49108 114.392 6.24877C113.843 6.14793 113.517 6.01003 113.354 5.71782C113.229 5.39999 113.209 5.0459 113.297 4.71422C113.344 4.2327 113.458 3.76156 113.637 3.31697C113.89 2.73708 114.256 2.22146 114.708 1.80408C115.161 1.3867 115.691 1.07702 116.264 0.895459C117.318 0.614185 117.802 1.08682 118.965 0.59839C119.318 0.447179 119.65 0.245926 119.953 0C120.035 0.684529 120.01 1.37888 119.879 2.05457Z" fill="#74C51D"/>
<path d="M119.102 1.92761C118.807 2.29241 118.459 2.60434 118.073 2.85162C117.326 3.33763 116.989 3.21613 116.217 3.55754C115.282 3.97186 114.614 4.66198 113.308 6.10905C112.924 6.60424 112.5 7.06261 112.042 7.47897C112.017 7.47897 112.071 7.34593 112.111 7.27728C112.497 6.59022 112.945 5.94471 113.446 5.34968C113.735 4.94481 114.067 4.57779 114.436 4.25617L114.549 4.16565C114.982 3.76675 115.467 3.43768 115.989 3.18879C116.785 2.82793 117.037 2.9713 117.72 2.70279C118.388 2.43043 118.983 1.98532 119.452 1.40698C119.345 1.5888 119.228 1.76274 119.1 1.92761H119.102Z" fill="#61A31A"/>
<path d="M113.908 16.885C112.369 18.8709 109.371 20.8781 107.209 19.9486C104.436 18.7488 104.439 13.3062 105.908 9.85982C106.328 8.88296 107.229 6.79072 109.168 6.0848C111.513 5.2343 114.209 6.82838 115.308 9.05852C117.084 12.6792 114.071 16.6778 113.908 16.885Z" fill="#FF9900"/>
<path d="M113.996 14.3366C113.006 18.1225 108.227 19.5453 108.177 19.4554C108.127 19.3655 111.319 18.2926 112.63 15.2715C113.743 12.6854 113.011 9.78151 112.274 7.80591C112.878 8.6558 114.738 11.4582 113.996 14.3366Z" fill="#FECA00"/>
</svg>
