<svg width="24" height="24" viewBox="0 0 24 24" fill="none" xmlns="http://www.w3.org/2000/svg">
<rect width="24" height="24" rx="4" fill="#FF453A"/>
<path fill-rule="evenodd" clip-rule="evenodd" d="M4.17511 10.7191C4.51355 10.7191 4.7879 11.0002 4.7879 11.347V15.1061C4.7879 16.9233 5.14711 18.0333 5.80235 18.7047C6.45759 19.3761 7.54088 19.7442 9.31441 19.7442H13.7184C15.4919 19.7442 16.5752 19.3761 17.2304 18.7047C17.8857 18.0333 18.2449 16.9233 18.2449 15.1061V11.347C18.2449 11.0002 18.5192 10.7191 18.8577 10.7191C19.1961 10.7191 19.4704 11.0002 19.4704 11.347V15.1061C19.4704 17.0479 19.0943 18.5709 18.097 19.5927C17.0998 20.6146 15.6134 21 13.7184 21H9.31441C7.41934 21 5.93299 20.6146 4.93573 19.5927C3.93847 18.5709 3.56232 17.0479 3.56232 15.1061V11.347C3.56232 11.0002 3.83667 10.7191 4.17511 10.7191Z" fill="white"/>
<path fill-rule="evenodd" clip-rule="evenodd" d="M9.00693 3.56524C9.03834 3.24434 9.30191 3 9.61666 3H13.4323C13.7474 3 14.0112 3.24486 14.0421 3.56617L14.5814 9.15873C14.7638 11.0587 13.3792 12.6279 11.5204 12.6279C9.66164 12.6279 8.277 11.059 8.45938 9.159L9.00693 3.56524ZM10.1711 4.25581L9.67908 9.28193C9.67906 9.28212 9.6791 9.28174 9.67908 9.28193C9.56764 10.4459 10.3889 11.3721 11.5204 11.3721C12.652 11.3721 13.4734 10.4463 13.3618 9.2822C13.3617 9.28211 13.3618 9.28229 13.3618 9.2822L12.8771 4.25581H10.1711Z" fill="white"/>
<path fill-rule="evenodd" clip-rule="evenodd" d="M12.9453 3.20655C13.0615 3.07503 13.2265 3 13.3997 3H15.8917C17.0248 3 17.9512 3.21882 18.6259 3.85736C19.2925 4.48825 19.5973 5.42128 19.7506 6.55574C19.7516 6.56323 19.7525 6.57074 19.7532 6.57826L19.9821 8.88201C20.1813 10.9331 18.6902 12.6279 16.6761 12.6279C15.0139 12.6279 13.5331 11.2628 13.362 9.5611L13.3618 9.55913L12.7899 3.6903C12.7727 3.51379 12.8292 3.33806 12.9453 3.20655ZM14.0767 4.25581L14.5812 9.43239C14.5812 9.4327 14.5812 9.433 14.5813 9.4333C14.6884 10.494 15.6422 11.3721 16.6761 11.3721C17.9626 11.3721 18.8899 10.3212 18.7626 9.00706C18.7626 9.00683 18.7627 9.00729 18.7626 9.00706L18.5351 6.71692C18.394 5.68164 18.1437 5.11057 17.7943 4.77985C17.4517 4.45559 16.8993 4.25581 15.8917 4.25581H14.0767Z" fill="white"/>
<path fill-rule="evenodd" clip-rule="evenodd" d="M4.36593 3.85736C5.04057 3.21882 5.96701 3 7.10013 3H9.59216C9.76529 3 9.93035 3.07504 10.0465 3.20658C10.1627 3.33811 10.2191 3.51386 10.2019 3.69039L9.63015 9.55735C9.63013 9.55761 9.63018 9.55708 9.63015 9.55735C9.46836 11.2625 7.98506 12.6279 6.32392 12.6279C4.30995 12.6279 2.81889 10.9333 3.01781 8.88246C3.01782 8.88231 3.01779 8.8826 3.01781 8.88246L3.23838 6.58051C3.23917 6.57223 3.24012 6.56398 3.24123 6.55574C3.39453 5.42128 3.69936 4.48825 4.36593 3.85736ZM4.45689 6.71583L4.23749 9.00554C4.10984 10.3201 5.03712 11.3721 6.32392 11.3721C7.35882 11.3721 8.31023 10.4934 8.41028 9.43614L8.41044 9.43455L8.91503 4.25581H7.10013C6.09256 4.25581 5.54012 4.45559 5.19752 4.77985C4.84822 5.11046 4.59804 5.68123 4.45689 6.71583Z" fill="white"/>
<path fill-rule="evenodd" clip-rule="evenodd" d="M9.55411 16.2643C10.0501 15.756 10.7447 15.5581 11.5204 15.5581C12.2962 15.5581 12.9907 15.756 13.4867 16.2643C13.9828 16.7725 14.1759 17.4842 14.1759 18.2791V20.3721C14.1759 20.7189 13.9015 21 13.5631 21H9.47778C9.13935 21 8.86499 20.7189 8.86499 20.3721V18.2791C8.86499 17.4842 9.0581 16.7725 9.55411 16.2643ZM10.4207 17.1522C10.2366 17.341 10.0906 17.6758 10.0906 18.2791V19.7442H12.9503V18.2791C12.9503 17.6758 12.8043 17.341 12.6201 17.1522C12.4359 16.9635 12.1091 16.814 11.5204 16.814C10.9317 16.814 10.6049 16.9635 10.4207 17.1522Z" fill="white"/>
</svg>
