<svg width="24" height="24" viewBox="0 0 24 24" fill="none" xmlns="http://www.w3.org/2000/svg">
<path fill-rule="evenodd" clip-rule="evenodd" d="M12 9.75C10.7574 9.75 9.75 10.7574 9.75 12C9.75 13.2426 10.7574 14.25 12 14.25C13.2426 14.25 14.25 13.2426 14.25 12C14.25 10.7574 13.2426 9.75 12 9.75ZM8.25 12C8.25 9.92893 9.92893 8.25 12 8.25C14.0711 8.25 15.75 9.92893 15.75 12C15.75 14.0711 14.0711 15.75 12 15.75C9.92893 15.75 8.25 14.0711 8.25 12Z" fill="#7B7B7B"/>
<path fill-rule="evenodd" clip-rule="evenodd" d="M9.60347 3.77017C9.3358 3.32422 8.77209 3.1855 8.35347 3.43455L8.34256 3.44104L6.61251 4.43095C6.06514 4.74373 5.8763 5.45288 6.1894 5.99479L5.54 6.37L6.18888 5.99389C6.72395 6.91703 6.86779 7.92881 6.38982 8.75822C5.91192 9.58751 4.96479 9.97 3.9 9.97C3.26678 9.97 2.75 10.4916 2.75 11.12V12.88C2.75 13.5084 3.26678 14.03 3.9 14.03C4.96479 14.03 5.91192 14.4125 6.38982 15.2418C6.86773 16.0711 6.72398 17.0827 6.18909 18.0057C5.87642 18.5476 6.06491 19.2561 6.6121 19.5688L8.35352 20.5653C8.77214 20.8144 9.33578 20.6758 9.60345 20.2299L9.71093 20.0442C10.2458 19.1214 11.052 18.4925 12.0087 18.4925C12.9662 18.4925 13.77 19.1219 14.3 20.0457C14.3002 20.0462 14.3004 20.0466 14.3007 20.047L14.4065 20.2298C14.6742 20.6758 15.2379 20.8145 15.6565 20.5654L15.6674 20.559L17.3975 19.569C17.9434 19.2571 18.1351 18.5578 17.8198 18.0038C17.2858 17.0813 17.1426 16.0705 17.6202 15.2418C18.0981 14.4125 19.0452 14.03 20.11 14.03C20.7432 14.03 21.26 13.5084 21.26 12.88V11.12C21.26 10.4868 20.7384 9.97 20.11 9.97C19.0452 9.97 18.0981 9.58751 17.6202 8.75822C17.1423 7.92897 17.286 6.91742 17.8208 5.99443C18.1336 5.45257 17.9451 4.74389 17.3979 4.43118L15.6565 3.43464C15.2379 3.18559 14.6742 3.32422 14.4065 3.77017L14.2991 3.95577C13.7642 4.87858 12.958 5.5075 12.0012 5.5075C11.0439 5.5075 10.2402 4.87823 9.71021 3.95453C9.70992 3.95402 9.70962 3.95351 9.70933 3.95299L9.60347 3.77017ZM7.59248 2.14191C8.75191 1.45655 10.2226 1.87702 10.8946 3.00653L10.8991 3.01419L11.0091 3.20422L11.0107 3.207C11.3807 3.85246 11.7666 4.0075 12.0012 4.0075C12.237 4.0075 12.6259 3.85114 13.0009 3.20422C13.001 3.20411 13.0009 3.20432 13.0009 3.20422L13.1154 3.0065C13.7874 1.87699 15.2581 1.45654 16.4175 2.14192L18.1421 3.12881C19.4147 3.85603 19.8463 5.48711 19.1194 6.7452L19.1189 6.7461C18.7439 7.39297 18.8028 7.80618 18.9198 8.00927C19.0369 8.21248 19.3648 8.47 20.11 8.47C21.5616 8.47 22.76 9.65322 22.76 11.12V12.88C22.76 14.3316 21.5768 15.53 20.11 15.53C19.3648 15.53 19.0369 15.7875 18.9198 15.9907C18.8028 16.1938 18.7439 16.607 19.1189 17.2539L19.1212 17.2579C19.8444 18.5235 19.4157 20.1431 18.1425 20.8709C18.1424 20.871 18.1426 20.8709 18.1425 20.8709L16.4174 21.8581C15.258 22.5434 13.7874 22.1229 13.1154 20.9935L13.1109 20.9858L13.0009 20.7958L12.9993 20.793C12.6293 20.1475 12.2434 19.9925 12.0087 19.9925C11.773 19.9925 11.3841 20.1489 11.0091 20.7958C11.009 20.7959 11.0091 20.7957 11.0091 20.7958L10.8946 20.9935C10.2226 22.123 8.75199 22.5434 7.59257 21.8581L5.8679 20.8712C5.86776 20.8711 5.86803 20.8713 5.8679 20.8712C4.59558 20.1438 4.16378 18.5127 4.8906 17.2548L4.89112 17.2539C5.26606 16.607 5.20721 16.1938 5.09018 15.9907C4.97308 15.7875 4.64521 15.53 3.9 15.53C2.43322 15.53 1.25 14.3316 1.25 12.88V11.12C1.25 9.66835 2.43322 8.47 3.9 8.47C4.64521 8.47 4.97308 8.21248 5.09018 8.00927C5.20721 7.80618 5.26606 7.39297 4.89112 6.7461L4.8906 6.7452C4.16378 5.48725 4.59518 3.85638 5.86749 3.12905L7.59248 2.14191Z" fill="#7B7B7B"/>
</svg>
