<svg width="22" height="22" viewBox="0 0 22 22" fill="none" xmlns="http://www.w3.org/2000/svg">
<path fill-rule="evenodd" clip-rule="evenodd" d="M8 5.63636C7.24688 5.63636 6.63636 6.24688 6.63636 7C6.63636 7.75312 7.24688 8.36364 8 8.36364C8.75312 8.36364 9.36364 7.75312 9.36364 7C9.36364 6.24688 8.75312 5.63636 8 5.63636ZM5 7C5 5.34315 6.34315 4 8 4C9.65685 4 11 5.34315 11 7C11 8.65685 9.65685 10 8 10C6.34315 10 5 8.65685 5 7Z" fill="#9D9D9D"/>
<path fill-rule="evenodd" clip-rule="evenodd" d="M1.88757 1.88757C3.25307 0.522066 5.2964 0 7.93023 0H12.0232C12.4471 0 12.7907 0.343595 12.7907 0.767442C12.7907 1.19129 12.4471 1.53488 12.0232 1.53488H7.93023C5.44778 1.53488 3.90972 2.03607 2.97289 2.9729C2.03607 3.90972 1.53488 5.44779 1.53488 7.93023V14.0698C1.53488 16.5522 2.03607 18.0903 2.97289 19.0271C3.90972 19.9639 5.44778 20.4651 7.93023 20.4651H14.0698C16.5522 20.4651 18.0903 19.9639 19.0271 19.0271C19.9639 18.0903 20.4651 16.5522 20.4651 14.0698V8.95349C20.4651 8.52964 20.8087 8.18605 21.2325 8.18605C21.6564 8.18605 22 8.52964 22 8.95349V14.0698C22 16.7036 21.4779 18.7469 20.1124 20.1124C18.7469 21.4779 16.7036 22 14.0698 22H7.93023C5.2964 22 3.25307 21.4779 1.88757 20.1124C0.522066 18.7469 0 16.7036 0 14.0698V7.93023C0 5.2964 0.522066 3.25307 1.88757 1.88757Z" fill="#9D9D9D"/>
<path fill-rule="evenodd" clip-rule="evenodd" d="M14 4C14 3.44772 14.3358 3 14.75 3H20.25C20.6642 3 21 3.44772 21 4C21 4.55228 20.6642 5 20.25 5H14.75C14.3358 5 14 4.55228 14 4Z" fill="#9D9D9D"/>
<path fill-rule="evenodd" clip-rule="evenodd" d="M17.5 0.100123C18.0523 0.100123 18.5 0.435909 18.5 0.850123V6.35012C18.5 6.76434 18.0523 7.10012 17.5 7.10012C16.9477 7.10012 16.5 6.76434 16.5 6.35012V0.850123C16.5 0.435909 16.9477 0.100123 17.5 0.100123Z" fill="#9D9D9D"/>
<path fill-rule="evenodd" clip-rule="evenodd" d="M19.1079 11.9393C18.6049 11.483 17.7533 11.483 17.2503 11.9393L13.0563 15.7406C13.0562 15.7406 13.0564 15.7405 13.0563 15.7406C11.9866 16.7108 10.2976 16.7109 9.22795 15.7406L9.22148 15.7347L8.89238 15.4292C8.44029 15.0216 7.66771 14.9716 7.14766 15.3401L2.17767 18.8643C1.83097 19.1102 1.36122 19.0126 1.12844 18.6465C0.895669 18.2803 0.988024 17.7842 1.33472 17.5383L6.30494 14.0139C7.37669 13.2545 8.90079 13.3311 9.88068 14.2203L9.8871 14.2261L10.2161 14.5315C10.7195 14.9853 11.5689 14.9845 12.071 14.529L16.2649 10.7277C16.265 10.7277 16.2648 10.7278 16.2649 10.7277C17.3346 9.75751 19.0236 9.75734 20.0932 10.7277C20.0932 10.7277 20.0932 10.7277 20.0932 10.7277L21.7365 12.2184C22.0533 12.5058 22.0895 13.0099 21.8175 13.3445C21.5454 13.6791 21.068 13.7174 20.7512 13.43L19.1079 11.9393Z" fill="#9D9D9D"/>
</svg>
