<svg width="42" height="43" viewBox="0 0 42 43" fill="none" xmlns="http://www.w3.org/2000/svg">
<path d="M12.3942 13.9738C12.7931 13.9738 13.1757 13.8148 13.4578 13.5319C13.7399 13.2489 13.8984 12.8651 13.8984 12.4649V3.26436C13.891 2.86914 13.7293 2.49259 13.4481 2.2157C13.1669 1.93881 12.7885 1.78369 12.3945 1.78369C12.0004 1.78369 11.6221 1.93881 11.3409 2.2157C11.0597 2.49259 10.898 2.86914 10.8906 3.26436V12.4671C10.8912 12.8668 11.0498 13.2499 11.3317 13.5324C11.6136 13.8149 11.9958 13.9737 12.3942 13.9738Z" fill="#2A374E"/>
<path d="M18.0342 1.75537C17.6353 1.75537 17.2527 1.91434 16.9706 2.1973C16.6885 2.48027 16.5301 2.86405 16.5301 3.26423V12.6913C16.5178 13.7835 16.0767 14.8268 15.3024 15.5948C14.5282 16.3628 13.4832 16.7935 12.3944 16.7935C11.3055 16.7935 10.2606 16.3628 9.48635 15.5948C8.71209 14.8268 8.27097 13.7835 8.2587 12.6913V3.26423C8.25134 2.869 8.08966 2.49246 7.80844 2.21557C7.52721 1.93868 7.14889 1.78356 6.75484 1.78356C6.36079 1.78356 5.98247 1.93868 5.70124 2.21557C5.42002 2.49246 5.25834 2.869 5.25098 3.26423V12.6913C5.25344 14.329 5.81409 15.9167 6.8399 17.1908C7.86571 18.4648 9.29499 19.3487 10.8905 19.6957V38.8658C10.8868 39.0663 10.9229 39.2655 10.9968 39.4518C11.0707 39.6381 11.1809 39.8078 11.3209 39.9509C11.4609 40.094 11.628 40.2077 11.8123 40.2853C11.9966 40.3629 12.1945 40.4029 12.3944 40.4029C12.5943 40.4029 12.7922 40.3629 12.9765 40.2853C13.1608 40.2077 13.3278 40.094 13.4679 39.9509C13.6079 39.8078 13.718 39.6381 13.7919 39.4518C13.8658 39.2655 13.902 39.0663 13.8983 38.8658V19.6957C15.4938 19.3487 16.9231 18.4648 17.9489 17.1908C18.9747 15.9167 19.5353 14.329 19.5378 12.6913V3.26423C19.5378 2.86414 19.3794 2.48044 19.0974 2.19749C18.8155 1.91454 18.433 1.75551 18.0342 1.75537V1.75537Z" fill="#2A374E"/>
<path d="M35.7477 5.77951C34.3286 3.18417 32.4439 1.75537 30.4415 1.75537C28.4392 1.75537 26.5529 3.18417 25.1354 5.77951C23.9794 7.90292 23.3492 10.274 23.2979 12.6929C23.3003 14.3306 23.861 15.9183 24.8868 17.1923C25.9126 18.4664 27.3419 19.3503 28.9374 19.6973V38.8674C28.9337 39.0679 28.9698 39.2671 29.0437 39.4534C29.1176 39.6397 29.2278 39.8094 29.3678 39.9525C29.5078 40.0956 29.6749 40.2093 29.8592 40.2869C30.0435 40.3645 30.2414 40.4044 30.4413 40.4044C30.6412 40.4044 30.839 40.3645 31.0234 40.2869C31.2077 40.2093 31.3747 40.0956 31.5147 39.9525C31.6547 39.8094 31.7649 39.6397 31.8388 39.4534C31.9127 39.2671 31.9489 39.0679 31.9451 38.8674V19.6973C33.5407 19.3503 34.9699 18.4664 35.9957 17.1923C37.0216 15.9183 37.5822 14.3306 37.5847 12.6929C37.5336 10.274 36.9035 7.90296 35.7477 5.77951ZM30.4415 16.8392C29.345 16.8379 28.2937 16.4004 27.5183 15.6226C26.743 14.8448 26.3068 13.7902 26.3056 12.6902C26.3586 10.7805 26.8611 8.91037 27.7719 7.23254C28.6009 5.71631 29.6241 4.77466 30.441 4.77466C31.2579 4.77466 32.2811 5.71631 33.1101 7.23254C34.0216 8.9118 34.5241 10.7836 34.5764 12.695C34.5746 13.7944 34.1384 14.8483 33.3633 15.6256C32.5882 16.4029 31.5375 16.8403 30.4415 16.8418V16.8392Z" fill="#2A374E"/>
</svg>
