<svg width="20" height="6" viewBox="0 0 20 6" fill="none" xmlns="http://www.w3.org/2000/svg">
<path fill-rule="evenodd" clip-rule="evenodd" d="M0 3C0 1.34813 1.34813 0 3 0C4.65187 0 6 1.34813 6 3C6 4.65187 4.65187 6 3 6C1.34813 6 0 4.65187 0 3ZM3 1.63636C2.25187 1.63636 1.63636 2.25187 1.63636 3C1.63636 3.74813 2.25187 4.36364 3 4.36364C3.74813 4.36364 4.36364 3.74813 4.36364 3C4.36364 2.25187 3.74813 1.63636 3 1.63636Z" fill="#2A374E"/>
<path fill-rule="evenodd" clip-rule="evenodd" d="M14 3C14 1.34813 15.3481 0 17 0C18.6519 0 20 1.34813 20 3C20 4.65187 18.6519 6 17 6C15.3481 6 14 4.65187 14 3ZM17 1.63636C16.2519 1.63636 15.6364 2.25187 15.6364 3C15.6364 3.74813 16.2519 4.36364 17 4.36364C17.7481 4.36364 18.3636 3.74813 18.3636 3C18.3636 2.25187 17.7481 1.63636 17 1.63636Z" fill="#2A374E"/>
<path fill-rule="evenodd" clip-rule="evenodd" d="M7 3C7 1.34813 8.34813 0 10 0C11.6519 0 13 1.34813 13 3C13 4.65187 11.6519 6 10 6C8.34813 6 7 4.65187 7 3ZM10 1.63636C9.25187 1.63636 8.63636 2.25187 8.63636 3C8.63636 3.74813 9.25187 4.36364 10 4.36364C10.7481 4.36364 11.3636 3.74813 11.3636 3C11.3636 2.25187 10.7481 1.63636 10 1.63636Z" fill="#2A374E"/>
</svg>
