<svg width="6" height="20" viewBox="0 0 6 20" fill="none" xmlns="http://www.w3.org/2000/svg">
<path fill-rule="evenodd" clip-rule="evenodd" d="M3 20C1.34813 20 -5.89287e-08 18.6519 -1.31134e-07 17C-2.0334e-07 15.3481 1.34813 14 3 14C4.65187 14 6 15.3481 6 17C6 18.6519 4.65187 20 3 20ZM1.63636 17C1.63636 17.7481 2.25187 18.3636 3 18.3636C3.74813 18.3636 4.36364 17.7481 4.36364 17C4.36364 16.2519 3.74813 15.6364 3 15.6364C2.25187 15.6364 1.63636 16.2519 1.63636 17Z" fill="#2A374E"/>
<path fill-rule="evenodd" clip-rule="evenodd" d="M3 6C1.34813 6 -5.89287e-08 4.65187 -1.31134e-07 3C-2.0334e-07 1.34813 1.34813 -5.89287e-08 3 -1.31134e-07C4.65187 -2.0334e-07 6 1.34813 6 3C6 4.65187 4.65187 6 3 6ZM1.63636 3C1.63636 3.74813 2.25187 4.36364 3 4.36364C3.74813 4.36364 4.36364 3.74813 4.36364 3C4.36364 2.25187 3.74813 1.63636 3 1.63636C2.25187 1.63636 1.63636 2.25187 1.63636 3Z" fill="#2A374E"/>
<path fill-rule="evenodd" clip-rule="evenodd" d="M3 13C1.34813 13 -5.89287e-08 11.6519 -1.31134e-07 10C-2.0334e-07 8.34813 1.34813 7 3 7C4.65187 7 6 8.34813 6 10C6 11.6519 4.65187 13 3 13ZM1.63636 10C1.63636 10.7481 2.25187 11.3636 3 11.3636C3.74813 11.3636 4.36364 10.7481 4.36364 10C4.36364 9.25187 3.74813 8.63636 3 8.63636C2.25187 8.63636 1.63636 9.25187 1.63636 10Z" fill="#2A374E"/>
</svg>
