<svg width="20" height="19" viewBox="0 0 20 19" fill="none" xmlns="http://www.w3.org/2000/svg">
<path fill-rule="evenodd" clip-rule="evenodd" d="M10 7.2C9.00589 7.2 8.2 8.00589 8.2 9C8.2 9.99411 9.00589 10.8 10 10.8C10.9941 10.8 11.8 9.99411 11.8 9C11.8 8.00589 10.9941 7.2 10 7.2ZM7 9C7 7.34315 8.34315 6 10 6C11.6569 6 13 7.34315 13 9C13 10.6569 11.6569 12 10 12C8.34315 12 7 10.6569 7 9Z" fill="#2A374E"/>
<path fill-rule="evenodd" clip-rule="evenodd" d="M7.76706 1.82713C7.51818 1.41136 6.99404 1.28203 6.60481 1.51423L6.59467 1.52028L4.98606 2.44319C4.47711 2.73481 4.30153 3.39596 4.59265 3.9012L3.98884 4.25101L4.59217 3.90036C5.08967 4.76102 5.22342 5.70433 4.77901 6.47761C4.33466 7.25078 3.45401 7.60738 2.46397 7.60738C1.8752 7.60738 1.3947 8.09372 1.3947 8.67955V10.3204C1.3947 10.9063 1.8752 11.3926 2.46397 11.3926C3.45401 11.3926 4.33466 11.7492 4.77901 12.5224C5.22336 13.2956 5.08971 14.2387 4.59237 15.0993C4.30165 15.6045 4.47691 16.2651 4.98568 16.5566L6.60486 17.4857C6.99408 17.7179 7.51815 17.5886 7.76704 17.1729L7.86697 16.9998C8.3643 16.1395 9.11394 15.5531 10.0035 15.5531C10.8937 15.5531 11.6411 16.1399 12.1338 17.0012C12.1341 17.0016 12.1343 17.002 12.1345 17.0024L12.2329 17.1729C12.4818 17.5886 13.006 17.718 13.3952 17.4858L13.4053 17.4797L15.0139 16.5568C15.5215 16.266 15.6998 15.614 15.4066 15.0975C14.9101 14.2374 14.777 13.295 15.221 12.5224C15.6653 11.7492 16.546 11.3926 17.536 11.3926C18.1248 11.3926 18.6053 10.9063 18.6053 10.3204V8.67955C18.6053 8.08919 18.1203 7.60738 17.536 7.60738C16.546 7.60738 15.6653 7.25078 15.221 6.47761C14.7767 5.70448 14.9103 4.76139 15.4075 3.90087C15.6984 3.39567 15.5232 2.73496 15.0143 2.44341L13.3951 1.51431C13.0059 1.28211 12.4818 1.41136 12.2329 1.82713L12.133 2.00018C11.6357 2.86053 10.8861 3.44688 9.99651 3.44688C9.10637 3.44688 8.3591 2.86021 7.8663 1.99902C7.86603 1.99854 7.86576 1.99806 7.86548 1.99758L7.76706 1.82713ZM5.89724 0.309066C6.97528 -0.329915 8.3427 0.0621046 8.96751 1.11517L8.97175 1.12232L9.07398 1.29948L9.07547 1.30207C9.41951 1.90385 9.77836 2.0484 9.99651 2.0484C10.2157 2.0484 10.5773 1.90262 10.926 1.29948C10.9261 1.29938 10.926 1.29958 10.926 1.29948L11.0324 1.11514C11.6573 0.0620744 13.0247 -0.329919 14.1028 0.309075L15.7063 1.22918C16.8896 1.90718 17.2908 3.42788 16.615 4.60083L16.6145 4.60166C16.2659 5.20475 16.3206 5.59001 16.4294 5.77935C16.5383 5.9688 16.8431 6.2089 17.536 6.2089C18.8858 6.2089 20 7.31204 20 8.67955V10.3204C20 11.6739 18.8998 12.7911 17.536 12.7911C16.8431 12.7911 16.5383 13.0312 16.4294 13.2206C16.3206 13.41 16.2659 13.7952 16.6145 14.3983L16.6166 14.4021C17.2891 15.582 16.8905 17.092 15.7067 17.7706C15.7065 17.7707 15.7068 17.7705 15.7067 17.7706L14.1027 18.691C13.0247 19.3299 11.6573 18.9379 11.0325 17.8848L11.0283 17.8777L10.926 17.7005L10.9245 17.6979C10.5805 17.0962 10.2216 16.9516 10.0035 16.9516C9.78429 16.9516 9.42272 17.0974 9.07398 17.7005C9.07393 17.7006 9.07404 17.7004 9.07398 17.7005L8.96755 17.8849C8.34276 18.9379 6.97535 19.3299 5.89732 18.691L4.29372 17.7708C4.29359 17.7708 4.29385 17.7709 4.29372 17.7708C3.11072 17.0927 2.70923 15.572 3.38503 14.3992L3.38551 14.3983C3.73413 13.7952 3.67942 13.41 3.5706 13.2206C3.46172 13.0312 3.15687 12.7911 2.46397 12.7911C1.10016 12.7911 0 11.6739 0 10.3204V8.67955C0 7.32615 1.10016 6.2089 2.46397 6.2089C3.15687 6.2089 3.46172 5.9688 3.5706 5.77935C3.67942 5.59001 3.73413 5.20475 3.38551 4.60166L3.38503 4.60083C2.70923 3.428 3.11035 1.9075 4.29334 1.2294L5.89724 0.309066Z" fill="#2A374E"/>
</svg>
