<svg width="41" height="42" viewBox="0 0 41 42" fill="none" xmlns="http://www.w3.org/2000/svg">
<g filter="url(#filter0_d_50_2380)">
<path d="M20.4222 35.4011C28.3521 35.4011 34.7807 28.954 34.7807 21.0011C34.7807 13.0482 28.3521 6.60107 20.4222 6.60107C12.4922 6.60107 6.06366 13.0482 6.06366 21.0011C6.06366 28.954 12.4922 35.4011 20.4222 35.4011Z" fill="#FFECEF"/>
</g>
<path d="M27.0123 17.33H24.813L23.5435 15.9966H18.6878V18.001H16.607V20.0016H14.5261V26.6665C14.5272 27.0199 14.6737 27.3584 14.9335 27.6082C15.1934 27.8581 15.5455 27.9989 15.913 27.9999H27.0123C27.3798 27.9989 27.7319 27.8581 27.9918 27.6082C28.2516 27.3584 28.3981 27.0199 28.3992 26.6665V18.6682C28.3994 18.314 28.2536 17.9742 27.9936 17.7234C27.7335 17.4725 27.3806 17.331 27.0123 17.33ZM21.4626 25.9994C20.7766 25.9994 20.1059 25.8038 19.5355 25.4373C18.9651 25.0709 18.5205 24.55 18.2579 23.9407C17.9954 23.3313 17.9267 22.6608 18.0605 22.0138C18.1944 21.3669 18.5247 20.7727 19.0099 20.3063C19.495 19.8399 20.113 19.5223 20.7859 19.3936C21.4588 19.2649 22.1562 19.331 22.7901 19.5834C23.4239 19.8358 23.9657 20.2633 24.3468 20.8117C24.728 21.3601 24.9314 22.0049 24.9314 22.6644C24.9319 23.1028 24.8426 23.5369 24.6685 23.942C24.4945 24.3471 24.2391 24.7153 23.9169 25.0254C23.5948 25.3356 23.2122 25.5817 22.7911 25.7496C22.37 25.9176 21.9186 26.0041 21.4626 26.0042V25.9994Z" fill="#FF453A"/>
<path d="M14.5261 19.3355H15.914V17.3349H17.9948V16.0006H15.914V14H14.5261V16.0006H12.4452V17.3339H14.5261V19.3355Z" fill="#FF453A"/>
<path d="M21.4625 20.5356C21.171 20.5354 20.8823 20.5904 20.6129 20.6976C20.3435 20.8047 20.0987 20.9619 19.8926 21.1601C19.6864 21.3582 19.523 21.5936 19.4115 21.8526C19.3001 22.1116 19.2428 22.3892 19.2431 22.6694C19.2431 23.0915 19.3733 23.504 19.6172 23.8549C19.861 24.2058 20.2077 24.4793 20.6132 24.6408C21.0188 24.8023 21.465 24.8446 21.8956 24.7623C22.3261 24.6799 22.7215 24.4767 23.0319 24.1783C23.3423 23.8798 23.5537 23.4997 23.6394 23.0857C23.725 22.6718 23.681 22.2428 23.513 21.8529C23.3451 21.463 23.0606 21.1297 22.6956 20.8953C22.3306 20.6608 21.9015 20.5356 21.4625 20.5356Z" fill="#FF453A"/>
<defs>
<filter id="filter0_d_50_2380" x="0.0636597" y="0.601074" width="40.717" height="40.8" filterUnits="userSpaceOnUse" color-interpolation-filters="sRGB">
<feFlood flood-opacity="0" result="BackgroundImageFix"/>
<feColorMatrix in="SourceAlpha" type="matrix" values="0 0 0 0 0 0 0 0 0 0 0 0 0 0 0 0 0 0 127 0" result="hardAlpha"/>
<feOffset/>
<feGaussianBlur stdDeviation="3"/>
<feColorMatrix type="matrix" values="0 0 0 0 0.541176 0 0 0 0 0.541176 0 0 0 0 0.541176 0 0 0 0.161 0"/>
<feBlend mode="normal" in2="BackgroundImageFix" result="effect1_dropShadow_50_2380"/>
<feBlend mode="normal" in="SourceGraphic" in2="effect1_dropShadow_50_2380" result="shape"/>
</filter>
</defs>
</svg>
