<svg width="40" height="40" viewBox="0 0 40 40" fill="none" xmlns="http://www.w3.org/2000/svg">
<g clip-path="url(#clip0_273_5164)">
<path d="M20 4C15.7262 4 11.7083 5.66429 8.68629 8.68629C5.66429 11.7083 4 15.7262 4 20C4 24.2738 5.66429 28.2917 8.68629 31.3137C11.7083 34.3357 15.7262 36 20 36C24.2738 36 28.2917 34.3357 31.3137 31.3137C34.3357 28.2917 36 24.2738 36 20C36 15.7262 34.3357 11.7083 31.3137 8.68629C28.2917 5.66429 24.2738 4 20 4ZM20 0C31.0457 0 40 8.9543 40 20C40 31.0457 31.0457 40 20 40C8.9543 40 0 31.0457 0 20C0 8.9543 8.9543 0 20 0Z" fill="#FFECEF"/>
<path d="M20 3.99805C16.8355 3.99805 13.7421 4.93643 11.1109 6.69453C8.4797 8.45264 6.42894 10.9515 5.21793 13.8751C4.00693 16.7987 3.69008 20.0158 4.30744 23.1195C4.92481 26.2232 6.44866 29.0741 8.6863 31.3118C10.9239 33.5494 13.7749 35.0732 16.8786 35.6906C19.9823 36.308 23.1993 35.9911 26.1229 34.7801C29.0466 33.5691 31.5454 31.5184 33.3035 28.8872C35.0616 26.256 36 23.1625 36 19.998C36 15.7546 34.3143 11.6849 31.3137 8.68434C28.3131 5.68376 24.2435 3.99805 20 3.99805V3.99805ZM20 8.78205C21.0467 8.78205 22.0698 9.09242 22.9401 9.67391C23.8103 10.2554 24.4886 11.0819 24.8892 12.0489C25.2897 13.0159 25.3945 14.0799 25.1903 15.1065C24.9861 16.133 24.4821 17.076 23.742 17.8161C23.0019 18.5562 22.059 19.0602 21.0324 19.2644C20.0059 19.4686 18.9418 19.3638 17.9748 18.9632C17.0079 18.5627 16.1814 17.8844 15.5999 17.0141C15.0184 16.1439 14.708 15.1207 14.708 14.074C14.7085 12.6708 15.2663 11.3251 16.2586 10.333C17.251 9.34081 18.5967 8.78331 20 8.78305V8.78205ZM20 31.815C17.1954 31.8197 14.4818 30.8204 12.35 28.998C12.1021 28.7865 11.9031 28.5237 11.7665 28.2278C11.63 27.9319 11.5592 27.6099 11.559 27.284C11.5591 26.5811 11.6981 25.885 11.968 25.236C12.2379 24.5869 12.6334 23.9975 13.1317 23.5016C13.63 23.0058 14.2214 22.6133 14.8719 22.3467C15.5223 22.0801 16.219 21.9446 16.922 21.948H23.08C23.7826 21.9448 24.4788 22.0804 25.1288 22.3471C25.7787 22.6139 26.3695 23.0065 26.8672 23.5024C27.3649 23.9983 27.7596 24.5877 28.0286 25.2367C28.2977 25.8857 28.4358 26.5815 28.435 27.284C28.4353 27.6099 28.3648 27.9319 28.2284 28.2279C28.092 28.5238 27.893 28.7866 27.645 28.998C25.5148 30.82 22.8031 31.8196 20 31.816V31.815Z" fill="#F85454"/>
</g>
<defs>
<clipPath id="clip0_273_5164">
<rect width="40" height="40" fill="white"/>
</clipPath>
</defs>
</svg>
