<svg width="22" height="22" viewBox="0 0 22 22" fill="none" xmlns="http://www.w3.org/2000/svg">
<path fill-rule="evenodd" clip-rule="evenodd" d="M1.55 20.45C0.970101 19.8701 0.970101 18.9299 1.55 18.35L18.35 1.55004C18.9299 0.970143 19.8701 0.970141 20.45 1.55004C21.0299 2.12994 21.0299 3.07014 20.45 3.65004L3.65 20.45C3.0701 21.0299 2.1299 21.0299 1.55 20.45Z" fill="#FF453A"/>
<path fill-rule="evenodd" clip-rule="evenodd" d="M1.55 1.54998C2.1299 0.970078 3.0701 0.970078 3.65 1.54998L20.45 18.35C21.0299 18.9299 21.0299 19.8701 20.45 20.45C19.8701 21.0299 18.9299 21.0299 18.35 20.45L1.55 3.64997C0.970101 3.07008 0.970101 2.12988 1.55 1.54998Z" fill="#FF453A"/>
</svg>
