<svg width="24" height="25" viewBox="0 0 24 25" fill="none" xmlns="http://www.w3.org/2000/svg">
<path fill-rule="evenodd" clip-rule="evenodd" d="M11.9996 2.75195C9.95488 2.75195 8.30957 4.40507 8.30957 6.44195C8.30957 8.42497 9.85865 10.0339 11.8145 10.1208C11.9331 10.1126 12.0584 10.1121 12.1766 10.1207C14.1305 10.0329 15.6805 8.42503 15.6896 6.44043C15.6887 4.40534 14.0348 2.75195 11.9996 2.75195ZM6.80957 6.44195C6.80957 3.57884 9.12426 1.25195 11.9996 1.25195C14.8638 1.25195 17.1896 3.57774 17.1896 6.44195L17.1896 6.44508C17.1779 9.24547 14.9705 11.5279 12.1848 11.6215C12.1515 11.6226 12.1181 11.6215 12.0849 11.6182C12.0367 11.6134 11.9647 11.6128 11.8975 11.6189C11.8665 11.6217 11.8354 11.6226 11.8044 11.6215C9.01917 11.5279 6.80957 9.24533 6.80957 6.44195Z" fill="#292D32"/>
<path fill-rule="evenodd" clip-rule="evenodd" d="M12.1722 12.4395C14.1004 12.4395 16.0667 12.9234 17.5863 13.9383C18.9522 14.8474 19.7347 16.1218 19.7347 17.4932C19.7347 18.8645 18.9523 20.1412 17.5869 21.0552L17.5868 21.0553C16.0626 22.0751 14.0938 22.562 12.1647 22.562C10.236 22.562 8.26764 22.0753 6.74355 21.0559C5.37744 20.1468 4.59473 18.8723 4.59473 17.5007C4.59473 16.1294 5.37717 14.8527 6.74251 13.9387L6.74527 13.9369L6.74527 13.9369C8.2737 12.9235 10.2438 12.4395 12.1722 12.4395ZM7.57556 15.1861C6.52191 15.8919 6.09473 16.7448 6.09473 17.5007C6.09473 18.2564 6.52173 19.1067 7.57516 19.8075L7.5768 19.8086C8.80258 20.6288 10.4638 21.062 12.1647 21.062C13.8656 21.062 15.5267 20.6288 16.7525 19.8087C17.8072 19.1027 18.2347 18.2494 18.2347 17.4932C18.2347 16.7375 17.8077 15.8872 16.7543 15.1864L16.7532 15.1856C15.5327 14.3705 13.874 13.9395 12.1722 13.9395C10.4713 13.9395 8.80699 14.3701 7.57556 15.1861Z" fill="#292D32"/>
</svg>
