<svg width="30" height="18" viewBox="0 0 30 18" fill="none" xmlns="http://www.w3.org/2000/svg">
<path fill-rule="evenodd" clip-rule="evenodd" d="M0.375 1.5C0.375 0.87868 0.87868 0.375 1.5 0.375H28.5C29.1213 0.375 29.625 0.87868 29.625 1.5C29.625 2.12132 29.1213 2.625 28.5 2.625H1.5C0.87868 2.625 0.375 2.12132 0.375 1.5Z" fill="#FF453A"/>
<path fill-rule="evenodd" clip-rule="evenodd" d="M0.375 9C0.375 8.37868 0.87868 7.875 1.5 7.875H28.5C29.1213 7.875 29.625 8.37868 29.625 9C29.625 9.62132 29.1213 10.125 28.5 10.125H1.5C0.87868 10.125 0.375 9.62132 0.375 9Z" fill="#FF453A"/>
<path fill-rule="evenodd" clip-rule="evenodd" d="M0.375 16.5C0.375 15.8787 0.87868 15.375 1.5 15.375H28.5C29.1213 15.375 29.625 15.8787 29.625 16.5C29.625 17.1213 29.1213 17.625 28.5 17.625H1.5C0.87868 17.625 0.375 17.1213 0.375 16.5Z" fill="#FF453A"/>
</svg>
