<svg width="24" height="25" viewBox="0 0 24 25" fill="none" xmlns="http://www.w3.org/2000/svg">
<path fill-rule="evenodd" clip-rule="evenodd" d="M2 6.44852C2 3.97473 4.04134 2.00195 6.51712 2.00195H11.4819C13.9585 2.00195 16 3.9746 16 6.44852V7.37958C16 7.80442 15.6574 8.14881 15.2347 8.14881C14.812 8.14881 14.4694 7.80442 14.4694 7.37958V6.44852C14.4694 4.86091 13.1501 3.54041 11.4819 3.54041H6.51712C4.85003 3.54041 3.53063 4.86077 3.53063 6.44852V17.5554C3.53063 19.1431 4.85003 20.4635 6.51712 20.4635H11.492C13.1545 20.4635 14.4694 19.1477 14.4694 17.5664V16.6253C14.4694 16.2005 14.812 15.8561 15.2347 15.8561C15.6574 15.8561 16 16.2005 16 16.6253V17.5664C16 20.0346 13.9623 22.002 11.492 22.002H6.51712C4.04134 22.002 2 20.0292 2 17.5554V6.44852Z" fill="white"/>
<path fill-rule="evenodd" clip-rule="evenodd" d="M9 12.002C9 11.4497 9.34778 11.002 9.77678 11.002H22.2232C22.6522 11.002 23 11.4497 23 12.002C23 12.5542 22.6522 13.002 22.2232 13.002H9.77678C9.34778 13.002 9 12.5542 9 12.002Z" fill="white"/>
<path fill-rule="evenodd" clip-rule="evenodd" d="M20.1916 8.25584C20.4525 7.92435 20.882 7.91644 21.1509 8.23817L23.7941 11.4012C23.9257 11.5587 24 11.7752 24 12.0013C24 12.2275 23.9258 12.444 23.7942 12.6015L21.151 15.7656C20.8821 16.0874 20.4527 16.0796 20.1917 15.7482C19.9307 15.4167 19.937 14.8872 20.2058 14.5654L22.3477 12.0015L20.2059 9.43858C19.9371 9.11686 19.9306 8.58732 20.1916 8.25584Z" fill="#F5F5F5"/>
</svg>
