<svg width="71" height="70" viewBox="0 0 71 70" fill="none" xmlns="http://www.w3.org/2000/svg">
<path d="M35.523 0C28.6206 0 21.8732 2.05271 16.1341 5.89856C10.395 9.74441 5.92186 15.2107 3.28043 21.6061C0.638992 28.0015 -0.0521272 35.0388 1.29446 41.8282C2.64105 48.6175 5.96488 54.8539 10.8456 59.7487C15.7263 64.6436 21.9448 67.977 28.7145 69.3275C35.4843 70.678 42.5014 69.9849 48.8783 67.3358C55.2553 64.6867 60.7058 60.2007 64.5406 54.445C68.3754 48.6892 70.4222 41.9223 70.4222 35C70.4222 25.7174 66.7453 16.815 60.2004 10.2513C53.6556 3.68749 44.7789 0 35.523 0ZM35.523 10.465C37.8062 10.4644 40.0383 11.1429 41.937 12.4145C43.8357 13.6862 45.3158 15.4941 46.19 17.6094C47.0642 19.7247 47.2933 22.0525 46.8483 24.2984C46.4033 26.5442 45.3042 28.6073 43.69 30.2268C42.0758 31.8462 40.019 32.9492 37.7798 33.3962C35.5405 33.8433 33.2194 33.6143 31.1098 32.7383C29.0003 31.8623 27.1972 30.3786 25.9285 28.4749C24.6598 26.5711 23.9826 24.3328 23.9824 22.043C23.9826 18.9732 25.1985 16.0291 27.3627 13.8582C29.5268 11.6872 32.4621 10.4671 35.523 10.466V10.465ZM35.517 60.85C29.4015 60.8569 23.4853 58.669 18.8382 54.682C18.2974 54.2192 17.863 53.6443 17.5651 52.9969C17.2671 52.3495 17.1126 51.645 17.1122 50.932C17.1126 49.3943 17.4159 47.8717 18.0046 46.4519C18.5934 45.032 19.456 43.7428 20.543 42.6583C21.63 41.5737 22.9199 40.7152 24.3387 40.132C25.7575 39.5488 27.2771 39.2525 28.8104 39.26H42.2426C43.7749 39.2529 45.2935 39.5496 46.711 40.1332C48.1285 40.7167 49.417 41.5756 50.5024 42.6603C51.5878 43.745 52.4487 45.0342 53.0355 46.4538C53.6224 47.8734 53.9236 49.3953 53.9218 50.932C53.9221 51.6447 53.768 52.349 53.4702 52.9962C53.1723 53.6433 52.7379 54.2178 52.1968 54.68C47.5501 58.6686 41.6333 60.8573 35.517 60.85Z" fill="#E9E9E9"/>
</svg>
