<svg xmlns="http://www.w3.org/2000/svg" width="24" height="24" viewBox="0 0 24 24"><defs><style>.a,.b{fill:#2b273c;}.a{stroke:#707070;opacity:0;}.c{stroke:none;}.d{fill:none;}</style></defs><g transform="translate(-222 -599)"><g class="a" transform="translate(222 599)"><rect class="c" width="24" height="24"/><rect class="d" x="0.5" y="0.5" width="23" height="23"/></g><g transform="translate(225.003 602)"><g transform="translate(-0.003)"><path class="b" d="M8.451,10.588A7.265,7.265,0,0,1,6.258,6.463a.617.617,0,0,1,.177-.516l1.39-1.39a.621.621,0,0,0,.088-.768L5.7.351A.621.621,0,0,0,4.9.125L1.341,1.8A.617.617,0,0,0,1,2.415,17.178,17.178,0,0,0,6.231,12.807a17.174,17.174,0,0,0,10.391,5.231.617.617,0,0,0,.617-.341l1.674-3.554a.621.621,0,0,0-.225-.8L15.25,11.127a.621.621,0,0,0-.768.087l-1.39,1.39a.617.617,0,0,1-.516.177A7.265,7.265,0,0,1,8.451,10.588Z" transform="translate(-0.997 -0.041)"/><path class="b" d="M33.9,16.517a.621.621,0,0,1-.621-.621,4.661,4.661,0,0,0-4.655-4.655.621.621,0,1,1,0-1.241,5.9,5.9,0,0,1,5.9,5.9A.621.621,0,0,1,33.9,16.517Z" transform="translate(-19.62 -6.897)"/><path class="b" d="M37,9.621A.621.621,0,0,1,36.379,9a7.767,7.767,0,0,0-7.759-7.759.621.621,0,1,1,0-1.241,9.01,9.01,0,0,1,9,9A.621.621,0,0,1,37,9.621Z" transform="translate(-19.62)"/></g></g></g></svg>