<svg xmlns="http://www.w3.org/2000/svg"   viewBox="0 0 50 50"><defs><style>.a,.b{fill:#2b273c;}.a{stroke:#707070;opacity:0;}.c{stroke:none;}.d{fill:none;}</style></defs><g transform="translate(-1300.999 -219)"><g class="a" transform="translate(1300.999 219)"><rect class="c" width="50" height="50"/><rect class="d" x="0.5" y="0.5" width="49" height="49"/></g><g transform="translate(1302.26 219)"><path class="b" d="M43.383,12.37a1.359,1.359,0,0,0-.982-2.3H32.054L33.628,6.7a3.063,3.063,0,0,0,3.751-1.5,3.06,3.06,0,0,0-1.263-3.834l.337-.722a.453.453,0,1,0-.821-.383l-.337.722a3.06,3.06,0,0,0-3.75,1.5,3.059,3.059,0,0,0,1.263,3.834L31.054,10.07H5.08a1.359,1.359,0,0,0-.982,2.3L22.5,31.6V47.62H17.389a1.19,1.19,0,0,0,0,2.38H30.094a1.19,1.19,0,0,0,0-2.38H24.981V31.6Zm-13.6.42-1.759,3.774H13.865l9.877,10.319L33.62,16.564H29.027l1.759-3.774h8.433L23.742,28.959,8.263,12.79Z" transform="translate(0)"/></g></g></svg>