<svg xmlns="http://www.w3.org/2000/svg" width="24" height="24" viewBox="0 0 24 24"><defs><style>.a,.b{fill:#2b273c;}.a{stroke:#707070;opacity:0;}.c{stroke:none;}.d{fill:none;}</style></defs><g transform="translate(-224 -452)"><g class="a" transform="translate(224 452)"><rect class="c" width="24" height="24"/><rect class="d" x="0.5" y="0.5" width="23" height="23"/></g><g transform="translate(227 455)"><g transform="translate(10.125)"><path class="b" d="M291.938,0A3.942,3.942,0,0,0,288,3.938c0,2.021,3.159,5.6,3.519,6a.562.562,0,0,0,.837,0c.36-.4,3.519-3.98,3.519-6A3.942,3.942,0,0,0,291.938,0Zm0,5.625a1.688,1.688,0,1,1,1.688-1.687A1.688,1.688,0,0,1,291.938,5.625Z" transform="translate(-288)"/></g><g transform="translate(0 4.5)"><path class="b" d="M.353,130.108a.564.564,0,0,0-.353.523v10.306a.562.562,0,0,0,.772.522l4.853-1.942V128Z" transform="translate(0 -128)"/></g><g transform="translate(12.375 7.1)"><path class="b" d="M354.943,205.542a1.687,1.687,0,0,1-2.511,0c-.115-.127-.262-.295-.432-.494v7.8l5.272-2.108a.561.561,0,0,0,.353-.522v-8.27A24.444,24.444,0,0,1,354.943,205.542Z" transform="translate(-352 -201.952)"/></g><g transform="translate(6.75 4.5)"><path class="b" d="M194.6,129.042,192,128v11.518l4.5,1.8v-9.034A14.647,14.647,0,0,1,194.6,129.042Z" transform="translate(-192 -128)"/></g></g></g></svg>