<svg width="24" height="24" viewBox="0 0 24 24" fill="none" xmlns="http://www.w3.org/2000/svg">
<g clip-path="url(#clip0_151_6533)">
<path d="M13.6039 16.9094C13.3585 16.9323 13.1122 16.8769 12.9002 16.7512C12.7454 16.5922 12.6711 16.3715 12.6984 16.1512C12.7042 15.9679 12.726 15.7853 12.7639 15.6058C12.8005 15.3998 12.8478 15.1959 12.9057 14.9949L13.5493 12.7803C13.6157 12.5617 13.6596 12.3369 13.6802 12.1094C13.6802 11.8639 13.7129 11.6948 13.7129 11.5967C13.7266 11.1592 13.5398 10.7394 13.2057 10.4567C12.7946 10.1411 12.2827 9.986 11.7657 10.0203C11.3951 10.0259 11.0274 10.0865 10.6747 10.2003C10.2893 10.3203 9.88382 10.4639 9.45839 10.6312L9.27295 11.3512C9.39839 11.3076 9.55115 11.2585 9.72567 11.2039C9.89217 11.1546 10.0648 11.1289 10.2384 11.1276C10.4819 11.1012 10.7271 11.161 10.9311 11.2967C11.0697 11.462 11.1347 11.6768 11.1111 11.8912C11.1105 12.0747 11.0904 12.2575 11.0511 12.4367C11.0129 12.6276 10.9638 12.8294 10.9038 13.0421L10.2547 15.2675C10.2024 15.4744 10.1606 15.6837 10.1293 15.8948C10.1038 16.0755 10.0911 16.2578 10.0911 16.4403C10.0884 16.8807 10.2899 17.2977 10.6365 17.5693C11.0539 17.8898 11.5731 18.0487 12.0983 18.0166C12.4682 18.0242 12.8368 17.9708 13.1893 17.8584C13.4984 17.7529 13.9111 17.6021 14.4275 17.4057L14.602 16.7184C14.4622 16.7764 14.3181 16.8238 14.1711 16.8602C13.9852 16.9027 13.7943 16.9192 13.6039 16.9094Z" fill="#FF9900"/>
<path d="M14.2855 6.4086C13.9887 6.13598 13.5976 5.9893 13.1946 5.99952C12.7919 5.99043 12.4012 6.13696 12.1037 6.4086C11.5585 6.87876 11.4976 7.70193 11.9678 8.24723C12.0097 8.29584 12.0551 8.34126 12.1037 8.38316C12.7249 8.93877 13.6644 8.93877 14.2855 8.38316C14.8307 7.90837 14.8879 7.08149 14.4131 6.53624C14.3736 6.49082 14.331 6.44816 14.2855 6.4086Z" fill="#FF9900"/>
<path d="M12 0C5.37258 0 0 5.37258 0 12C0 18.6274 5.37258 24 12 24C18.6274 24 24 18.6274 24 12C24 5.37258 18.6274 0 12 0ZM12 22.9091C5.97506 22.9091 1.09092 18.0249 1.09092 12C1.09092 5.97506 5.97506 1.09092 12 1.09092C18.0249 1.09092 22.9091 5.97506 22.9091 12C22.9091 18.0249 18.0249 22.9091 12 22.9091Z" fill="#FF9900"/>
</g>
<defs>
<clipPath id="clip0_151_6533">
<rect width="24" height="24" fill="white"/>
</clipPath>
</defs>
</svg>
