<svg width="24" height="24" viewBox="0 0 24 24" fill="none" xmlns="http://www.w3.org/2000/svg">
<path d="M13.6641 8.56836H9.32373V16.4303H13.6641V8.56836Z" fill="#FF5F00"/>
<path d="M9.59947 12.5C9.59878 11.7428 9.769 10.9954 10.0972 10.3144C10.4255 9.63332 10.9031 9.03647 11.4941 8.569C10.7623 7.98923 9.88347 7.62868 8.95802 7.52856C8.03258 7.42844 7.09787 7.59278 6.26071 8.00282C5.42356 8.41285 4.71774 9.05203 4.22393 9.84729C3.73013 10.6426 3.46826 11.5618 3.46826 12.5C3.46826 13.4382 3.73013 14.3574 4.22393 15.1527C4.71774 15.948 5.42356 16.5871 6.26071 16.9972C7.09787 17.4072 8.03258 17.5715 8.95802 17.4714C9.88347 17.3713 10.7623 17.0108 11.4941 16.431C10.9031 15.9635 10.4255 15.3667 10.0973 14.6856C9.76901 14.0046 9.59879 13.2572 9.59947 12.5Z" fill="#EB001B"/>
<path d="M19.5197 12.5C19.5197 13.4382 19.2579 14.3574 18.7641 15.1527C18.2703 15.9479 17.5645 16.5871 16.7274 16.9972C15.8903 17.4072 14.9555 17.5715 14.0301 17.4714C13.1047 17.3713 12.2259 17.0108 11.4941 16.431C12.0845 15.963 12.5618 15.3661 12.89 14.6851C13.2182 14.0042 13.3887 13.257 13.3887 12.5C13.3887 11.7429 13.2182 10.9958 12.89 10.3148C12.5618 9.63389 12.0845 9.03694 11.4941 8.569C12.2259 7.98923 13.1047 7.62867 14.0301 7.52856C14.9555 7.42844 15.8903 7.59279 16.7274 8.00283C17.5645 8.41287 18.2703 9.05204 18.7641 9.84731C19.2579 10.6426 19.5197 11.5618 19.5197 12.5Z" fill="#F79E1B"/>
<path d="M19.0464 15.5984V15.4374H19.1108V15.4046H18.9468V15.4374H19.0112V15.5984H19.0464ZM19.3647 15.5984V15.4043H19.3145L19.2567 15.5378L19.1988 15.4043H19.1485V15.5984H19.184V15.452L19.2382 15.5782H19.275L19.3293 15.4517V15.5984H19.3647Z" fill="#F79E1B"/>
</svg>
