<svg xmlns="http://www.w3.org/2000/svg"  viewBox="0 0 50 50"><defs><style>.a{fill:#2b273c;}</style></defs><path class="a" d="M49.167,48.333h-5v-27.5A.833.833,0,0,0,43.333,20H31.667V.833A.833.833,0,0,0,30.833,0H9.167a.833.833,0,0,0-.833.833v47.5H.833A.833.833,0,0,0,.833,50H49.167a.833.833,0,0,0,0-1.667Zm-31.667,0H14.167v-7.5A.833.833,0,0,1,15,40h1.667a.833.833,0,0,1,.833.833Zm3.333-27.5v27.5H19.167v-7.5a2.5,2.5,0,0,0-2.5-2.5H15a2.5,2.5,0,0,0-2.5,2.5v7.5H10V1.667H30V20H21.667A.833.833,0,0,0,20.833,20.833ZM42.5,48.333h-20V21.667h20Z"/><path class="a" d="M205.833,112h-5a.833.833,0,0,0-.833.833v5a.833.833,0,0,0,.833.833h5a.833.833,0,0,0,.833-.833v-5A.833.833,0,0,0,205.833,112ZM205,117h-3.333v-3.333H205Z" transform="translate(-179.167 -100.333)"/><path class="a" d="M205.833,32h-5a.833.833,0,0,0-.833.833v5a.833.833,0,0,0,.833.833h5a.833.833,0,0,0,.833-.833v-5A.833.833,0,0,0,205.833,32ZM205,37h-3.333V33.667H205Z" transform="translate(-179.167 -28.667)"/><path class="a" d="M125.833,112h-5a.833.833,0,0,0-.833.833v5a.833.833,0,0,0,.833.833h5a.833.833,0,0,0,.833-.833v-5A.833.833,0,0,0,125.833,112ZM125,117h-3.333v-3.333H125Z" transform="translate(-107.5 -100.333)"/><path class="a" d="M125.833,32h-5a.833.833,0,0,0-.833.833v5a.833.833,0,0,0,.833.833h5a.833.833,0,0,0,.833-.833v-5A.833.833,0,0,0,125.833,32ZM125,37h-3.333V33.667H125Z" transform="translate(-107.5 -28.667)"/><path class="a" d="M125.833,192h-5a.833.833,0,0,0-.833.833v5a.833.833,0,0,0,.833.833h5a.833.833,0,0,0,.833-.833v-5A.833.833,0,0,0,125.833,192ZM125,197h-3.333v-3.333H125Z" transform="translate(-107.5 -172)"/><path class="a" d="M125.833,272h-5a.833.833,0,0,0-.833.833v5a.833.833,0,0,0,.833.833h5a.833.833,0,0,0,.833-.833v-5A.833.833,0,0,0,125.833,272ZM125,277h-3.333v-3.333H125Z" transform="translate(-107.5 -243.667)"/><path class="a" d="M320.833,310.667h5a.833.833,0,0,0,.833-.833v-5a.833.833,0,0,0-.833-.833h-5a.833.833,0,0,0-.833.833v5A.833.833,0,0,0,320.833,310.667Zm.833-5H325V309h-3.333Z" transform="translate(-286.667 -272.333)"/><path class="a" d="M320.833,230.667h5a.833.833,0,0,0,.833-.833v-5a.833.833,0,0,0-.833-.833h-5a.833.833,0,0,0-.833.833v5A.833.833,0,0,0,320.833,230.667Zm.833-5H325V229h-3.333Z" transform="translate(-286.667 -200.667)"/><path class="a" d="M320.833,390.667h5a.833.833,0,0,0,.833-.833v-5a.833.833,0,0,0-.833-.833h-5a.833.833,0,0,0-.833.833v5A.833.833,0,0,0,320.833,390.667Zm.833-5H325V389h-3.333Z" transform="translate(-286.667 -344)"/><path class="a" d="M240.833,310.667h5a.833.833,0,0,0,.833-.833v-5a.833.833,0,0,0-.833-.833h-5a.833.833,0,0,0-.833.833v5A.833.833,0,0,0,240.833,310.667Zm.833-5H245V309h-3.333Z" transform="translate(-215 -272.333)"/><path class="a" d="M240.833,230.667h5a.833.833,0,0,0,.833-.833v-5a.833.833,0,0,0-.833-.833h-5a.833.833,0,0,0-.833.833v5A.833.833,0,0,0,240.833,230.667Zm.833-5H245V229h-3.333Z" transform="translate(-215 -200.667)"/><path class="a" d="M240.833,390.667h5a.833.833,0,0,0,.833-.833v-5a.833.833,0,0,0-.833-.833h-5a.833.833,0,0,0-.833.833v5A.833.833,0,0,0,240.833,390.667Zm.833-5H245V389h-3.333Z" transform="translate(-215 -344)"/></svg>