<svg xmlns="http://www.w3.org/2000/svg" xmlns:xlink="http://www.w3.org/1999/xlink" width="200" height="138" viewBox="0 0 200 138"><defs><style>.a{fill:#fff;}.b{clip-path:url(#a);}.c{fill:#f2f2f2;}.d{fill:#7e7e7e;}.e{fill:#3f3d56;}.f,.k{fill:#ff453a;}.g{opacity:0.2;}.h{fill:#fbbebe;}.i{fill:#2f2e41;}.j{fill:#ccc;}.k{stroke:#3f3d56;}</style><clipPath id="a"><rect class="a" width="200" height="138" transform="translate(1278 407)"/></clipPath></defs><g class="b" transform="translate(-1278 -407)"><g transform="translate(1281.75 408.255)"><path class="c" d="M203.475,187.067a32.909,32.909,0,0,1-4.007,15.871,20.794,20.794,0,0,1-6.491,15.025,22.424,22.424,0,0,1-3.233,2.583c-.046.032-.094.063-.141.093l-.259.169-.081.052h0a23.435,23.435,0,0,1-12.44,3.516H61.311q-1.38,0-2.736-.122a29.9,29.9,0,0,1-9.366-2.391q-.877-.382-1.721-.822-.4-.208-.8-.428c-.164-.091-.328-.186-.491-.281a28.79,28.79,0,0,1-5.286-3.954,26.532,26.532,0,0,1-8.449-19.309A32.816,32.816,0,0,1,28,180.391c0-16.761,12.154-30.348,27.15-30.348.46,0,.92.015,1.38.042a1.277,1.277,0,0,1,.2.01,50.633,50.633,0,0,1,9.97-12.953c11.081-10.465,27.275-17.062,45.315-17.062a67.558,67.558,0,0,1,39.626,12.353,24.818,24.818,0,0,1,13.184-3.812c14.992,0,27.15,13.587,27.15,30.348q0,1.591-.153,3.175A31.481,31.481,0,0,1,203.475,187.067Z" transform="translate(-28 -116.411)"/><ellipse class="d" cx="33.517" cy="2.523" rx="33.517" ry="2.523" transform="translate(125.159 129.697)"/><path class="e" d="M252.589,321.078a4.741,4.741,0,0,0-4.745-4.669H224.013A4.754,4.754,0,0,0,219.272,321a4.639,4.639,0,0,0,1.8,3.728,1.038,1.038,0,0,1,.411.95,4.616,4.616,0,0,0-.041.618v16.484a4.62,4.62,0,0,0,4.62,4.62h19.583a4.62,4.62,0,0,0,4.62-4.62V326.3a4.647,4.647,0,0,0-.032-.542,1,1,0,0,1,.422-.925A4.642,4.642,0,0,0,252.589,321.078Z" transform="translate(-188.456 -270.423)"/><path class="f" d="M254.232,323.3a3.7,3.7,0,0,0-3.7-3.209H226.68a3.705,3.705,0,0,0-3.643,2.87,3.647,3.647,0,0,0,1.743,3.928,1,1,0,0,1,.47,1.136,3.577,3.577,0,0,0-.127.948V345.45A3.615,3.615,0,0,0,228.067,349a3.654,3.654,0,0,0,.67.062H248.32a3.575,3.575,0,0,0,.978-.135,3.613,3.613,0,0,0,2.634-3.477V328.967a3.6,3.6,0,0,0-.112-.89,1.03,1.03,0,0,1-.031-.246,1,1,0,0,1,.533-.886l0,0A3.64,3.64,0,0,0,254.232,323.3Z" transform="translate(-191.131 -273.093)"/><path class="g" d="M257.679,330.547V329h-2.634v-8.91h-1.55V329H245.2v-8.91h-1.55V329h-8.291v-8.91h-1.55V329H230.87v1.55h2.944V335.2H230.87v1.55h2.944v4.649H230.87v1.55h2.944V349a3.655,3.655,0,0,0,.669.062h.88v-6.121h8.291v6.121h1.55v-6.121h8.291v6.121h.572a3.574,3.574,0,0,0,.978-.135v-5.986h2.634v-1.55h-2.634v-4.649h2.634V335.2h-2.634v-4.649Zm-22.315,0h8.291V335.2h-8.291Zm0,10.848v-4.649h8.291v4.649Zm18.131,0H245.2v-4.649h8.291Zm0-6.2H245.2v-4.649h8.291Z" transform="translate(-196.878 -273.093)"/><path class="f" d="M252.768,190.527a16.55,16.55,0,0,1-33.1,0Z" transform="translate(-188.744 -179.021)"/><path class="e" d="M240.018,199.176c0,.433-.153.783-.343.783s-.343-.351-.343-.783a.467.467,0,1,1,.686,0Z" transform="translate(-203.022 -184.733)"/><path class="e" d="M303.3,209.187c0,.433-.153.783-.343.783s-.343-.351-.343-.783a.467.467,0,1,1,.685,0Z" transform="translate(-248.972 -192.001)"/><path class="e" d="M256.822,203.467c0,.433-.154.783-.343.783s-.343-.351-.343-.783a.467.467,0,1,1,.686,0Z" transform="translate(-215.224 -187.848)"/><path class="e" d="M281.849,225.991c0,.433-.153.783-.343.783s-.343-.351-.343-.783a.467.467,0,1,1,.685,0Z" transform="translate(-233.396 -204.203)"/><path class="e" d="M255.034,223.131c0,.433-.153.783-.343.783s-.343-.351-.343-.783a.467.467,0,1,1,.686,0Z" transform="translate(-213.925 -202.126)"/><path class="e" d="M317.6,196.316c0,.433-.153.783-.343.783s-.343-.351-.343-.783a.467.467,0,1,1,.686,0Z" transform="translate(-259.356 -182.656)"/><path class="e" d="M294.72,231.711c0,.433-.153.783-.343.783s-.343-.351-.343-.783a.467.467,0,1,1,.686,0Z" transform="translate(-242.741 -208.356)"/><path class="e" d="M233.753,208.008a17.5,17.5,0,0,1-17.48-17.48h1.861a15.62,15.62,0,1,0,31.24,0h1.861a17.5,17.5,0,0,1-17.48,17.48Z" transform="translate(-186.279 -179.021)"/><rect class="e" width="5.478" height="5.478" transform="translate(82.26 17.507)"/><rect class="e" width="44.099" height="0.548" transform="translate(97.325 19.972)"/><rect class="e" width="5.478" height="5.478" transform="translate(82.26 58.743)"/><rect class="e" width="44.099" height="0.548" transform="translate(97.325 61.208)"/><rect class="e" width="5.478" height="5.478" transform="translate(82.26 99.693)"/><rect class="e" width="44.099" height="0.548" transform="translate(97.325 102.158)"/><path class="h" d="M769.548,320.7l-7,5.516L747.723,321s-5.042-5.671-7.893-1.447c-.976,1.447,5.419,4.119,6.022,4.367,1.508.621,15.957,8.548,17.373,7.508s9.382-6.3,9.382-6.3Z" transform="translate(-614.37 -290.477)"/><path class="i" d="M888.787,245.882c-6.632-2.478-13.788-11.18-18.9-7.529V226.57a9.028,9.028,0,0,1,9.028-9.028h0a9.028,9.028,0,0,1,9.028,9.028Z" transform="translate(-708.874 -217.542)"/><path class="i" d="M815.7,384.008l-.542,3.794s-1.355,4.065,0,11.652l-21.813,59.479,16.123,4.607,7.994-32.517,11.245-24.794-1.084,28.181-5.691,30.078,16.8-.677,4.9-51.575a45.685,45.685,0,0,0-4.094-23.782c-1.358-2.884-2.818-5.157-4.143-5.487C831.42,381.976,815.7,384.008,815.7,384.008Z" transform="translate(-653.302 -337.457)"/><path class="i" d="M770.576,659.546l-5.555,5.961s-10.7,5.555-3.116,6.232,10.161-2.3,10.161-2.3,9.484-.677,9.349-2.032-.813-5.826-.813-5.826Z" transform="translate(-628.497 -538.478)"/><path class="i" d="M909.794,663v4.2a11.363,11.363,0,0,1,0,2.168c-.135.406-2.168,5.419,4.607,4.336s4.065-5.284,4.065-5.284l-1.626-6.1Z" transform="translate(-737.57 -540.493)"/><circle class="h" cx="6.808" cy="6.808" r="6.808" transform="translate(163.147 3.669)"/><path class="h" d="M894.23,267.415s-.948,8.942,0,10.568-9.62-1.626-9.62-1.626,2.3-6.1,1.49-8.536S894.23,267.415,894.23,267.415Z" transform="translate(-719.567 -253.178)"/><path class="f" d="M856.893,309.211l2.168,5.961-20.187,2.3s-2.168-.406-2.168-2.168-2.3-7.994-2.3-7.994-5.641-4.572-8.351-5.792c-.982-.442.487-.259,1.314-2.134.248-.564.545-1.158.868-1.761.264-.495.549-1,.84-1.49.354-.6.718-1.2,1.072-1.761,1.07-1.708,2.047-3.145,2.36-3.726.948-1.761,9.865-1.919,9.865-1.919,2.55,1.6,9.916,1.919,9.916,1.919a45.448,45.448,0,0,1,7.178,3.726C859.618,294.49,856.893,309.211,856.893,309.211Z" transform="translate(-676.811 -269.231)"/><path class="i" d="M887.008,220.658V220.5l-.192.011a9.035,9.035,0,0,0-7.765-1.552,9,9,0,0,1,3.466,1.79l-6.526.362-2.754,6.121h12.528c.008.153.019.3.019.459l-1.258,13.24,5.849-3.906v-9.334A9.01,9.01,0,0,0,887.008,220.658Z" transform="translate(-711.308 -218.353)"/><path class="h" d="M941.384,339.758l-.406,10.7-1.084,20.729s1.49,8.942-2.3,8.807-.948-10.568-.948-10.568l-1.084-16.394,1.084-11.516Z" transform="translate(-756.56 -306.282)"/><path class="f" d="M933.131,313.619c0,1.219-6.842.881-6.842.881l-3.59-18.765a45.453,45.453,0,0,1,7.178,3.726,6.364,6.364,0,0,1,1.2,1.761c.161.435.314.939.459,1.49s.278,1.142.4,1.761A72.092,72.092,0,0,1,933.131,313.619Z" transform="translate(-747.222 -274.317)"/><path class="j" d="M234.561,507.126l-10.371-1.074a8.278,8.278,0,1,0-.036,3.294l10.407-.957Z" transform="translate(-187.272 -405.389)"/><path class="k" d="M273.218,511.337a6.748,6.748,0,0,0,8.4-6.082q.009-.174.009-.351t-.009-.351a6.748,6.748,0,0,0-8.4-6.082l-13.831,3.4a3.032,3.032,0,1,0,0,6.064Z" transform="translate(-215.383 -402.472)"/></g></g></svg>