<svg xmlns="http://www.w3.org/2000/svg"  viewBox="0 0 24 24">
    <defs>
        <style>.a{fill:#fff;stroke:#707070;opacity:0;}.b{fill:#007aff;}.c{stroke:none;}.d{fill:none;}</style>
    </defs>
    <g transform="translate(-1437 -171)">
        <g class="a" transform="translate(1437 171)">
            <rect class="c" width="24" height="24"/>
            <rect class="d" x="0.5" y="0.5" width="23" height="23"/>
        </g>
        <g transform="translate(1421.933 172)">
            <g transform="translate(17.067 7.071)">
                <g transform="translate(0)">
                    <path class="b"
                          d="M35.138,153.6H31.21a.786.786,0,0,0,0,1.571h3.929a.786.786,0,0,1,.786.786v10.214a.786.786,0,0,1-.786.786H19.424a.786.786,0,0,1-.786-.786V155.957a.786.786,0,0,1,.786-.786h3.929a.786.786,0,1,0,0-1.571H19.424a2.357,2.357,0,0,0-2.357,2.357v10.214a2.357,2.357,0,0,0,2.357,2.357H35.138a2.357,2.357,0,0,0,2.357-2.357V155.957A2.357,2.357,0,0,0,35.138,153.6Z"
                          transform="translate(-17.067 -153.6)"/>
                </g>
            </g>
            <g transform="translate(22.577)">
                <path class="b"
                      d="M145.913,11.23a.786.786,0,0,0-1.092,0l-2.589,2.587V.786a.786.786,0,1,0-1.571,0V13.818l-2.587-2.587a.786.786,0,0,0-1.111,1.111l3.929,3.929a.786.786,0,0,0,1.111,0h0l3.929-3.929A.786.786,0,0,0,145.913,11.23Z"
                      transform="translate(-136.742)"/>
            </g>
        </g>
    </g>
</svg>