<svg xmlns="http://www.w3.org/2000/svg" width="18" height="18" viewBox="0 0 18 18"><defs><style>.a,.b{fill:rgba(43,39,60,0.5);}.a{stroke:#707070;opacity:0;}.c{stroke:none;}.d{fill:none;}</style></defs><g class="a" transform="translate(0)"><rect class="c" width="18" height="18"/><rect class="d" x="0.5" y="0.5" width="17" height="17"/></g><g transform="translate(-2.252 -4.875)"><path class="b" d="M11.242,7.875c-3.23,0-5.777,2.033-8.823,5.355a.635.635,0,0,0,0,.856c2.607,2.881,4.905,5.359,8.827,5.359,3.873,0,6.778-3.122,8.843-5.384a.63.63,0,0,0,.02-.832C18,10.679,15.087,7.875,11.242,7.875Zm.177,9.4a3.616,3.616,0,1,1,3.443-3.443A3.617,3.617,0,0,1,11.419,17.272Z" transform="translate(0)"/><path class="b" d="M16.072,14.183A1.888,1.888,0,0,1,16.2,13.5c-.04,0-.08,0-.125,0a2.571,2.571,0,1,0,2.571,2.571c0-.052,0-.1,0-.157a1.782,1.782,0,0,1-.731.157A1.865,1.865,0,0,1,16.072,14.183Z" transform="translate(-4.822 -2.411)"/></g></svg>