<svg xmlns="http://www.w3.org/2000/svg" width="19.2" height="19.2" viewBox="0 0 19.2 19.2"><defs><style>.a{fill:#fbbb00;}.b{fill:#518ef8;}.c{fill:#28b446;}.d{fill:#f14336;}</style></defs><path class="a" d="M4.255,144.686l-.668,2.495-2.443.052a9.617,9.617,0,0,1-.071-8.964h0l2.175.4.953,2.162a5.729,5.729,0,0,0,.054,3.857Z" transform="translate(0 -133.083)"/><path class="b" d="M270.849,208.176a9.6,9.6,0,0,1-3.422,9.28h0l-2.739-.14-.388-2.42a5.721,5.721,0,0,0,2.462-2.922h-5.133v-3.8h9.221Z" transform="translate(-251.817 -200.369)"/><path class="c" d="M44.974,314.892h0a9.6,9.6,0,0,1-14.466-2.937l3.111-2.547a5.709,5.709,0,0,0,8.228,2.923Z" transform="translate(-29.365 -297.806)"/><path class="d" d="M43.278,2.21l-3.11,2.546a5.709,5.709,0,0,0-8.416,2.989l-3.127-2.56h0A9.6,9.6,0,0,1,43.278,2.21Z" transform="translate(-27.551)"/></svg>