<svg xmlns="http://www.w3.org/2000/svg" width="24" height="24" viewBox="0 0 24 24"><defs><style>.a,.b{fill:#2b273c;}.a{stroke:#707070;opacity:0;}.c{stroke:none;}.d{fill:none;}</style></defs><g transform="translate(-109 -578)"><g transform="translate(111 562.003)"><g class="a" transform="translate(-2 15.997)"><rect class="c" width="24" height="24"/><rect class="d" x="0.5" y="0.5" width="23" height="23"/></g><path class="b" d="M7.006,32.88c0-2.1,2.588-2.437,2.588-3.595a.79.79,0,0,0-.842-.813,1.274,1.274,0,0,0-1,.69l-.748-.525a2.056,2.056,0,0,1,1.832-1.165,1.686,1.686,0,0,1,1.8,1.723c0,1.871-2.479,2.191-2.5,3.291h2.588V33.4H7.053A4.234,4.234,0,0,1,7.006,32.88Zm4.283-1.633,2.386-3.677h1.193v3.447h.717V31.9h-.717v1.5h-.99V31.9H11.289v-.649Zm2.588-.23v-1.8a5.826,5.826,0,0,1,.039-.607H13.9a3.426,3.426,0,0,1-.273.533L12.349,31v.016Zm4.883-.309-.193.726a7.57,7.57,0,0,1-9.043,5.7,7.875,7.875,0,0,1-5.589-8.809l1.144.336a.367.367,0,0,0,.443-.456l-1.244-5.1a.352.352,0,0,0-.6-.175L.108,26.616a.384.384,0,0,0,.154.632l1.245.366a10.54,10.54,0,0,0,7.3,12.051c5.3,1.453,10.706-2,12.178-7.553l.184-.694a.379.379,0,0,0-.248-.464L19.2,30.447A.356.356,0,0,0,18.76,30.708ZM20.8,27.531l-1.806.247a.373.373,0,0,0-.309.422l.071.577a.362.362,0,0,0,.4.325l1.806-.247a.373.373,0,0,0,.309-.422l-.071-.577A.362.362,0,0,0,20.8,27.531Zm-1.391-3.593-1.587.941a.387.387,0,0,0-.136.513l.271.507a.348.348,0,0,0,.487.143l1.587-.941a.387.387,0,0,0,.136-.513l-.271-.507A.348.348,0,0,0,19.405,23.938Zm-2.568-2.783-1.136,1.5a.39.39,0,0,0,.056.529l.432.363a.346.346,0,0,0,.5-.059l1.136-1.5a.39.39,0,0,0-.056-.529L17.34,21.1A.346.346,0,0,0,16.837,21.155Zm-3.371-1.568-.52,1.837a.38.38,0,0,0,.241.468l.529.166a.355.355,0,0,0,.445-.253l.52-1.837a.38.38,0,0,0-.241-.468l-.529-.166A.355.355,0,0,0,13.466,19.587Zm-3.684-.124.171,1.909a.363.363,0,0,0,.39.339l.55-.055a.372.372,0,0,0,.322-.41l-.171-1.909a.363.363,0,0,0-.39-.339l-.55.055A.372.372,0,0,0,9.783,19.463ZM6.323,20.8l.838,1.7a.349.349,0,0,0,.482.161l.49-.268a.386.386,0,0,0,.153-.508l-.838-1.7a.349.349,0,0,0-.482-.161l-.49.268A.386.386,0,0,0,6.323,20.8Z" transform="translate(-1 -1)"/></g></g></svg>