<svg xmlns="http://www.w3.org/2000/svg" width="24" height="24" viewBox="0 0 24 24"><defs><style>.a,.b{fill:#2b273c;}.a{opacity:0;}</style></defs><g transform="translate(-3937 11438)"><rect class="a" width="24" height="24" transform="translate(3937 -11438)"/><g transform="translate(3941 -11435)"><path class="b" d="M79.581,80.238A.818.818,0,1,0,78.423,81.4l2.421,2.422H70.82a.818.818,0,0,0,0,1.636H80.845l-2.421,2.421a.818.818,0,0,0,1.157,1.157L83.4,85.214a.818.818,0,0,0,0-1.157Z" transform="translate(-66.729 -75.635)"/><path class="b" d="M17.909,18a.818.818,0,1,0,0-1.636H11.636V1.636h6.273a.818.818,0,1,0,0-1.636H10.818A.818.818,0,0,0,10,.818V17.182a.818.818,0,0,0,.818.818Z" transform="translate(-10)"/></g></g></svg>