<svg xmlns="http://www.w3.org/2000/svg" viewBox="0 0 60 60"><defs><style>.a{fill:#ff453a;}.b,.d{fill:none;}.b{stroke:#fff;}.c{stroke:none;}</style></defs><g transform="translate(-136 -271.022)"><path class="a" d="M30,60A30,30,0,0,1,8.787,8.787,30,30,0,1,1,51.213,51.213,29.8,29.8,0,0,1,30,60ZM24.429,28.2h.011a5.32,5.32,0,0,1,4.341,2.469c-2.053,2.055-8.428,8.43-8.428,8.43l-.01.009-.01.009a1.333,1.333,0,0,0,0,1.881l.076.076.076.076a1.33,1.33,0,0,0,1.881,0l.011-.013.006-.008c.016-.013,2.655-2.652,4.984-4.981l3.207-3.206,8.148,8.145.007.009a.064.064,0,0,0,.01.012,1.313,1.313,0,0,0,1.853,0,1.313,1.313,0,0,0,0-1.853l-.011-.008a.041.041,0,0,1-.011-.009l-8.447-8.45c.5-.808,1.788-2.706,3.087-2.924a3.88,3.88,0,0,0,1.82.4,6.485,6.485,0,0,0,4.5-1.977c1.987-1.987,2.937-5.1.906-7.194l-.024-.026-.025-.027a3.976,3.976,0,0,0-2.809-1.137,6.429,6.429,0,0,0-4.386,2.042c-2.022,2.023-2.388,4.8-1.574,6.326-.246,1.454-2.563,2.885-3.268,3.289a5.225,5.225,0,0,1-2.68-4.365,3.348,3.348,0,0,0-.964-2.748c-.069-.069-.265-.234-.267-.236l-5.468-4.258-.5.5,5.932,5.565-.643.643L20.018,18.92l-.528.528L25.237,25.2l-.543.543-5.747-5.747-.481.477,5.713,5.713-.656.657-5.549-5.877-.545.548,4.536,5.716s.108.111.154.151a3.362,3.362,0,0,0,2.213.828ZM34.6,25.078a.7.7,0,0,1-.091-.308,4.128,4.128,0,0,1,0-.853,6.824,6.824,0,0,1,.219-1.182c.069-.236.142-.449.222-.651a3.757,3.757,0,0,1,.35-.653,4.547,4.547,0,0,1,.986-1.02,6.221,6.221,0,0,1,1-.656,4.586,4.586,0,0,1,.781-.336,1.536,1.536,0,0,1,.317-.076c-.007.006-.1.077-.24.208s-.353.329-.6.562c-.087.085-.181.175-.28.269A11.777,11.777,0,0,0,35.9,21.846a3.314,3.314,0,0,0-.312.531c-.092.173-.179.359-.267.569-.168.384-.308.758-.42,1.058-.116.319-.206.587-.259.775a.758.758,0,0,0-.044.3Z" transform="translate(136 271.022)"/><g class="b" transform="translate(137 272.022)"><circle class="c" cx="29" cy="29" r="29"/><circle class="d" cx="29" cy="29" r="28.5"/></g></g></svg>