<svg xmlns="http://www.w3.org/2000/svg" width="24" height="24" viewBox="0 0 24 24"><defs><style>.a,.b{fill:#2b273c;}.a{stroke:#707070;opacity:0;}.b{stroke:#2b273c;stroke-width:0.3px;}.c{stroke:none;}.d{fill:none;}</style></defs><g transform="translate(-524 -295)"><g class="a" transform="translate(524 295)"><rect class="c" width="24" height="24"/><rect class="d" x="0.5" y="0.5" width="23" height="23"/></g><g transform="translate(528 298)"><g transform="translate(0 10.139)"><path class="b" d="M25.827,288.389c-5.408,0-8.387,2.559-8.387,7.2a.657.657,0,0,0,.657.657h15.46a.657.657,0,0,0,.657-.657C34.214,290.948,31.235,288.389,25.827,288.389Zm-7.049,6.547c.258-3.474,2.627-5.234,7.049-5.234s6.791,1.76,7.049,5.234Z" transform="translate(-17.44 -288.389)"/></g><g transform="translate(4.029)"><path class="b" d="M136.407,0a4.305,4.305,0,0,0-4.358,4.445,4.372,4.372,0,1,0,8.715,0A4.305,4.305,0,0,0,136.407,0Zm0,7.861a3.25,3.25,0,0,1-3.044-3.416,2.987,2.987,0,0,1,3.044-3.131,3.021,3.021,0,0,1,3.044,3.131A3.25,3.25,0,0,1,136.407,7.861Z" transform="translate(-132.049)"/></g></g></g></svg>