<svg xmlns="http://www.w3.org/2000/svg" width="24" height="24" viewBox="0 0 24 24">
    <defs>
        <style>.a,.b{}.a{stroke:#707070;opacity:0;}.c{stroke:none;}.d{fill:none;}</style>
    </defs>
    <g transform="translate(-1300.999 -219)">
        <g class="a" transform="translate(1300.999 219)">
            <rect class="c" width="24" height="24"/>
            <rect class="d" x="0.5" y="0.5" width="23" height="23"/>
        </g>
        <g transform="translate(1263 220)">
            <g transform="translate(41)">
                <path class="b"
                      d="M116.859,6.961a.859.859,0,0,0,.859-.859V.859a.859.859,0,0,0-1.719,0V6.1A.859.859,0,0,0,116.859,6.961Z"
                      transform="translate(-112.777)"/>
                <path class="b"
                      d="M48.3,0a.859.859,0,0,0-.859.859V6.23a2.363,2.363,0,0,1-4.727,0V.859A.859.859,0,0,0,41,.859V6.23a4.089,4.089,0,0,0,3.223,3.991V21.141a.859.859,0,0,0,1.719,0V10.221A4.089,4.089,0,0,0,49.164,6.23V.859A.859.859,0,0,0,48.3,0Z"
                      transform="translate(-41)"/>
                <path class="b"
                      d="M288.114,2.292C287.3.814,286.226,0,285.082,0s-2.221.814-3.032,2.292A8.6,8.6,0,0,0,281,6.23a4.089,4.089,0,0,0,3.223,3.991V21.141a.859.859,0,0,0,1.719,0V10.221a4.089,4.089,0,0,0,3.223-3.991A8.6,8.6,0,0,0,288.114,2.292Zm-3.032,6.3a2.366,2.366,0,0,1-2.363-2.363,6.9,6.9,0,0,1,.838-3.111c.474-.864,1.058-1.4,1.525-1.4s1.052.537,1.525,1.4a6.9,6.9,0,0,1,.838,3.111A2.366,2.366,0,0,1,285.082,8.594Z"
                      transform="translate(-270.688)"/>
            </g>
        </g>
    </g>
</svg>