<svg xmlns="http://www.w3.org/2000/svg" width="24" height="24" viewBox="0 0 24 24"><defs><style>.a,.b{fill:#ff453a;}.a{stroke:#707070;opacity:0;}.c{stroke:none;}.d{fill:none;}</style></defs><g transform="translate(-1324 -41)"><g class="a" transform="translate(1324 41)"><rect class="c" width="24" height="24"/><rect class="d" x="0.5" y="0.5" width="23" height="23"/></g><g transform="translate(1285.104 41)"><path class="b" d="M109.367,11.738c2.668,0,4.832-2.628,4.832-5.869S113.488,0,109.367,0s-4.832,2.628-4.832,5.869S106.7,11.738,109.367,11.738Z" transform="translate(-58.345)"/><path class="b" d="M41.9,300.474c0-.2,0-.056,0,0Z" transform="translate(0 -279.775)"/><path class="b" d="M308.085,301.666c0-.054,0-.375,0,0Z" transform="translate(-247.937 -280.813)"/><path class="b" d="M60.15,186.014c-.089-5.646-.827-7.255-6.47-8.274a3.964,3.964,0,0,1-5.292,0c-5.581,1.007-6.364,2.592-6.466,8.09-.008.449-.012.473-.014.42,0,.1,0,.278,0,.593,0,0,1.343,2.708,9.125,2.708s9.125-2.708,9.125-2.708c0-.2,0-.343,0-.439A3.631,3.631,0,0,1,60.15,186.014Z" transform="translate(-0.012 -165.552)"/></g></g></svg>