<svg xmlns="http://www.w3.org/2000/svg" xmlns:xlink="http://www.w3.org/1999/xlink" width="356" height="172" viewBox="0 0 356 172"><defs><style>.a{fill:rgba(126,126,126,0.5);}.b{clip-path:url(#a);}.c{fill:#f2f2f2;}.d,.h{fill:#fff;}.d{stroke:rgba(63,61,86,0.3);stroke-width:0.1px;}.e{fill:#3f3d56;}.f,.n{opacity:0.1;}.g,.p{fill:#ff453a;}.i{fill:#6c63ff;}.j{opacity:0.5;}.k{fill:none;stroke:#3f3d56;stroke-linecap:round;stroke-miterlimit:10;}.k,.p{opacity:0.7;}.l{fill:#7e7e7e;}.m,.n{fill:#fbbebe;}.o{fill:#f86d70;}.q{fill:#2f2e41;}.r{opacity:0.97;}.s{fill:#d9d9d9;}.t{fill:#343346;}</style><clipPath id="a"><rect class="a" width="356" height="172" transform="translate(17369 -573)"/></clipPath></defs><g class="b" transform="translate(-17369 573)"><g transform="translate(17424.76 -555.8)"><path class="c" d="M203.079,186.916a32.835,32.835,0,0,1-4,15.836,20.747,20.747,0,0,1-6.477,14.991,22.375,22.375,0,0,1-3.226,2.577c-.046.032-.093.062-.141.093l-.259.169-.081.052h0a23.382,23.382,0,0,1-12.412,3.509H61.236q-1.377,0-2.73-.121a29.831,29.831,0,0,1-9.345-2.385q-.875-.381-1.717-.82-.4-.208-.794-.427c-.164-.091-.328-.185-.49-.28a28.723,28.723,0,0,1-5.274-3.945,26.472,26.472,0,0,1-8.43-19.265A32.742,32.742,0,0,1,28,180.255c0-16.723,12.127-30.28,27.088-30.28.459,0,.918.015,1.377.042a1.273,1.273,0,0,1,.2.01A50.518,50.518,0,0,1,66.609,137.1c11.056-10.441,27.214-17.023,45.213-17.023a67.405,67.405,0,0,1,39.537,12.325,24.762,24.762,0,0,1,13.154-3.8c14.958,0,27.088,13.557,27.088,30.28q0,1.587-.153,3.168A31.41,31.41,0,0,1,203.079,186.916Z" transform="translate(-27.999 -116.914)"/><path class="d" d="M390.6,223.4v62.421c0,1.325-1.885,2.4-4.211,2.4H218.211a7.136,7.136,0,0,1-1.162-.094c-1.806-.294-3.051-1.235-3.049-2.3V230.973c.1,0,9.1-7.013,15.162-9.973H386.387C388.713,221,390.6,222.074,390.6,223.4Z" transform="translate(-164.504 -221)"/><g transform="translate(173.546 46.027)"><rect class="e" width="38.182" height="9.962" rx="4.981"/><rect class="f" width="33.204" height="6.629" rx="3.315" transform="translate(2.487 1.665)"/><rect class="g" width="11.99" height="5.903" rx="2.952" transform="translate(22.871 2.028)"/><circle class="h" cx="1.845" cy="1.845" r="1.845" transform="translate(26.93 3.136)"/></g><rect class="i" width="13.146" height="6.473" rx="3.236" transform="translate(198.622 53.68)"/><circle class="h" cx="2.023" cy="2.023" r="2.023" transform="translate(203.072 54.895)"/><g class="j" transform="translate(67.378 16.548)"><rect class="g" width="18.431" height="4.875" rx="2.437" transform="translate(0 0)"/><rect class="g" width="38.202" height="4.875" rx="2.437" transform="translate(0 6.856)"/></g><rect class="g" width="18.431" height="4.875" rx="2.437" transform="translate(67.378 44.112)"/><rect class="g" width="51.179" height="4.875" rx="2.437" transform="translate(67.378 50.968)"/><line class="k" x2="149.148" transform="translate(59.601 33.147)"/><ellipse class="l" cx="59.55" cy="4.137" rx="59.55" ry="4.137" transform="translate(124.46 129.731)"/><ellipse class="l" cx="31.67" cy="1.993" rx="31.67" ry="1.993" transform="translate(0 94.137)"/><ellipse class="c" cx="3.668" cy="3.668" rx="3.668" ry="3.668" transform="translate(1.315 24.543)"/><ellipse class="c" cx="3.668" cy="3.668" rx="3.668" ry="3.668" transform="translate(16.603 4.269)"/><ellipse class="c" cx="6.147" cy="6.147" rx="6.147" ry="6.147" transform="translate(12.881 15.718)"/><rect class="e" width="41.863" height="10.922" rx="5.461" transform="translate(173.546 15.455)"/><rect class="f" width="36.405" height="7.268" rx="3.634" transform="translate(176.274 17.284)"/><path class="m" d="M783.662,405.184a5.966,5.966,0,0,0-.644-2.032,4.607,4.607,0,0,0-.948-1,6.3,6.3,0,0,0-2.029-1.267,2.533,2.533,0,0,0-2.3.264,3.066,3.066,0,0,0-1.012,2.126,5.187,5.187,0,0,0,.541,3.2,13.186,13.186,0,0,0,2.6,2.667,10.444,10.444,0,0,1,1.695,2.126,6.14,6.14,0,0,0,.771,1.13,1.47,1.47,0,0,0,1.215.489,2.126,2.126,0,0,0,.993-.586c.37-.325,1.367-.911,1.4-1.419.024-.416-.754-1.358-.945-1.749A19.851,19.851,0,0,1,783.662,405.184Z" transform="translate(-592.04 -385.583)"/><path class="n" d="M783.662,405.184a5.966,5.966,0,0,0-.644-2.032,4.607,4.607,0,0,0-.948-1,6.3,6.3,0,0,0-2.029-1.267,2.533,2.533,0,0,0-2.3.264,3.066,3.066,0,0,0-1.012,2.126,5.187,5.187,0,0,0,.541,3.2,13.186,13.186,0,0,0,2.6,2.667,10.444,10.444,0,0,1,1.695,2.126,6.14,6.14,0,0,0,.771,1.13,1.47,1.47,0,0,0,1.215.489,2.126,2.126,0,0,0,.993-.586c.37-.325,1.367-.911,1.4-1.419.024-.416-.754-1.358-.945-1.749A19.851,19.851,0,0,1,783.662,405.184Z" transform="translate(-592.04 -385.583)"/><path class="o" d="M814.566,448.178a17.881,17.881,0,0,0-4.914-.607c-2.767.04-5.616.711-8.252-.14a14.385,14.385,0,0,1-1.974-.841,5.033,5.033,0,0,1-1.477-.969,11.239,11.239,0,0,1-2.284-5.345,35.68,35.68,0,0,1-.623-5.689,4.356,4.356,0,0,1-2.156.568,1.585,1.585,0,0,1-1.519-1.394,23.088,23.088,0,0,1-.1,5.3c-.116.692-.3,1.376-.355,2.075-.225,2.53,1.1,5.057.629,7.551a1.822,1.822,0,0,0,.86,1.95,9.652,9.652,0,0,0,2.226.607c1.467.373,2.734,1.306,4.222,1.655.684.161,1.4.191,2.077.374.969.258,1.853.814,2.843.987.741.134,1.519.043,2.257.106.653.055,1.291.225,1.947.243a5.611,5.611,0,0,0,4.179-2.068A18.137,18.137,0,0,0,814.566,448.178Z" transform="translate(-601.935 -408.583)"/><path class="p" d="M814.566,448.178a17.881,17.881,0,0,0-4.914-.607c-2.767.04-5.616.711-8.252-.14a14.385,14.385,0,0,1-1.974-.841,5.033,5.033,0,0,1-1.477-.969,11.239,11.239,0,0,1-2.284-5.345,35.68,35.68,0,0,1-.623-5.689,4.356,4.356,0,0,1-2.156.568,1.585,1.585,0,0,1-1.519-1.394,23.088,23.088,0,0,1-.1,5.3c-.116.692-.3,1.376-.355,2.075-.225,2.53,1.1,5.057.629,7.551a1.822,1.822,0,0,0,.86,1.95,9.652,9.652,0,0,0,2.226.607c1.467.373,2.734,1.306,4.222,1.655.684.161,1.4.191,2.077.374.969.258,1.853.814,2.843.987.741.134,1.519.043,2.257.106.653.055,1.291.225,1.947.243a5.611,5.611,0,0,0,4.179-2.068A18.137,18.137,0,0,0,814.566,448.178Z" transform="translate(-601.935 -408.583)"/><path class="m" d="M870.265,737.309a4.159,4.159,0,0,1,1.418.444,3.341,3.341,0,0,1,1.233,1.664,14.45,14.45,0,0,1,.829,5.2,11.194,11.194,0,0,1-.535,4.213,2.682,2.682,0,0,1-.7,1.1,2.53,2.53,0,0,1-.966.468,2.589,2.589,0,0,1-2.266-.279,3.61,3.61,0,0,1-1.011-2.363,5.47,5.47,0,0,0-1.346-3.213c-.644-.608-1.567-.911-2.035-1.646a3.516,3.516,0,0,1,.091-3.023c.3-.853.763-2.582,1.655-3.019S869.338,737.142,870.265,737.309Z" transform="translate(-653.242 -619.521)"/><path class="m" d="M752.5,748.633a6.73,6.73,0,0,0,1.391,2.585c.395.456.89,1.008.683,1.573a1.47,1.47,0,0,1-.374.5c-2.934,2.867-7.037,4.252-11.107,4.775a.393.393,0,0,1-.2,0c-.118-.052-.149-.2-.161-.334a4.106,4.106,0,0,1,0-1.279,3.847,3.847,0,0,1,1.922-2.245,5.969,5.969,0,0,0,2.26-1.974c.593-1.112.344-2.56,1.048-3.6a3.758,3.758,0,0,1,2.646-1.367c.349-.055,1.094-.438,1.391-.261S752.4,748.283,752.5,748.633Z" transform="translate(-568.375 -626.653)"/><path class="q" d="M872.411,737.4a.4.4,0,0,1,.352-.4,1.323,1.323,0,0,1,.58.073,8.1,8.1,0,0,0,1.394.258,10.36,10.36,0,0,1,1.683.2,1.906,1.906,0,0,1,1.3.993,2.47,2.47,0,0,1,.143.941,14.3,14.3,0,0,1-.435,3.645c-.024.091-.06.2-.149.231s-.152,0-.222.033a.275.275,0,0,0-.131.164,8.02,8.02,0,0,0-.507,2.43c-.134,1.215-.3,2.448-.507,3.663a4.025,4.025,0,0,1-.735,2,3.259,3.259,0,0,1-2.108.966,14.852,14.852,0,0,1-4.951-.452,1.448,1.448,0,0,1-.835-.373.939.939,0,0,1-.2-.662c.037-.817.789-1.394,1.467-1.85l.938-.629a.483.483,0,0,0,.164-.149.505.505,0,0,0,.046-.3l-.061-1.215a3.441,3.441,0,0,1,3,1.865c.127.258.252.559.519.659a.686.686,0,0,0,.817-.495,2.107,2.107,0,0,0-.027-1.054c-.55-2.937-.419-5.956-.753-8.924a2.019,2.019,0,0,0-.3-.942C872.745,737.867,872.444,737.67,872.411,737.4Z" transform="translate(-654.987 -619.712)"/><rect class="g" width="13.146" height="6.473" rx="3.236" transform="translate(190.331 24.154) rotate(180)"/><circle class="h" cx="2.023" cy="2.023" r="2.023" transform="translate(181.835 18.893)"/><path class="q" d="M732.61,766.01c-.137.228-.352.4-.48.638a.547.547,0,0,0,.1.714.706.706,0,0,0,.434.043,14.614,14.614,0,0,0,7.9-3.578,5.536,5.536,0,0,0,.969-1.06c.258-.392.477-.872.911-1.036a15.793,15.793,0,0,1,.407,3.478,2.477,2.477,0,0,1-.738,2.1,2.627,2.627,0,0,1-.82.334l-1.373.389a1.463,1.463,0,0,1-.762.073c-.161-.043-.3-.146-.471-.176a1.159,1.159,0,0,0-.535.07l-1.188.346a7.537,7.537,0,0,0-1.172.41c-.34.161-.653.368-.984.547a11.8,11.8,0,0,1-1.719.7L731,770.72a7.581,7.581,0,0,1-1.777.456c-.419.036-.847,0-1.264.07a8.578,8.578,0,0,1-.942.194,2.464,2.464,0,0,1-1.479-.437,1.378,1.378,0,0,1-.431-.383c-.3-.465-.039-1.078.252-1.549a6.125,6.125,0,0,1,2.126-2.181c.364-.2.756-.346,1.13-.528,1.066-.516,1.871-1.379,2.877-1.968C732.446,763.838,733.057,765.275,732.61,766.01Z" transform="translate(-556.045 -636.938)"/><path class="m" d="M846.69,476.174a8.678,8.678,0,0,0,3.693,1.437,15.044,15.044,0,0,0,2.09.112,53.143,53.143,0,0,0,8.7-.726,10.771,10.771,0,0,1-2.734-4.252,7.032,7.032,0,0,1-.133-2.664,20.005,20.005,0,0,1,.814-3.341,23.57,23.57,0,0,1-3.676-.094c-.7-.073-2.4-.7-3.007-.225s-.14,2.026-.131,2.752a.656.656,0,0,1,0,.079,8.778,8.778,0,0,1-.7,3.214A6.056,6.056,0,0,1,846.69,476.174Z" transform="translate(-640.79 -431.199)"/><path class="f" d="M864.77,469.13a7.307,7.307,0,0,0,6,.911,20.081,20.081,0,0,1,.814-3.341,23.568,23.568,0,0,1-3.675-.094c-.7-.073-2.4-.7-3.007-.225S864.76,468.4,864.77,469.13Z" transform="translate(-653.253 -431.171)"/><circle class="m" cx="7.323" cy="7.323" r="7.323" transform="translate(208.202 24.166)"/><path class="g" d="M776.09,515.286a3.41,3.41,0,0,0,1.652,2.937,6.592,6.592,0,0,0,1.792.632,35.194,35.194,0,0,0,10.221,1.261,5.619,5.619,0,0,0,2.169-.456,2.327,2.327,0,0,0,1.339-1.673,1.569,1.569,0,0,1,.1-.531,1.551,1.551,0,0,1,.507-.453,2.078,2.078,0,0,0,.787-2.072c.416.188.853-.234,1.051-.647s.349-.911.768-1.09a6.339,6.339,0,0,1,.911-.128c.483-.124.778-.607,1.118-.957a8.765,8.765,0,0,1,2.585-1.582,29.247,29.247,0,0,0,7.047-5.628,23.626,23.626,0,0,0,3.037-3.4,12.568,12.568,0,0,0,.668-1.093,30.945,30.945,0,0,0,1.686-3.861,4.45,4.45,0,0,0,.437-2.211,1,1,0,0,0-.04-.2,4.25,4.25,0,0,0-.665-1.342,5.619,5.619,0,0,0-3-2.466,8.294,8.294,0,0,0-3.86.346,9.651,9.651,0,0,1-1.309.2,12.294,12.294,0,0,1-4.076-.641l-1.452-.4c-.726-.2-1.09-1.078-1.822-1.233a2.466,2.466,0,0,0-.987.052,13.609,13.609,0,0,0-4.313,1.409,6.492,6.492,0,0,0-.838.571,5.3,5.3,0,0,0-1.95,2.876c-.3,1.267-.018,2.621-.322,3.888a8.655,8.655,0,0,1-1.491,2.837l-3.578,5.124a31.588,31.588,0,0,1-2.63,3.426C779.707,510.873,776.141,512.446,776.09,515.286Z" transform="translate(-591.633 -446.745)"/><path class="m" d="M791.512,405.184a5.954,5.954,0,0,0-.644-2.032,4.6,4.6,0,0,0-.948-1,6.3,6.3,0,0,0-2.029-1.267,2.534,2.534,0,0,0-2.3.264,3.066,3.066,0,0,0-1.011,2.126,5.186,5.186,0,0,0,.541,3.2,12.783,12.783,0,0,0,2.6,2.667,10.441,10.441,0,0,1,1.695,2.126,6.149,6.149,0,0,0,.771,1.13,1.47,1.47,0,0,0,1.215.489,2.128,2.128,0,0,0,.993-.586c.37-.325,1.367-.911,1.4-1.419.024-.416-.753-1.358-.945-1.749A19.873,19.873,0,0,1,791.512,405.184Z" transform="translate(-597.506 -385.583)"/><path class="q" d="M720.341,609.368c.911,1.7,1.926,3.341,2.749,5.1.477,1.024.89,2.075,1.422,3.071.58,1.084,1.294,2.093,1.9,3.162a36.711,36.711,0,0,1,3.165,8.757,17.436,17.436,0,0,0,6.233-2.193,3.922,3.922,0,0,0,.373-.24,4.405,4.405,0,0,0,1.258-1.388,29.729,29.729,0,0,0-2.949-7.964c-.483-.79-1.036-1.519-1.519-2.311-1.437-2.263-1.734-5.115-3.378-7.232a1.24,1.24,0,0,1,0-1.47c.188-.246.492-.48.434-.787-.042-.222-.273-.422-.185-.629.042-.1.146-.155.225-.228.279-.255.243-.7.27-1.072a5.254,5.254,0,0,1,1.191-2.585,1.618,1.618,0,0,1,.437-.471c.149-.091.325-.133.474-.225.523-.325.486-1.09.738-1.658.328-.747,1.154-1.127,1.7-1.731.69-.771.863-1.844,1.592-2.518a2.183,2.183,0,0,1,.24-.194,12.064,12.064,0,0,0-.428,3.526c-.07,4.082.951,8.3.474,12.359a8.523,8.523,0,0,0,4.41,8.031,21.368,21.368,0,0,0,3.435,1.445c1.756.623,3.511,1.264,5.233,1.984,1.215.5,2.43,1.051,3.6,1.631a44.358,44.358,0,0,1,4.252,2.357,16.4,16.4,0,0,1,4.587,3.775,4.116,4.116,0,0,0,2.964-1.631,11.442,11.442,0,0,0,1.622-3.071,8.528,8.528,0,0,0,.771-2.895.577.577,0,0,0-.322-.519l-8.037-4.252-1.519-.8c-3.289-1.746-6.682-3.362-9.99-5.105-.222.064-.4-.189-.468-.407s-.109-.492-.319-.589c-.106-.049-.24-.049-.3-.134a.366.366,0,0,1-.055-.267c.107-1.592,1.255-3.056,1.024-4.632a5.82,5.82,0,0,1-.3-2,9.269,9.269,0,0,1,.607-1.264c.392-.972,0-2.126.431-3.089a7.089,7.089,0,0,0,.58-1.968,13.32,13.32,0,0,1,1.23-3.9,7.034,7.034,0,0,1,1.13-1.713c.243-.258.513-.492.741-.759a6.337,6.337,0,0,0,1.157-3,14.343,14.343,0,0,0,.158-5.859,8.33,8.33,0,0,1-.374-1.971c0-.884.4-1.92-.216-2.56a2.006,2.006,0,0,0-.911-.462,27.515,27.515,0,0,0-4.359-.805l-6.7-.871a6.156,6.156,0,0,1-2.233-.58,4.45,4.45,0,0,1-1.883-2.406c-1.179.86-1.622,2.46-2.561,3.572-.459.543-1.023.981-1.519,1.479a16.754,16.754,0,0,0-1.683,2.075,36.847,36.847,0,0,0-3.812,6.014c-.519,1.121-.911,2.29-1.342,3.45-1.637,4.578-4.307,8.921-5.415,13.65-.273,1.157-.981,2.2-1.088,3.384A6.391,6.391,0,0,0,720.341,609.368Z" transform="translate(-552.067 -504.953)"/><path class="f" d="M836.25,566.879a2.078,2.078,0,0,1,.246.99c-.149-.741-1.169-1.151-1.233-1.883-.03-.337.03-.322.24-.143C835.822,566.107,835.959,566.587,836.25,566.879Z" transform="translate(-632.829 -500.46)"/><path class="f" d="M826.8,576.4a1.566,1.566,0,0,1,.465.686,1.746,1.746,0,0,1,.091,1.194c-.149-.07-.2-.252-.246-.413a2.851,2.851,0,0,0-.3-.708c-.121-.191-.677-.647-.671-.857C826.12,575.983,826.646,576.283,826.8,576.4Z" transform="translate(-626.474 -507.73)"/><path class="f" d="M827.14,490.566a7.666,7.666,0,0,0,1.543,1.027c1.452.735,3.059,1.121,4.519,1.822a21.973,21.973,0,0,1,2.1,1.215c1.449.911,2.895,1.823,4.341,2.749a4.8,4.8,0,0,1,.957.726c.522.559.519,1.519,1,2.126a2.855,2.855,0,0,0,2.1.972,6.836,6.836,0,0,0,2.348-.395,11.636,11.636,0,0,0,1.342-.489,6.214,6.214,0,0,0,1.288-.735,3.7,3.7,0,0,0,1.519-2.4,4.737,4.737,0,0,0-.258-1.956,7.62,7.62,0,0,0-.462-1.188,4.625,4.625,0,0,0-.37-.623,6.881,6.881,0,0,0-4.45-2.409c-.9-.173-1.807-.279-2.706-.431a9.693,9.693,0,0,1-1.309.2,12.3,12.3,0,0,1-4.076-.641l-1.452-.4c-.726-.2-1.09-1.078-1.822-1.233a2.466,2.466,0,0,0-.987.052,13.6,13.6,0,0,0-4.313,1.409A6.492,6.492,0,0,0,827.14,490.566Z" transform="translate(-627.178 -446.682)"/><path class="g" d="M803.549,431.36c.185,1.771,1.68,3.071,2.591,4.6.443.744.753,1.558,1.151,2.327a22.746,22.746,0,0,0,1.519,2.43l1.625,2.36a24.42,24.42,0,0,0,3.143,3.948c2.126.362,3.918,1.944,5.938,2.712a31.3,31.3,0,0,0,5.078,1.03,6.868,6.868,0,0,1,4.45,2.409,6.327,6.327,0,0,1,.832,1.822,4.72,4.72,0,0,1,.258,1.953,3.7,3.7,0,0,1-1.519,2.4,8.417,8.417,0,0,1-2.627,1.215,6.91,6.91,0,0,1-2.348.395,2.868,2.868,0,0,1-2.108-.972c-.474-.608-.471-1.576-.993-2.126a4.792,4.792,0,0,0-.957-.726l-4.34-2.734a21.913,21.913,0,0,0-2.1-1.215c-1.461-.714-3.068-1.1-4.519-1.822a5.337,5.337,0,0,1-3.089-3.548c-.884-4.917-4.289-9.063-7.2-13.124.094-.018.067-.237.1-.328a4.253,4.253,0,0,1,2.126-2.15A10.731,10.731,0,0,1,803.549,431.36Z" transform="translate(-607.125 -406.912)"/><path class="f" d="M745.22,646.663l9.045,22.036a4.409,4.409,0,0,0,1.257-1.388,29.71,29.71,0,0,0-2.949-7.964c-.483-.79-1.035-1.519-1.519-2.312-1.436-2.263-1.734-5.115-3.377-7.232a1.239,1.239,0,0,1,0-1.47c.188-.246.492-.48.434-.787-.043-.222-.273-.422-.185-.629.043-.1.146-.155.225-.228.279-.255.243-.7.27-1.072a5.257,5.257,0,0,1,1.191-2.585,1.621,1.621,0,0,1,.438-.471c.148-.091.325-.134.474-.225.522-.325.486-1.09.738-1.658.328-.747,1.154-1.127,1.7-1.731.69-.772.863-1.844,1.592-2.518l.064-.158-.683-4.252Z" transform="translate(-570.14 -546.625)"/><path class="q" d="M800.461,389.423a5.853,5.853,0,0,0-3.031-2.8c-1.72-.585-3.582.038-5.351.454a9.916,9.916,0,0,1-4.159.246A4.671,4.671,0,0,1,784.6,385c-.919-1.842-.145-4.039-.2-6.1a7.4,7.4,0,0,0-9.331-6.959c-1.693-.489-3.227-.534-4.274.768a4.969,4.969,0,0,0-4.969,4.969h4.751a4.72,4.72,0,0,0,.717,3.487c.839,1.232,2.3,2.124,2.578,3.588.272,1.419-.692,2.765-1.7,3.8s-2.185,2.053-2.5,3.462a4.292,4.292,0,0,0,.615,3.088,10.056,10.056,0,0,0,2.159,2.378,31.682,31.682,0,0,0,13.164,6.734c3.421.824,7.163,1.037,10.338-.478a10.267,10.267,0,0,0,4.52-14.312Z" transform="translate(-557.711 -350.648)"/><g class="r" transform="translate(18.93 36.036)"><ellipse class="e" cx="3.092" cy="2.362" rx="3.092" ry="2.362" transform="translate(8.554 50.997) rotate(-88.19)"/><ellipse class="e" cx="3.092" cy="2.362" rx="3.092" ry="2.362" transform="translate(8.673 47.218) rotate(-88.19)"/><path class="s" d="M635.537,500.8a10.961,10.961,0,0,1-.839-1.324l6.238-.823-6.714-.161a11.34,11.34,0,0,1,.068-8.97l8.855,4.955-8.112-6.366a11.319,11.319,0,1,1,18.285,13.243,11.218,11.218,0,0,1,1.225,2.1l-8.187,3.929,8.681-2.611a11.332,11.332,0,0,1-2.168,10.575,11.319,11.319,0,1,1-17.781-.561,11.318,11.318,0,0,1,.441-13.989Z" transform="translate(-632.44 -482.747)"/><path class="s" d="M655.519,598.482a11.256,11.256,0,0,1-2.649,6.918,11.319,11.319,0,1,1-17.781-.561C633.639,602.867,655.559,597.213,655.519,598.482Z" transform="translate(-632.44 -572.793)"/><path class="q" d="M674.717,740.628a4.2,4.2,0,0,1-.082.709q-2.3-.366-4.635-.662v-.19a3.726,3.726,0,0,1,.552-1.872,2.053,2.053,0,0,1,3.737.115A3.725,3.725,0,0,1,674.717,740.628Z" transform="translate(-661.71 -681.243)"/><ellipse class="q" cx="3.092" cy="2.362" rx="3.092" ry="2.362" transform="translate(8.316 58.555) rotate(-88.19)"/><path class="t" d="M6.075,38.608l5.352-7.591-5.36,8.42-.008.867q-.567-.008-1.123-.044l.5-11.14-.005-.086.01-.016.048-1.053L0,19.6l5.5,7.576.015.223L5.9,18.984l-4.712-8.65L5.945,17.5,6.28.058v0L6.3,13.814l4.59-5.486L6.291,15l-.069,7.534,4.273-7.26L6.212,23.641,6.174,27.83l6.2-10.108L6.16,29.292Z" transform="translate(4.942 9.472)"/><ellipse class="q" cx="3.092" cy="2.362" rx="3.092" ry="2.362" transform="translate(8.436 54.776) rotate(-88.19)"/></g></g></g></svg>