<svg xmlns="http://www.w3.org/2000/svg" xmlns:xlink="http://www.w3.org/1999/xlink" width="356" height="172" viewBox="0 0 356 172"><defs><style>.a{fill:rgba(126,126,126,0.5);}.b{clip-path:url(#a);}.c{fill:#f2f2f2;}.d{fill:#d9d9d9;}.e{fill:#3f3d56;}.f{fill:#7e7e7e;}.g{fill:#2f2e41;}.h{fill:#fff;}.i{fill:#fe4a3f;}.j{fill:#e6e6e6;}.k{fill:#fbbebe;}</style><clipPath id="a"><rect class="a" width="356" height="172" transform="translate(16974 158)"/></clipPath></defs><g class="b" transform="translate(-16974 -158)"><g transform="translate(17022.896 183.8)"><path class="c" d="M280.446,425.909l-19.23,10.726,17.019-15a113.386,113.386,0,0,0-9.292-14.411l-83.4,24.43,75.329-33.867a99.565,99.565,0,0,0-10.939-9.827L122.863,412.085c-13.492,19.884-20.847,44.585-20.857,70.045H293.288a127.91,127.91,0,0,0-12.841-56.222Z" transform="translate(-99.825 -369.636)"/><path class="c" d="M332.681,318.361A83.558,83.558,0,0,0,290.79,307c-29.543,0-55.957,15.788-73.5,40.595C247.332,339.836,299.638,326.407,332.681,318.361Z" transform="translate(-192.969 -306.999)"/><path class="d" d="M41.919,35.717C42.03,51.5,32.685,57.08,21.11,57.161q-.4,0-.8,0-.8-.012-1.593-.062C8.262,56.429.1,50.693,0,36.012-.107,20.82,19.175,1.511,20.622.083h0L20.707,0S41.808,19.933,41.919,35.717Z" transform="translate(36.989 36.839) rotate(1)"/><path class="e" d="M63.108,23.626q-4.878-.827-9.382-1.42l1.187-2.3c-.4-.139-2.159,1.179-2.159,1.179L54.312,14.4c-2.013.243-3.037,7.064-3.037,7.064l-2.249-2.306,1.089,2.593a207.664,207.664,0,0,0-23.8-1.5l1.016-1.97c-.4-.139-2.159,1.179-2.159,1.179l1.558-6.681c-2.013.243-3.037,7.065-3.037,7.065l-2.249-2.306,1.153,2.746a133.744,133.744,0,0,0-13.683.929c1.028-3.069,4.519-5.987,4.519-5.987a7.813,7.813,0,0,0-4.8,3.36A53.807,53.807,0,0,1,11.744,0S6.233,11.992,6.936,20.041l.084,1.429A54.911,54.911,0,0,0,0,22.835Z" transform="matrix(0.999, -0.035, 0.035, 0.999, 22.993, 74.583)"/><path class="e" d="M8.615,54.751,16.2,43.987,8.6,55.927l-.012,1.23Q7.787,57.146,7,57.1l.715-15.8-.007-.122.014-.023.068-1.493L0,27.8,7.8,38.541l.022.316.54-11.936L1.683,14.655l6.748,10.17L8.907.082l0-.082V.081L8.939,19.59l6.51-7.78L8.922,21.27l-.1,10.685,6.06-10.3L8.81,33.526l-.055,5.941,8.8-14.334L8.735,41.54Z" transform="translate(48.702 37.044) rotate(1)"/><ellipse class="f" cx="105.279" cy="6.204" rx="105.279" ry="6.204" transform="translate(0 106.49)"/><g transform="translate(95.7 0)"><path class="g" d="M320.514,230.741c5.983-2.545,13.144,6.859,20.422,7.978.068-1.355,1.18-10.8.32-11.742a2.873,2.873,0,0,1-.32-3.569c1.608-3.1-.7-6.407-3.021-9.153a5.15,5.15,0,0,0-4.3-1.8l-4.308.308a5.159,5.159,0,0,0-4.581,3.688h0a5.04,5.04,0,0,0-1.233,4.182,2.691,2.691,0,0,0-1.107,3.757,2.159,2.159,0,0,1-.027,2.634c-.111.151-2.271,3.426-1.283,4.173,3.558,2.69,16.211,6.312,15.209,10.512-.478,2-18.521,2.977-18.638,3.355Z" transform="translate(-307.49 -210.728)"/><path class="g" d="M524.535,622.541H402.589a4.089,4.089,0,0,1-4.089-4.089h0a551.183,551.183,0,0,1,130.124,0h0a4.089,4.089,0,0,1-4.089,4.089Z" transform="translate(-369.324 -525.38)"/><path class="e" d="M528.624,321.206,398.5,320.966l15.081-25.375.072-.12V239.546a5.168,5.168,0,0,1,5.169-5.169H507.58a5.169,5.169,0,0,1,5.169,5.169v56.309Z" transform="translate(-369.324 -227.894)"/><path class="h" d="M485.3,250.957a1.686,1.686,0,0,0-1.684,1.684v50.991a1.686,1.686,0,0,0,1.684,1.684h89.716a1.686,1.686,0,0,0,1.684-1.684V252.64a1.686,1.686,0,0,0-1.684-1.684Z" transform="translate(-435.916 -240.866)"/><path class="g" d="M473.775,531.718a.724.724,0,0,0-.656.42l-4.647,10.1a.722.722,0,0,0,.655,1.023H566.85a.721.721,0,0,0,.645-1.044l-5.051-10.1a.718.718,0,0,0-.645-.4Z" transform="translate(-424.019 -460.534)"/><circle class="h" cx="1.082" cy="1.082" r="1.082" transform="translate(92.795 7.084)"/><path class="g" d="M644.914,593.619a.723.723,0,0,0-.7.534l-1.166,4.329a.721.721,0,0,0,.7.909h22.168a.721.721,0,0,0,.682-.958l-1.5-4.329a.722.722,0,0,0-.682-.485Z" transform="translate(-560.642 -508.966)"/><path class="g" d="M363.474,337.135v.962H264.306l.075-.12v-.842Z" transform="translate(-220.049 -270.401)"/><circle class="i" cx="10.684" cy="10.684" r="10.684" transform="translate(127.608 0)"/><path class="h" d="M883.821,244.256h-8.853a.611.611,0,0,1-.61-.611V238.3a.611.611,0,0,1,.61-.611h8.853a.611.611,0,0,1,.61.611v5.342a.611.611,0,0,1-.61.611Zm-8.853-5.953v5.342h8.853V238.3Z" transform="translate(-741.102 -228.916)"/><path class="h" d="M896.433,207.816h-5.495v-2.442a2.763,2.763,0,1,1,5.495,0Zm-4.884-.611h4.274v-1.832a2.156,2.156,0,1,0-4.274,0Z" transform="translate(-755.392 -198.429)"/><circle class="h" cx="0.611" cy="0.611" r="0.611" transform="translate(137.682 11.295)"/><path class="j" d="M602.9,350.209H533.563a1.286,1.286,0,0,1-1.284-1.284v-17.2a1.286,1.286,0,0,1,1.284-1.284H602.9a1.285,1.285,0,0,1,1.284,1.284v17.2A1.285,1.285,0,0,1,602.9,350.209Zm-69.336-19.254a.771.771,0,0,0-.77.77v17.2a.771.771,0,0,0,.77.77H602.9a.771.771,0,0,0,.77-.77v-17.2a.771.771,0,0,0-.77-.77Z" transform="translate(-473.993 -303.055)"/><circle class="j" cx="5.23" cy="5.23" r="5.23" transform="translate(65.113 31.38)"/><path class="j" d="M640.069,356.8a.872.872,0,1,0,0,1.743h41.1a.872.872,0,0,0,0-1.743Z" transform="translate(-557.646 -323.682)"/><path class="j" d="M640.069,380.842a.872.872,0,1,0,0,1.744h17.683a.872.872,0,0,0,0-1.744Z" transform="translate(-557.646 -342.489)"/><path class="k" d="M420.353,355.593l-12.817,6.814-.162-5.679a37.958,37.958,0,0,0,11.844-3.894l1.34-3.312a2.245,2.245,0,0,1,3.816-.583h0a2.245,2.245,0,0,1-.2,3.061Z" transform="translate(-376.266 -316.887)"/><path class="g" d="M322.779,532.369h0a2.518,2.518,0,0,1,.32-2.037l2.816-4.321a4.92,4.92,0,0,1,6.383-1.684h0c-1.183,2.014-1.018,3.781.409,5.317a25.593,25.593,0,0,0-6.079,4.144,2.519,2.519,0,0,1-3.848-1.418Z" transform="translate(-310.01 -454.32)"/><path class="g" d="M384.768,469.242h0a4.831,4.831,0,0,1-4.106,2.346l-18.7.142-.811-4.705,8.274-2.434-6.976-5.354,7.625-8.923,13.85,12.909A4.832,4.832,0,0,1,384.768,469.242Z" transform="translate(-340.098 -396.843)"/><path class="g" d="M321.447,454.75h-4.381c-3.933-26.96-7.937-54,3.894-64.086l13.953,2.271-1.785,11.844-7.788,8.923Z" transform="translate(-302.508 -350.173)"/><path class="g" d="M336.685,685.376h0a2.518,2.518,0,0,1-2.037-.32l-4.756-.639a4.921,4.921,0,0,1-1.684-6.383h0c2.014,1.183,3.781,1.018,5.317-.409,1.085,2.191,2.872,2.057,4.58,3.9a2.519,2.519,0,0,1-1.418,3.848Z" transform="translate(-313.895 -574.692)"/><path class="k" d="M370,267.65l-8.112-1.947a14.028,14.028,0,0,0,.811-9.086l5.516-.162A42.351,42.351,0,0,0,370,267.65Z" transform="translate(-340.681 -245.168)"/><path class="i" d="M354.8,318.483c-5.905,4.024-10.078.138-13.262-5.859.442-3.669-.274-8.06-1.6-12.831a8.734,8.734,0,0,1,5.332-10.532h0l6.976,2.92c5.924,4.829,7.09,10.059,4.867,15.575Z" transform="translate(-323.253 -270.835)"/><path class="k" d="M278.976,302.624l-6.49,3.407,11.519,6.814,1.6,3.954a2.1,2.1,0,0,1-1.26,2.77h0a2.1,2.1,0,0,1-2.777-1.859l-.162-2.755-14.641-4.832a3.423,3.423,0,0,1-2.148-2.091h0a3.423,3.423,0,0,1,1.284-3.983l11.773-8.077Z" transform="translate(-264.418 -276.086)"/><path class="i" d="M329.644,297.114c-2.707-1.186-5.168.1-8.274,1.136l-.487-8.6c3.085-1.644,6.026-2.087,8.761-.811Z" transform="translate(-308.596 -269.927)"/><circle class="k" cx="5.179" cy="5.179" r="5.179" transform="translate(19.106 5.188)"/><path class="g" d="M363.033,232.514c-5.128.5-8.973.543-11.533-1.09v-3.558h11.1Z" transform="translate(-332.551 -222.8)"/></g></g></g></svg>