<svg xmlns="http://www.w3.org/2000/svg" xmlns:xlink="http://www.w3.org/1999/xlink" width="356" height="172" viewBox="0 0 356 172"><defs><style>.a{fill:rgba(126,126,126,0.5);}.b{clip-path:url(#a);}.c{fill:#f2f2f2;}.d{fill:#7e7e7e;}.e{fill:none;}.f{fill:#e3e3e3;}.g{fill:url(#b);}.h{fill:#2f2e41;}.i{opacity:0.44;fill:url(#c);}.j{fill:#fff;}.k{fill:url(#d);}.l{fill:#fbbebe;}.m{fill:#ff453a;}.n{opacity:0.97;}.o{fill:#3f3d56;}.p{fill:#d9d9d9;}.q{fill:#343346;}</style><clipPath id="a"><rect class="a" width="356" height="172" rx="12" transform="translate(17443 444)"/></clipPath><linearGradient id="b" x1="0.491" y1="0.155" x2="1.552" y2="0.468" gradientUnits="objectBoundingBox"><stop offset="0" stop-color="#fff"/><stop offset="1" stop-color="#cbcbcb"/></linearGradient><linearGradient id="c" x1="0.5" x2="0.5" y2="1" gradientUnits="objectBoundingBox"><stop offset="0" stop-color="#f2f2f2"/><stop offset="1" stop-color="#797979" stop-opacity="0"/></linearGradient><linearGradient id="d" x1="-0.469" y1="0.043" x2="0.491" y2="0.479" xlink:href="#b"/></defs><g class="b" transform="translate(-17443 -444)"><g transform="translate(17492.754 467.22)"><path class="c" d="M194.729,160.315a37.633,37.633,0,0,1-1.1,9.081q-.371,1.5-.862,2.941a34.744,34.744,0,0,1-1.391,3.48q-.4.861-.84,1.687a22.7,22.7,0,0,1-1.9,9.12,23.512,23.512,0,0,1-11.411,11.757,24,24,0,0,1-10.187,2.339H45.937a30.512,30.512,0,0,1-15.346-4.1l-.072-.041q-1-.583-1.943-1.235a30.47,30.47,0,0,1-3.987-3.287,29.672,29.672,0,0,1-4.383-5.431,28.981,28.981,0,0,1-4.458-15.473,36.489,36.489,0,0,1-4.678-18.069,35.807,35.807,0,0,1,7.237-21.916,30.808,30.808,0,0,1,3.073-3.42,28.6,28.6,0,0,1,3.515-2.877A27.355,27.355,0,0,1,28.013,123c.451-.229.9-.446,1.363-.647.4-.179.812-.346,1.226-.5q.744-.282,1.506-.519t1.5-.415q1.092-.267,2.22-.433c.624-.092,1.247-.156,1.871-.2.5-.037,1-.058,1.5-.064h.273c.555,0,1.107.022,1.654.059.058-.115.12-.232.178-.346.218-.416.444-.831.672-1.236a.039.039,0,0,1,0-.011c.039-.072.078-.142.118-.21.184-.332.376-.661.572-.987.09-.156.179-.3.271-.449a1.2,1.2,0,0,1,.064-.106q.14-.234.285-.468.722-1.154,1.5-2.267l.133-.19c.081-.115.156-.228.246-.343.215-.3.437-.6.66-.9.156-.212.312-.423.48-.624q.608-.78,1.247-1.559t1.329-1.539c.062-.07.125-.139.19-.207l.666-.727h0c.033-.034.061-.065.092-.1h0c.08-.086.156-.172.242-.254.357-.379.724-.75,1.091-1.12a59.438,59.438,0,0,1,5.972-5.2c.083-.066.167-.128.249-.19.4-.3.8-.593,1.2-.883a63.2,63.2,0,0,1,6.925-4.319c.165-.1.334-.184.5-.271a66.113,66.113,0,0,1,6.625-3.05c1.233-.488,2.495-.946,3.764-1.366.845-.278,1.693-.541,2.553-.789q2.015-.58,4.057-1.04a72.251,72.251,0,0,1,12.2-1.662q1.871-.1,3.784-.1a72.507,72.507,0,0,1,18.244,2.308.658.658,0,0,0,.566.295h.524c.228.062.454.125.681.19q1.907.549,3.759,1.2l.312.112a67.122,67.122,0,0,1,8.874,3.9,64.041,64.041,0,0,1,7.43,4.591q.547.393,1.079.792.646-.413,1.313-.792a25.824,25.824,0,0,1,5.439-2.319,24.808,24.808,0,0,1,12.2-.477,27,27,0,0,1,13.669,7.709,31.894,31.894,0,0,1,4.1,5.2c.086.134.172.27.254.407a34.3,34.3,0,0,1,2.61,5.2c.027.067.053.129.076.195a36.03,36.03,0,0,1,1.606,5.2c.019.09.041.179.059.27a37.442,37.442,0,0,1,.767,5.2,1.01,1.01,0,0,0,.012.192q.1,1.358.1,2.744c0,.826-.028,1.647-.08,2.461,0,.089-.012.181-.02.273-.014.235-.034.468-.055.7a29.6,29.6,0,0,1,3.334,3.145q.681.744,1.319,1.544a32.833,32.833,0,0,1,3.4,5.2A36.516,36.516,0,0,1,194.729,160.315Z" transform="translate(62.621 -83.847)"/><path class="d" d="M290.247,762.478c0,1.122-3.866,2.173-10.611,3.077H152.045a32.146,32.146,0,0,1-16.169-4.322l-.076-.043a53.887,53.887,0,0,1,10.2-1.96h0l.214-.026c2.136-.261,4.523-.509,7.132-.744a1.62,1.62,0,0,0,.2-.018h0q3.105-.276,6.606-.517c.074,0,.146-.013.22-.016q1.35-.1,2.757-.184h0l.361-.023c6.826-.424,14.585-.762,23-.986h.01q1.768-.049,3.573-.087,2.008-.048,4.064-.084c1.047-.023,2.106-.039,3.169-.056h.025c4.8-.072,9.75-.109,14.817-.109,12.528,0,24.37.228,34.863.639h.03c1.613.062,3.2.131,4.741.2l1.314.063q2.614.125,5.093.268h0C277.624,758.657,290.247,760.452,290.247,762.478Z" transform="translate(-78.945 -639.506)"/><g transform="translate(0 10.201)"><path class="e" d="M114.183,152.352a1.219,1.219,0,0,0-.373.428,3.421,3.421,0,0,0-.73,2.2.192.192,0,0,0,.044.121.236.236,0,0,0,.11.038c.34.049.686.088,1.032.115a6.282,6.282,0,0,0-.159,2.79,1.021,1.021,0,0,0,.17.582,1.1,1.1,0,0,0,.862.269h2.032a6.927,6.927,0,0,0,1.1-.06.351.351,0,0,0,.181-.071.3.3,0,0,0,.071-.192,14.621,14.621,0,0,0-.17-2.674.28.28,0,0,1,0-.165.3.3,0,0,1,.148-.121l.593-.313a.433.433,0,0,0,.148-.115.412.412,0,0,0,.049-.214,2.784,2.784,0,0,0-.725-2.2,2.619,2.619,0,0,0-1.543-.516c-.516-.033-1.027-.055-1.543-.115A2.433,2.433,0,0,0,114.183,152.352Z" transform="translate(-56.257 -104.279)"/><path class="e" d="M117.56,151.765a.8.8,0,0,0,.2.286.681.681,0,0,0,.308.121.647.647,0,0,0,.324-.038.549.549,0,0,0,.242-.242,1.131,1.131,0,0,0,.093-.329,1.916,1.916,0,0,0-.077-.807.647.647,0,0,0-.115-.22.549.549,0,0,0-.335-.154c-.176-.033-.588-.06-.67.148a1.741,1.741,0,0,0-.1.769,1.549,1.549,0,0,0,.126.467Z" transform="translate(-116.917 -126.993)"/><path class="e" d="M118.938,147.14a1.6,1.6,0,0,1-.379,1.1.917.917,0,0,1-1.1.231,1.543,1.543,0,0,1-.34-.286,2.488,2.488,0,0,1-.45-.549,1.746,1.746,0,0,1-.154-.626,1.8,1.8,0,0,1,.06-.763.989.989,0,0,1,.483-.577,1.493,1.493,0,0,1,.582-.1,2.6,2.6,0,0,1,.686.071c.258.071.478.181.494.461A6.3,6.3,0,0,1,118.938,147.14Z" transform="translate(-116.5 -124.833)"/><path class="f" d="M139.257,161.8l35.811-3.432a4.827,4.827,0,0,0,4.393-4.849v-40.4a5.338,5.338,0,0,0-5.777-5.277l-35.811,3.432a4.822,4.822,0,0,0-4.393,4.844v40.407a5.338,5.338,0,0,0,5.777,5.277Z" transform="translate(-124.155 -107.813)"/><path class="g" d="M143.107,162.835l35.811-3.432a4.822,4.822,0,0,0,4.393-4.844V114.153a5.338,5.338,0,0,0-5.777-5.277l-35.811,3.432a4.827,4.827,0,0,0-4.393,4.849v40.4a5.338,5.338,0,0,0,5.777,5.277Z" transform="translate(-125.891 -108.282)"/><g transform="translate(18.594 8.655)"><path class="h" d="M150.36,127.772l12.85-1.032v12.9l-12.85,1.032Zm10.72,9.885v-8.578l-8.589.692V138.4Z" transform="translate(-150.36 -124.999)"/><path class="h" d="M189.54,124.6l12.839-1.032v12.911l-12.839,1.054Zm10.714,9.918v-8.627l-8.594.692v8.627Z" transform="translate(-168.024 -123.57)"/><path class="h" d="M163.21,178.987l-12.85,1.032V167.152l12.85-1.032Zm-10.731-1.279,8.611-.67v-8.622l-8.611.692Z" transform="translate(-150.36 -142.753)"/><path class="h" d="M179.888,128.246l2.142-.17v4.289l-2.125.17v2.142l-2.114.17V126.28l2.1-.17Z" transform="translate(-162.727 -124.715)"/><path class="h" d="M205.915,155.381l-4.25.34V153.58l-4.294.34v-2.114l8.545-.686Z" transform="translate(-171.554 -135.991)"/><path class="h" d="M207.324,175v2.12l2.12-.17v4.289l-4.234.34v-6.392Z" transform="translate(-175.089 -146.757)"/><path class="h" d="M154.626,155.52v2.125l2.131-.17v2.153l-6.387.516v-4.261Z" transform="translate(-150.365 -137.974)"/><path class="h" d="M181.64,153.176l6.414-.516v4.289l-4.272.346h0v-2.2l-2.142.17v-2.142Z" transform="translate(-164.462 -136.685)"/><path class="h" d="M189.54,162.567l2.125-.17v-2.131l4.261-.346v4.261l-6.387.511Z" transform="translate(-168.024 -139.958)"/><path class="h" d="M182.032,161.1v4.289l-4.272.346v-4.289h0l4.294-.346Z" transform="translate(-162.713 -140.49)"/><path class="h" d="M185.53,180.57l1.153-.115,2.817-.225h.319V184.5l-4.261.346v-4.261Z" transform="translate(-166.216 -149.115)"/><path class="h" d="M174.248,158.2l-4.278.341v-2.131l2.114-.17v-2.158l2.158-.176h0v4.311Z" transform="translate(-159.201 -137.248)"/><path class="h" d="M209.454,167.161l-2.1.17V165.2l-2.131.17V163.24l4.234-.34Z" transform="translate(-175.093 -141.302)"/><path class="h" d="M179.921,177.456v-2.2l-2.131.17V173.32l4.25-.34v4.311a7.242,7.242,0,0,0-.977.044c-.324.044-.769.077-1.153.115Z" transform="translate(-162.727 -145.846)"/><path class="h" d="M181.671,146.011V141.7l2.1-.17v4.305l-2.114.17Z" transform="translate(-164.471 -131.667)"/><path class="h" d="M179.924,181.12V185.4l-2.114.17V181.3l2.136-.176Z" transform="translate(-162.736 -149.516)"/><path class="h" d="M166.364,154.58v2.1l-4.234.34v-2.1Z" transform="translate(-155.666 -137.551)"/><path class="h" d="M197.37,173.829V171.72l4.24-.34v2.092Z" transform="translate(-171.554 -145.125)"/><path class="h" d="M197.37,184.011v-4.25l2.087-.17v4.25Z" transform="translate(-171.554 -148.826)"/><path class="h" d="M177.75,152v-2.147l2.158-.176h0v2.153h0l-2.153.176Z" transform="translate(-162.709 -135.341)"/><path class="h" d="M189.53,174.613v-2.1l2.087-.165v2.092Z" transform="translate(-168.019 -145.562)"/><path class="h" d="M185.61,170.974V168.86l2.092-.17v2.1Z" transform="translate(-166.252 -143.912)"/><path class="h" d="M195.541,178.063l-2.081.17v-2.1l2.081-.17Z" transform="translate(-169.791 -147.19)"/><path class="h" d="M162.445,135.24l-4.245.34v4.25l4.245-.34Z" transform="translate(-153.895 -128.831)"/><path class="h" d="M201.618,136.351V132.09l-4.229.34v4.262Z" transform="translate(-171.563 -127.411)"/><path class="h" d="M158.18,179.156l4.245-.34V174.56l-4.245.34Z" transform="translate(-153.886 -146.558)"/><path class="h" d="M162.445,135.24V139.5l-4.245.34v-4.25Z" transform="translate(-153.895 -128.831)"/><path class="h" d="M201.618,136.351l-4.229.34V132.43l4.229-.34Z" transform="translate(-171.563 -127.411)"/><path class="h" d="M158.18,179.156V174.9l4.245-.34v4.256Z" transform="translate(-153.886 -146.558)"/></g><path class="i" d="M181.224,107.656,154.287,95.19l-44.1,5.332,1.12,47.052,3.668,1.6,40.2-3.224,2.114-4.481L180.823,109.5Z" transform="translate(-99.877 -95.19)"/><path class="j" d="M262.72,130.973V127.03a.736.736,0,0,1,.373-.643l2.2-1.225c.231-.132,1.142.4,1.142.664l-.621,6.766-1.543,1.192-1.543-.906Z" transform="translate(-182.422 -115.624)"/><path class="k" d="M262.72,130.973V127.03a.736.736,0,0,1,.373-.643l2.2-1.225c.231-.132,1.142.4,1.142.664l-.621,6.766-1.543,1.192-1.543-.906Z" transform="translate(-182.422 -115.624)"/><path class="j" d="M263.9,131.839v-3.948a.725.725,0,0,1,.373-.637l2.2-1.23a.351.351,0,0,1,.522.3v7.139l-1.543,1.186-1.543-.9Z" transform="translate(-182.954 -116.002)"/><path class="h" d="M264.63,132.423v-3.207l2.5-1.576v5.3l-.549,1.785-1.164.384s-.621-.264-.621-.346" transform="translate(-183.283 -116.75)"/><path class="l" d="M266.477,140.3c-.14-.819-.121-1.674-.194-2.5a1.887,1.887,0,0,0-.255-.928.71.71,0,0,0-.849-.285c-.376.188-.388.7-.376,1.122s-.1.952-.51,1.031a.783.783,0,0,1-.449-.091,1.5,1.5,0,0,1-.776-1.1c-.036-.273,0-.558-.048-.831-.158-.788-1.177-.655-1.65-.243a3.123,3.123,0,0,0-.667.94,6.875,6.875,0,0,0-.746,1.911c-.5,2.735,2.8,3.324,4.191,5.071a5.974,5.974,0,0,0,.667.758,1.777,1.777,0,0,0,1.747.328,1.759,1.759,0,0,0,1.128-1.371c.164-1.019-.576-1.935-.94-2.905A5,5,0,0,1,266.477,140.3Z" transform="translate(-181.641 -120.887)"/></g><g transform="translate(82.333)"><circle class="l" cx="7.64" cy="7.64" r="7.64" transform="translate(20.722 3.117)"/><path class="l" d="M793.652,478.776a3.422,3.422,0,0,1,2.589-4.4,3.244,3.244,0,0,1,.454-.056l8.048-12.916-7.351-6.988a2.934,2.934,0,1,1,4.081-4.216l10.15,10.008.02.025a2.658,2.658,0,0,1-.185,3.168l-11.276,13.336a3.244,3.244,0,0,1,.084.325,3.422,3.422,0,0,1-3.072,4.08c-.1.008-.194.013-.29.013A3.433,3.433,0,0,1,793.652,478.776Z" transform="translate(-765.785 -425.188)"/><path class="l" d="M431.687,576.422h-3.814l-1.814-14.709h5.628Z" transform="translate(-415.909 -459.335)"/><path class="h" d="M731.043,748.976h-12.3v-.156a4.786,4.786,0,0,1,4.786-4.786h7.51Z" transform="translate(-714.292 -628.193)"/><path class="l" d="M538.629,564.058l-3.277,1.951-9.085-11.71,4.836-2.879Z" transform="translate(-484.946 -452.244)"/><path class="h" d="M860.7,730.294l-10.565,6.291-.08-.134a4.786,4.786,0,0,1,1.664-6.561h0l6.453-3.842Z" transform="translate(-804.291 -615.802)"/><path class="h" d="M731.207,573.251c-2.555-30.081-4.074-58.027,5.264-69.427l.072-.088,15.717,6.287.026.056c.053.115,5.28,11.613,4.061,19.346l3.876,17.832,12.64,21.165a1.4,1.4,0,0,1-.638,2l-5.493,2.417a1.406,1.406,0,0,1-1.757-.549l-13.75-22.421-7.767-17.2a.467.467,0,0,0-.889.143l-4.3,40.468a1.4,1.4,0,0,1-1.392,1.252H732.6a1.409,1.409,0,0,1-1.4-1.282Z" transform="translate(-721.537 -462.642)"/><path class="m" d="M751.967,459.518l-.075-.036-.012-.082a26.543,26.543,0,0,1,2.065-13.57,10.774,10.774,0,0,1,12.505-6.452h0a10.761,10.761,0,0,1,6.862,5.277,10.645,10.645,0,0,1,.738,8.531c-2.468,7.217-5.669,13.969-5.7,14.036l-.067.141Z" transform="translate(-736.98 -418.098)"/><path class="l" d="M701.587,456.705c.96.169.253.93,13.8,5.079l5.169-9.971a2.934,2.934,0,1,1,5.378,2.347l-5.82,13.012-.016.028a2.658,2.658,0,0,1-3.032.936l-11.909-4.385s-5.992-3.057-6.5-4.439S700.626,456.537,701.587,456.705Z" transform="translate(-698.588 -425.657)"/><path class="h" d="M802.686,390.566a6.228,6.228,0,0,0-3.225-2.98c-1.83-.622-3.813.04-5.695.483a10.551,10.551,0,0,1-4.427.262,4.971,4.971,0,0,1-3.536-2.471c-.978-1.961-.154-4.3-.214-6.49a7.881,7.881,0,0,0-9.93-7.407c-1.8-.52-3.434-.568-4.549.817a5.288,5.288,0,0,0-5.288,5.288h5.056a5.024,5.024,0,0,0,.763,3.711c.893,1.311,2.445,2.26,2.744,3.818.29,1.51-.737,2.942-1.813,4.04s-2.325,2.185-2.661,3.685a4.568,4.568,0,0,0,.654,3.286,10.7,10.7,0,0,0,2.3,2.531,33.72,33.72,0,0,0,14.009,7.167c3.641.877,7.623,1.1,11-.509a10.926,10.926,0,0,0,4.811-15.232Z" transform="translate(-746.725 -371.627)"/></g><g class="n" transform="translate(165.52 27.285)"><ellipse class="o" cx="4.898" cy="3.741" rx="4.898" ry="3.741" transform="translate(13.548 80.769) rotate(-88.19)"/><ellipse class="o" cx="4.898" cy="3.741" rx="4.898" ry="3.741" transform="translate(13.736 74.784) rotate(-88.19)"/><path class="p" d="M637.345,511.344a17.372,17.372,0,0,1-1.328-2.1l9.879-1.3-10.634-.255a17.962,17.962,0,0,1,.108-14.207l14.025,7.848-12.847-10.082a17.927,17.927,0,1,1,28.959,20.975,17.76,17.76,0,0,1,1.94,3.332l-12.966,6.223,13.749-4.136a17.947,17.947,0,0,1-3.433,16.748,17.927,17.927,0,1,1-28.162-.888,17.927,17.927,0,0,1,.7-22.157Z" transform="translate(-632.44 -482.747)"/><path class="p" d="M668.992,598.589a17.829,17.829,0,0,1-4.195,10.956,17.927,17.927,0,1,1-28.162-.888C634.339,605.535,669.055,596.579,668.992,598.589Z" transform="translate(-632.44 -557.903)"/><path class="h" d="M677.47,742.473a6.644,6.644,0,0,1-.129,1.122q-3.65-.58-7.341-1.049v-.3a5.9,5.9,0,0,1,.874-2.964,3.252,3.252,0,0,1,5.919.182,5.9,5.9,0,0,1,.678,3.01Z" transform="translate(-656.87 -648.421)"/><ellipse class="h" cx="4.898" cy="3.741" rx="4.898" ry="3.741" transform="translate(13.17 92.739) rotate(-88.19)"/><path class="q" d="M9.621,61.147,18.1,49.125,9.609,62.46,9.6,63.834q-.9-.013-1.779-.069l.8-17.643-.008-.136.016-.026L8.7,44.292,0,31.045l8.715,12,.024.353.6-13.33-7.463-13.7L9.416,27.724,9.947.092l0-.092V.091l.033,21.788,7.27-8.689L9.964,23.755l-.11,11.933,6.768-11.5L9.839,37.442l-.061,6.635L19.6,28.069,9.756,46.392Z" transform="translate(7.827 15.002)"/><ellipse class="h" cx="4.898" cy="3.741" rx="4.898" ry="3.741" transform="translate(13.361 86.754) rotate(-88.19)"/></g></g></g></svg>