<svg xmlns="http://www.w3.org/2000/svg" xmlns:xlink="http://www.w3.org/1999/xlink" width="140" height="120" viewBox="0 0 140 120"><defs><style>.a{fill:none;}.b{fill:#e3e3e3;}.c{fill:url(#a);}.d{fill:#2f2e41;}.e{opacity:0.44;fill:url(#b);}.f{fill:#fff;}.g{fill:url(#c);}.h{fill:#fbbebe;}.i{fill:#ff453a;}</style><linearGradient id="a" x1="0.491" y1="0.155" x2="1.552" y2="0.468" gradientUnits="objectBoundingBox"><stop offset="0" stop-color="#fff"/><stop offset="1" stop-color="#cbcbcb"/></linearGradient><linearGradient id="b" x1="0.5" x2="0.5" y2="1" gradientUnits="objectBoundingBox"><stop offset="0" stop-color="#f2f2f2"/><stop offset="1" stop-color="#797979" stop-opacity="0"/></linearGradient><linearGradient id="c" x1="-0.469" y1="0.043" x2="0.491" y2="0.479" xlink:href="#a"/></defs><g transform="translate(0 10.135)"><path class="a" d="M114.185,152.353a1.222,1.222,0,0,0-.374.429,3.428,3.428,0,0,0-.732,2.2.193.193,0,0,0,.044.121.236.236,0,0,0,.11.039c.341.05.688.088,1.035.116a6.3,6.3,0,0,0-.16,2.8,1.023,1.023,0,0,0,.171.583,1.1,1.1,0,0,0,.864.27h2.036a6.94,6.94,0,0,0,1.1-.061.352.352,0,0,0,.182-.072.3.3,0,0,0,.072-.193,14.652,14.652,0,0,0-.171-2.68.281.281,0,0,1,0-.165.3.3,0,0,1,.149-.121l.594-.314a.434.434,0,0,0,.149-.116.413.413,0,0,0,.05-.215,2.79,2.79,0,0,0-.726-2.2,2.625,2.625,0,0,0-1.546-.517c-.517-.033-1.029-.055-1.546-.116A2.438,2.438,0,0,0,114.185,152.353Z" transform="translate(-56.137 -104.178)"/><path class="a" d="M117.56,151.768a.8.8,0,0,0,.2.286.682.682,0,0,0,.308.121.649.649,0,0,0,.325-.039.55.55,0,0,0,.242-.242,1.134,1.134,0,0,0,.094-.33,1.921,1.921,0,0,0-.077-.809.649.649,0,0,0-.116-.22.55.55,0,0,0-.336-.154c-.176-.033-.589-.061-.671.149a1.744,1.744,0,0,0-.1.77,1.552,1.552,0,0,0,.127.468Z" transform="translate(-116.916 -126.943)"/><path class="a" d="M118.943,147.143a1.607,1.607,0,0,1-.38,1.1.919.919,0,0,1-1.1.231,1.546,1.546,0,0,1-.341-.286,2.493,2.493,0,0,1-.451-.55,1.75,1.75,0,0,1-.154-.627,1.805,1.805,0,0,1,.061-.765.991.991,0,0,1,.484-.578,1.5,1.5,0,0,1,.583-.1,2.606,2.606,0,0,1,.688.072c.259.072.479.182.5.462A6.317,6.317,0,0,1,118.943,147.143Z" transform="translate(-116.5 -124.789)"/><path class="b" d="M139.269,161.909l35.886-3.439a4.837,4.837,0,0,0,4.4-4.859V113.124a5.349,5.349,0,0,0-5.789-5.289l-35.886,3.439a4.832,4.832,0,0,0-4.4,4.854v40.492a5.349,5.349,0,0,0,5.789,5.289Z" transform="translate(-124.135 -107.813)"/><path class="c" d="M143.119,162.949l35.886-3.439a4.832,4.832,0,0,0,4.4-4.854V114.164a5.349,5.349,0,0,0-5.789-5.289l-35.886,3.439a4.837,4.837,0,0,0-4.4,4.859v40.487a5.349,5.349,0,0,0,5.789,5.289Z" transform="translate(-125.867 -108.281)"/><g transform="translate(18.634 8.673)"><path class="d" d="M150.36,127.775l12.877-1.035v12.927L150.36,140.7ZM161.1,137.68v-8.6l-8.607.693v8.646Z" transform="translate(-150.36 -124.995)"/><path class="d" d="M189.54,124.6l12.866-1.035v12.938l-12.866,1.057Zm10.737,9.939V125.9l-8.612.693v8.645Z" transform="translate(-167.979 -123.57)"/><path class="d" d="M163.237,179.014l-12.877,1.035V167.155l12.877-1.035Zm-10.753-1.282,8.629-.671v-8.64l-8.629.693Z" transform="translate(-150.36 -142.704)"/><path class="d" d="M179.892,128.251l2.146-.171v4.3l-2.13.171v2.146l-2.119.171v-8.585l2.1-.171Z" transform="translate(-162.695 -124.712)"/><path class="d" d="M205.933,155.39l-4.259.341v-2.146l-4.3.341v-2.119l8.563-.688Z" transform="translate(-171.5 -135.959)"/><path class="d" d="M207.329,175v2.124l2.124-.171v4.3l-4.243.341v-6.406Z" transform="translate(-175.025 -146.697)"/><path class="d" d="M154.635,155.52v2.13l2.135-.171v2.157l-6.4.517v-4.27Z" transform="translate(-150.364 -137.937)"/><path class="d" d="M181.64,153.177l6.428-.517v4.3l-4.281.347h0v-2.2l-2.146.171v-2.146Z" transform="translate(-164.426 -136.651)"/><path class="d" d="M189.54,162.573l2.13-.171v-2.135l4.27-.347v4.27l-6.4.512Z" transform="translate(-167.979 -139.916)"/><path class="d" d="M182.041,161.1v4.3l-4.281.347v-4.3h0l4.3-.347Z" transform="translate(-162.681 -140.447)"/><path class="d" d="M185.53,180.571l1.156-.116,2.823-.226h.319v4.276l-4.27.347v-4.27Z" transform="translate(-166.175 -149.049)"/><path class="d" d="M174.257,158.213l-4.287.341v-2.135l2.119-.171v-2.163l2.163-.176h0v4.32Z" transform="translate(-159.178 -137.213)"/><path class="d" d="M209.463,167.17l-2.108.171V165.2l-2.135.171v-2.13l4.243-.341Z" transform="translate(-175.03 -141.256)"/><path class="d" d="M179.925,177.465v-2.2l-2.135.171v-2.113l4.259-.341v4.32a7.257,7.257,0,0,0-.98.044c-.325.044-.77.077-1.156.116Z" transform="translate(-162.695 -145.789)"/><path class="d" d="M181.671,146.021V141.7l2.108-.171v4.314l-2.119.171Z" transform="translate(-164.435 -131.646)"/><path class="d" d="M179.929,181.12v4.287l-2.119.171V181.3l2.141-.176Z" transform="translate(-162.704 -149.449)"/><path class="d" d="M166.373,154.58v2.108l-4.243.341v-2.108Z" transform="translate(-155.653 -137.515)"/><path class="d" d="M197.37,173.834v-2.113l4.248-.341v2.1Z" transform="translate(-171.5 -145.069)"/><path class="d" d="M197.37,184.02v-4.259l2.091-.171v4.259Z" transform="translate(-171.5 -148.761)"/><path class="d" d="M177.75,152.008v-2.152l2.163-.176h0v2.157h0l-2.157.176Z" transform="translate(-162.677 -135.311)"/><path class="d" d="M189.53,174.617v-2.1l2.091-.165v2.1Z" transform="translate(-167.974 -145.506)"/><path class="d" d="M185.61,170.979v-2.119l2.1-.171v2.1Z" transform="translate(-166.211 -143.86)"/><path class="d" d="M195.546,178.068l-2.086.171v-2.108l2.086-.171Z" transform="translate(-169.741 -147.129)"/><path class="d" d="M162.454,135.24l-4.254.341v4.259l4.254-.341Z" transform="translate(-153.885 -128.818)"/><path class="d" d="M201.627,136.36v-4.27l-4.237.341v4.27Z" transform="translate(-171.509 -127.401)"/><path class="d" d="M158.18,179.166l4.254-.341V174.56l-4.254.341Z" transform="translate(-153.876 -146.499)"/><path class="d" d="M162.454,135.24v4.27l-4.254.341v-4.259Z" transform="translate(-153.885 -128.818)"/><path class="d" d="M201.627,136.36l-4.237.341v-4.27l4.237-.341Z" transform="translate(-171.509 -127.401)"/><path class="d" d="M158.18,179.166V174.9l4.254-.341v4.265Z" transform="translate(-153.876 -146.499)"/></g><path class="e" d="M181.373,107.682,154.38,95.19l-44.19,5.344,1.123,47.151,3.676,1.6,40.283-3.23,2.119-4.491,23.581-32.034Z" transform="translate(-99.855 -95.19)"/><path class="f" d="M262.72,130.985v-3.951a.737.737,0,0,1,.374-.644l2.2-1.227c.231-.132,1.145.4,1.145.666l-.622,6.78-1.546,1.194-1.546-.908Z" transform="translate(-182.253 -115.604)"/><path class="g" d="M262.72,130.985v-3.951a.737.737,0,0,1,.374-.644l2.2-1.227c.231-.132,1.145.4,1.145.666l-.622,6.78-1.546,1.194-1.546-.908Z" transform="translate(-182.253 -115.604)"/><path class="f" d="M263.9,131.852V127.9a.726.726,0,0,1,.374-.638l2.2-1.233a.352.352,0,0,1,.523.3v7.154l-1.546,1.189-1.546-.9Z" transform="translate(-182.783 -115.981)"/><path class="d" d="M264.63,132.433v-3.214l2.5-1.579v5.316l-.55,1.789-1.167.385s-.622-.264-.622-.347" transform="translate(-183.112 -116.727)"/><path class="h" d="M266.49,140.312c-.14-.821-.122-1.678-.195-2.51a1.891,1.891,0,0,0-.255-.93.711.711,0,0,0-.851-.286c-.377.188-.389.705-.377,1.124s-.1.954-.511,1.033a.784.784,0,0,1-.45-.091,1.507,1.507,0,0,1-.778-1.1c-.036-.273,0-.559-.049-.833-.158-.79-1.179-.656-1.653-.243a3.129,3.129,0,0,0-.669.942,6.89,6.89,0,0,0-.748,1.915c-.5,2.741,2.8,3.331,4.2,5.081a5.987,5.987,0,0,0,.669.76,1.781,1.781,0,0,0,1.75.328,1.763,1.763,0,0,0,1.131-1.374c.164-1.021-.577-1.939-.942-2.911A5,5,0,0,1,266.49,140.312Z" transform="translate(-181.476 -120.855)"/></g><g transform="translate(82.507)"><ellipse class="h" cx="7.656" cy="7.59" rx="7.656" ry="7.59" transform="translate(20.765 3.097)"/><path class="h" d="M793.653,478.585a3.375,3.375,0,0,1,.309-2.763,3.428,3.428,0,0,1,2.285-1.611,3.284,3.284,0,0,1,.455-.056l8.065-12.833-7.367-6.943a2.9,2.9,0,0,1-.068-4.122,2.958,2.958,0,0,1,4.157-.067l10.171,9.943.02.025a2.622,2.622,0,0,1-.185,3.147l-11.3,13.25a3.207,3.207,0,0,1,.084.323,3.378,3.378,0,0,1-.624,2.71,3.437,3.437,0,0,1-2.455,1.343c-.1.008-.194.013-.291.013A3.438,3.438,0,0,1,793.653,478.585Z" transform="translate(-765.726 -425.345)"/><path class="h" d="M431.7,576.326h-3.822l-1.818-14.614h5.64Z" transform="translate(-415.887 -459.999)"/><path class="d" d="M731.069,748.944H718.746v-.154a4.776,4.776,0,0,1,4.8-4.755h7.526Z" transform="translate(-714.283 -628.944)"/><path class="h" d="M538.655,563.976l-3.284,1.938-9.1-11.634,4.846-2.861Z" transform="translate(-484.859 -452.887)"/><path class="d" d="M860.725,730.267l-10.588,6.25-.08-.133a4.732,4.732,0,0,1,1.667-6.518h0l6.467-3.817Z" transform="translate(-804.196 -616.517)"/><path class="d" d="M731.211,572.8c-2.56-29.886-4.083-57.65,5.276-68.976l.072-.088,15.75,6.246.026.056c.053.115,5.291,11.538,4.069,19.221l3.885,17.717L772.955,568a1.38,1.38,0,0,1,.132,1.136,1.394,1.394,0,0,1-.771.85l-5.5,2.4a1.416,1.416,0,0,1-1.761-.546l-13.779-22.276-7.783-17.086a.469.469,0,0,0-.891.142l-4.314,40.205a1.4,1.4,0,0,1-1.395,1.244h-4.279a1.407,1.407,0,0,1-1.4-1.274Z" transform="translate(-721.521 -462.909)"/><path class="i" d="M751.968,459.385l-.075-.036-.012-.082a26.167,26.167,0,0,1,2.07-13.482,10.818,10.818,0,0,1,12.532-6.411h0a10.772,10.772,0,0,1,6.877,5.243,10.494,10.494,0,0,1,.74,8.475,150.266,150.266,0,0,1-5.713,13.945l-.067.14Z" transform="translate(-736.949 -418.234)"/><path class="h" d="M701.593,456.662c.962.168.253.924,13.831,5.046L720.6,451.8a2.95,2.95,0,0,1,3.87-1.506,2.905,2.905,0,0,1,1.519,3.837L720.16,467.06l-.016.028a2.677,2.677,0,0,1-3.039.93l-11.934-4.356s-6-3.037-6.515-4.411S700.63,456.495,701.593,456.662Z" transform="translate(-698.588 -425.815)"/><path class="d" d="M802.764,390.443a6.221,6.221,0,0,0-3.232-2.961c-1.834-.618-3.821.04-5.707.48a10.662,10.662,0,0,1-4.436.26,4.981,4.981,0,0,1-3.544-2.455c-.98-1.948-.154-4.271-.214-6.447a7.809,7.809,0,0,0-3.173-6.075,7.952,7.952,0,0,0-6.778-1.283c-1.806-.517-3.441-.565-4.558.812a5.277,5.277,0,0,0-5.3,5.254h5.067a4.957,4.957,0,0,0,.765,3.687c.894,1.3,2.45,2.245,2.749,3.793.29,1.5-.738,2.923-1.817,4.013s-2.33,2.171-2.667,3.661a4.507,4.507,0,0,0,.656,3.265,10.662,10.662,0,0,0,2.3,2.514,33.9,33.9,0,0,0,14.039,7.12c3.648.871,7.639,1.1,11.026-.505a10.884,10.884,0,0,0,5.726-6.528A10.773,10.773,0,0,0,802.764,390.443Z" transform="translate(-746.685 -371.627)"/></g></svg>