<svg xmlns="http://www.w3.org/2000/svg" xmlns:xlink="http://www.w3.org/1999/xlink" viewBox="0 0 500 264"><defs><style>.a{fill:#fff;}.b{clip-path:url(#a);}.c{fill:#7e7e7e;}.d{fill:#2f2e41;}.e{fill:#fe453a;}.f{fill:none;stroke:#3f3d56;stroke-miterlimit:10;}.g{fill:#3f3d56;}.h{opacity:0.1;}.i{fill:#fbbebe;}.j{fill:#ff453a;}.k{fill:#54c762;}</style><clipPath id="a"><rect class="a" width="500" height="264" transform="translate(6034 5371)"/></clipPath></defs><g class="b" transform="translate(-6034 -5371)"><g transform="translate(6041.639 5374.474)"><ellipse class="c" cx="238.128" cy="15.765" rx="238.128" ry="15.765" transform="translate(5.933 225.415)"/><path class="d" d="M502.482,324.894c-38.8,0-66.654,24.9-66.654,82.973,0,65.825,27.854,83.248,66.654,83.248s68.31-19.08,68.31-83.248C570.792,339.278,541.276,324.894,502.482,324.894Zm.25,144.374c-26.868,0-40.9-15.766-40.9-61.36,0-40.223,14.612-61.44,41.48-61.44s41.487,13.93,41.487,61.44C544.794,452.354,529.607,469.268,502.731,469.268Z" transform="translate(-267.548 -256.293)"/><path class="e" d="M238.166,453.141H222.125V405.9a9.46,9.46,0,0,0-9.46-9.462h-3.758a9.46,9.46,0,0,0-9.46,9.462v47.238H154.2a5.4,5.4,0,0,1-4.776-7.926l47.89-90.637a9.463,9.463,0,0,0-4.326-12.974l-2.826-1.337a9.467,9.467,0,0,0-12.384,4.1L119.373,453.621a12.86,12.86,0,0,0-1.515,6.052h0A12.828,12.828,0,0,0,130.686,472.5h68.76v29.869a11.342,11.342,0,0,0,11.339,11.342h0a11.341,11.341,0,0,0,11.338-11.342V472.5h16.041a9.678,9.678,0,0,0,9.681-9.679h0A9.678,9.678,0,0,0,238.166,453.141Z" transform="translate(-93.118 -264.232)"/><path class="e" d="M896.162,453.141H880.118V405.9a9.462,9.462,0,0,0-9.468-9.462H866.9a9.451,9.451,0,0,0-9.455,9.462v47.238H812.191a5.4,5.4,0,0,1-4.772-7.926l47.89-90.637a9.481,9.481,0,0,0-4.325-12.974l-2.84-1.337a9.456,9.456,0,0,0-12.372,4.1L777.364,453.621a12.818,12.818,0,0,0-1.51,6.052h0a12.828,12.828,0,0,0,12.82,12.827h68.771v29.869a11.343,11.343,0,0,0,11.336,11.342h0a11.343,11.343,0,0,0,11.336-11.342V472.5h16.045a9.67,9.67,0,0,0,9.672-9.679h0A9.67,9.67,0,0,0,896.162,453.141Z" transform="translate(-454.077 -264.232)"/><path class="f" d="M247.967,440.885h-16.04V393.648a9.459,9.459,0,0,0-9.46-9.459h-3.758a9.461,9.461,0,0,0-9.462,9.459v47.238H164a5.4,5.4,0,0,1-4.776-7.923l47.889-90.637a9.458,9.458,0,0,0-4.324-12.974l-2.826-1.337a9.466,9.466,0,0,0-12.384,4.1L129.174,441.368a12.869,12.869,0,0,0-1.513,6.052h0a12.827,12.827,0,0,0,12.827,12.827h68.76v29.869a11.34,11.34,0,0,0,11.341,11.339h0a11.338,11.338,0,0,0,11.339-11.339V460.247h16.04a9.679,9.679,0,0,0,9.681-9.679h0A9.68,9.68,0,0,0,247.967,440.885Z" transform="translate(-98.496 -257.511)"/><path class="f" d="M914.542,440.885H898.51V393.648a9.469,9.469,0,0,0-9.468-9.459h-3.749a9.46,9.46,0,0,0-9.467,9.459v47.238H830.584a5.393,5.393,0,0,1-4.772-7.923l47.878-90.637a9.46,9.46,0,0,0-4.312-12.974l-2.84-1.337a9.455,9.455,0,0,0-12.372,4.1L795.757,441.368a12.821,12.821,0,0,0-1.523,6.052h0a12.831,12.831,0,0,0,12.833,12.827h68.758v29.869a11.339,11.339,0,0,0,11.336,11.339h0a11.343,11.343,0,0,0,11.349-11.339V460.247h16.032a9.683,9.683,0,0,0,9.686-9.679h0A9.684,9.684,0,0,0,914.542,440.885Z" transform="translate(-464.162 -257.511)"/><path class="f" d="M522.087,313.866c-38.793,0-66.654,24.889-66.654,82.973,0,65.819,27.861,83.248,66.654,83.248S590.4,461,590.4,396.839C590.4,328.247,560.88,313.866,522.087,313.866Zm.256,144.368c-26.868,0-40.911-15.763-40.911-61.357,0-40.226,14.612-61.44,41.48-61.44s41.493,13.937,41.493,61.44C564.405,441.32,549.211,458.234,522.343,458.234Z" transform="translate(-278.301 -250.245)"/><path class="g" d="M609.259,334.938c-.358,1.439-1.868,2.594-3.544,3.4-3.519,1.7-7.862,2.2-12.078,2.37a20.94,20.94,0,0,1-3.231-.058,9.26,9.26,0,0,1-5.52-2.546.726.726,0,0,1-.345-.646.748.748,0,0,1,.365-.637c2.239-2.466,5.987-3.973,9.755-5.064,2.86-.822,7.85-2.965,10.965-2.674C608.645,329.369,609.7,333.118,609.259,334.938Z" transform="translate(-349.122 -258.58)"/><path class="h" d="M609.259,334.938c-.358,1.439-1.868,2.594-3.544,3.4-3.519,1.7-7.862,2.2-12.078,2.37a20.94,20.94,0,0,1-3.231-.058,9.26,9.26,0,0,1-5.52-2.546.726.726,0,0,1-.345-.646.748.748,0,0,1,.365-.637c2.239-2.466,5.987-3.973,9.755-5.064,2.86-.822,7.85-2.965,10.965-2.674C608.645,329.369,609.7,333.118,609.259,334.938Z" transform="translate(-349.122 -258.58)"/><path class="d" d="M538.911,289.6a8.926,8.926,0,0,0-.537,6.807,11.889,11.889,0,0,0,3.979,5.639c4.568,3.656,10.831,4.158,16.684,4.1a128.882,128.882,0,0,0,15.3-1.046,18.488,18.488,0,0,0,4.971-1.155,7.637,7.637,0,0,0,4.261-4.3,5.224,5.224,0,0,0-1.42-5.674c-1.414-1.155-3.365-1.315-5.188-1.42l-10.428-.627a17.612,17.612,0,0,1,3.659-2.386c1.67-1.008,2.77-2.693,3.979-4.219a58.783,58.783,0,0,1,6.065-6.237,9.023,9.023,0,0,0,3.013,4.887c1.452,1.34,3.128,2.425,4.632,3.7,3.646,3.1,6.269,7.3,10.108,10.153a19.757,19.757,0,0,0,7.248-3.615l-1.491-2.7a1.881,1.881,0,0,0-.563-.707c-.422-.256-.966-.122-1.459-.2-1.311-.2-1.881-1.708-2.393-2.93-1.414-3.349-4.113-5.949-6.423-8.758a45.353,45.353,0,0,1-4.51-6.65,23.758,23.758,0,0,0-2.533-4.062,5.72,5.72,0,0,0-4.12-2.159A7.94,7.94,0,0,0,577.8,267.5a104.6,104.6,0,0,0-10.671,7.264,24.582,24.582,0,0,1-5.63,3.694,28.168,28.168,0,0,0-2.654,1.033,17.722,17.722,0,0,0-3.806,3.186A25.3,25.3,0,0,1,538.911,289.6Z" transform="translate(-323.558 -224.018)"/><path class="d" d="M352.624,254.232c.106-2.066.624-18.207-.691-19.646-1.587-1.75-1.443-3.586-.483-5.438,2.447-4.728-1.059-9.759-4.606-13.946a7.831,7.831,0,0,0-6.548-2.744l-6.564.467a7.862,7.862,0,0,0-6.979,5.617h0c-1.567,2.13-2.405,4.257-1.878,6.372-2.348,1.6-2.741,3.541-1.686,5.722a3.282,3.282,0,0,1-.042,4.011c-.166.23-3.461,5.22-1.951,6.362,5.419,4.1-13.083,17.82-5.227,21.124S356.8,263.284,352.624,254.232Z" transform="translate(-110.911 -212.436)"/><path class="i" d="M572.072,231.455a10.71,10.71,0,0,1-.78,3.627,4.527,4.527,0,0,1-2.6,2.514,5.559,5.559,0,0,1-2.533.086,4.925,4.925,0,0,1-2.073-.707,4.389,4.389,0,0,1-1.644-3.045c-.179-1.171-.09-2.367-.211-3.547a19.216,19.216,0,0,0-.544-2.824c-.077-.31-.154-.614-.224-.921s-.16-.614-.23-.921c-.058-.291-.115-.579-.166-.87-.038-.246-.077-.493-.1-.742a8.649,8.649,0,0,0-.365-2.172,7.046,7.046,0,0,0-.768-1.286c-.134-.186-.25-.371-.371-.563a2.646,2.646,0,0,1-.442-1.692,2.152,2.152,0,0,1,.07-.272c.006-.032.032-.067.038-.1a.8.8,0,0,0,.55-.518,1.554,1.554,0,0,0-.058-.8,5.432,5.432,0,0,0-.435-1.033c-.115-.217-.518-.6-.531-.851,0-.5.966-.9,1.363-1.1a7.6,7.6,0,0,1,3.883-.787,2.851,2.851,0,0,1,2.258,1.046,6.68,6.68,0,0,1,.557,2.242.658.658,0,0,0,.134.3.614.614,0,0,0,.339.154,2.065,2.065,0,0,0,.627.026h.013c.051,0,.109-.013.166-.022a2.335,2.335,0,0,0,.915-.4c.173-.048.358-.086.537-.118a.089.089,0,0,0,.019,0c.71,2.245.8,4.654,1.382,6.941a16.476,16.476,0,0,1,.755,3.432.622.622,0,0,1,.013.154c.006.377-.019.758,0,1.132a2.622,2.622,0,0,0,.051.5,7.993,7.993,0,0,0,.237.787l.006.013a1.859,1.859,0,0,1,.07.253.886.886,0,0,1,.038.179l.013.006A7,7,0,0,1,572.072,231.455Z" transform="translate(-334.927 -194.866)"/><circle class="i" cx="8.381" cy="8.381" r="8.381" transform="translate(218.794 5.139)"/><path class="d" d="M369.067,234.945c-7.811.768-13.664.828-17.567-1.657v-5.422h16.9Z" transform="translate(-133.047 -222.752)"/><path class="i" d="M625.082,257.905a13.7,13.7,0,0,0-2.367-6.365q.326,1.938.653,3.874a1.45,1.45,0,0,1-1.523-.464,4.666,4.666,0,0,1-.793-1.481,30.517,30.517,0,0,0-3.7-6.653c-5.335-.441-10.613-2.655-15.3-5.233s-9.084-5.668-13.722-8.352a19.939,19.939,0,0,0-2.495-1.279c-1.452-.579-3.077-.88-4.446-1.564-.1-.048-.192-.1-.281-.144a5.133,5.133,0,0,1-.876-.592,4,4,0,0,1-.422-.384,9.211,9.211,0,0,1-1.606-2.687c-.742-1.631-1-3.6-1.74-5.23a4.958,4.958,0,0,1,1.139-.8h0c.058-.032.115-.061.173-.09a5.639,5.639,0,0,1,.908-.333c.179-.048.358-.083.531-.112l.026-.006a5.207,5.207,0,0,1,2.476.2,11.37,11.37,0,0,1,3.135,1.932,50.682,50.682,0,0,1,4.587,3.631c.806.777,1.535,1.631,2.412,2.332a18.847,18.847,0,0,0,2.284,1.516q7.072,4.208,14.138,8.416c1.593.953,3.186,1.9,4.747,2.908,2.367,1.529,4.657,3.186,6.941,4.84q2.015,1.463,4.037,2.926a4.289,4.289,0,0,1,1.132,1.056,3.711,3.711,0,0,1,.512,1.548A14.137,14.137,0,0,1,625.082,257.905Z" transform="translate(-344.689 -198.723)"/><path class="j" d="M560.678,241.7c-.569,2.537-3.135,4.069-4.465,6.295-1.67,2.767-.985,5.978-.365,9.145q-1.718,1.473-3.435,2.952a24.686,24.686,0,0,1-1.932,1.564,27.642,27.642,0,0,1-3.1,1.778c-1.017.518-2.022,1.04-3.039,1.561a14.475,14.475,0,0,1-2.968,1.26,11.49,11.49,0,0,1-6.083-.441,2.692,2.692,0,0,1-.659-.269,1.189,1.189,0,0,1-.32-.288,1.739,1.739,0,0,1-.2-1.145,53.862,53.862,0,0,1,1.817-9.791,40,40,0,0,1,1.734-5.681,37.908,37.908,0,0,1,2.45-4.58,31.057,31.057,0,0,1,3.576-5.2,8.129,8.129,0,0,0,1.657-2.137c.518-1.152.32-2.473.416-3.723a7.564,7.564,0,0,1,.742-2.712v0a7.47,7.47,0,0,1,.787-1.3c.141.32.275.64.416.96.09.211.179.419.262.63.122.269.23.537.346.806.339.771.665,1.539,1,2.309a9.621,9.621,0,0,0,1.5,2.68,2.926,2.926,0,0,0,5.016-.384,9.231,9.231,0,0,0,1.03-2.716,8.662,8.662,0,0,0,.115-3.535,41.65,41.65,0,0,0-2-6.672,6.686,6.686,0,0,1-.493-2.2c.013-.083.013-.166.032-.25,0-.022.006-.045.006-.067a5.619,5.619,0,0,1,.908-.329c.179-.048.358-.086.531-.118q.921,5,1.849,9.99c.019.08.026.157.045.237.089.48.179.953.275,1.43.09.432.192.864.3,1.289v.013c.038.147.077.288.115.432v.006c.109.39.237.78.365,1.164C559.751,236.979,561.209,239.3,560.678,241.7Z" transform="translate(-321.449 -198.812)"/><path class="g" d="M668.315,337.155a3.025,3.025,0,0,0,.269,1.423c.537.956,1.791,1.171,2.879,1.26a85.136,85.136,0,0,0,19.077-.576,2.172,2.172,0,0,0,.972-.307c.9-.627.345-2.165-.64-2.652a12.213,12.213,0,0,0-3.224-.589,10.146,10.146,0,0,1-3.007-1.305c-2.175-1.254-4.337-2.559-6.449-3.922-1.267-.812-2.751-1.676-4.171-1.2C670.171,330.591,668.29,333,668.315,337.155Z" transform="translate(-395.079 -258.633)"/><path class="i" d="M532.293,232.064h0c-.013.061-.019.118-.032.176l-.058.291c-.173.9-.39,1.8-.633,2.693-.685,2.463-1.6,4.888-2.508,7.277l-7.293,19.221c-.614,1.615-1.228,3.231-1.926,4.811-.237.528-.473,1.056-.71,1.6a21.955,21.955,0,0,0-1.951,5.95,12.481,12.481,0,0,0-.083,4.082,4.184,4.184,0,0,0,2.354,3.147c.627.24,1.516.566,1.343,1.216-.09.355-.493.528-.857.585a3.308,3.308,0,0,1-2.693-.774c-.678-.6-1.2-1.542-2.1-1.644a3.558,3.558,0,0,0-1.779.569c-2.341,1.072-5.067.32-7.53-.438a2.64,2.64,0,0,1,2.188-1.852,17.743,17.743,0,0,1,3.032-.083,1.6,1.6,0,0,0,.921-.237,1.665,1.665,0,0,0,.5-.851,35.092,35.092,0,0,0,1.446-5.937c.333-2.1.467-4.245.934-6.327.358-1.622.921-3.2,1.4-4.788a100.284,100.284,0,0,0,2.284-9.967,34.966,34.966,0,0,0,.646-4.229c.077-1.177.038-2.364.154-3.538a27.785,27.785,0,0,1,.953-4.51q.653-2.418,1.305-4.827c.64-2.38,1.331-4.852,2.962-6.7a6.311,6.311,0,0,1,4.529-2.162,4.221,4.221,0,0,1,.96.106c.057.013.1.026.16.038a3.768,3.768,0,0,1,.979.406c.505-.32.761-.208,1.094.285a3.142,3.142,0,0,1,.4,1.714A23.662,23.662,0,0,1,532.293,232.064Z" transform="translate(-305.953 -201.393)"/><path class="j" d="M561.094,233.743l-.032.022-.109.115-1.139,1.139-.563-2.348-1.913-8.06a4.6,4.6,0,0,1,.953.1,2.153,2.153,0,0,1,.07-.272l.09.31.653,2.216,1.228,4.2.211.691v0Z" transform="translate(-334.2 -201.19)"/><path class="i" d="M674.139,288.695s1.471,4.225,2.815,3.1l-1.062-5.527Z" transform="translate(-398.274 -235.103)"/><path class="k" d="M1062.412,555.29a9.395,9.395,0,1,0,1.241-18.021l.23,4.836-2.29-4.146a9.41,9.41,0,0,0-4.823,5.284,9.607,9.607,0,0,0-.537,2.546A9.409,9.409,0,0,0,1062.412,555.29Z" transform="translate(-607.88 -372.679)"/><path class="f" d="M1092.861,601.556c-.819-4.114,2.674-7.76,6.129-10.127s7.5-4.7,8.675-8.719c1.7-5.783-3.352-11.08-7.267-15.642a55.38,55.38,0,0,1-7.459-11.087,14.987,14.987,0,0,1-1.8-5.041c-.294-2.565.525-5.112,1.344-7.555q4.146-12.206,8.88-24.213" transform="translate(-627.002 -362.869)"/><path class="f" d="M1063.268,552.528a9.394,9.394,0,1,0,1.241-18.021l.23,4.836-2.29-4.145a9.329,9.329,0,0,0-4.811,5.3,9.116,9.116,0,0,0-.55,2.533A9.393,9.393,0,0,0,1063.268,552.528Z" transform="translate(-608.342 -371.174)"/><path class="k" d="M1091.765,507.949a9.393,9.393,0,0,1,6.768-5.956l.768,4.593,1.446-4.824a9.392,9.392,0,1,1-8.982,6.186Z" transform="translate(-627.072 -353.321)"/><path class="f" d="M1092.9,504.272a9.4,9.4,0,0,1,6.768-5.956l.768,4.593,1.446-4.824a9.392,9.392,0,1,1-8.982,6.186Z" transform="translate(-627.701 -351.301)"/><path class="k" d="M1100.512,603.341a9.4,9.4,0,0,0,8.329-16.723l-1.113,3.711-.781-4.645-.026-.013a9.4,9.4,0,0,0-6.41,17.67Z" transform="translate(-628.775 -399.038)"/><path class="f" d="M1101.508,599.611a9.386,9.386,0,0,0,8.3-16.7l-1.113,3.7-.768-4.651c-.013,0-.013,0-.013-.013a9.4,9.4,0,1,0-6.41,17.663Z" transform="translate(-629.332 -397.001)"/><path class="k" d="M1086.2,646.663a9.4,9.4,0,1,0,1.817-7.357l4.171,6.3-5.719-3.346A9.507,9.507,0,0,0,1086.2,646.663Z" transform="translate(-624.236 -426.766)"/><path class="f" d="M1087.057,643.908a9.4,9.4,0,1,0,1.817-7.357l4.171,6.3-5.719-3.339A9.464,9.464,0,0,0,1087.057,643.908Z" transform="translate(-624.719 -425.25)"/><path class="k" d="M67.12,613.579a6.172,6.172,0,1,0,.822-11.835l.154,3.173-1.5-2.719a6.147,6.147,0,0,0-3.168,3.474,6.039,6.039,0,0,0-.355,1.676A6.158,6.158,0,0,0,67.12,613.579Z" transform="translate(-63.055 -408.091)"/><path class="f" d="M87.124,643.982c-.529-2.706,1.769-5.1,4.04-6.66s4.926-3.084,5.7-5.719c1.115-3.806-2.2-7.28-4.785-10.281a37.091,37.091,0,0,1-4.9-7.287,9.9,9.9,0,0,1-1.171-3.314,11.4,11.4,0,0,1,.881-4.958q2.723-8.022,5.822-15.91" transform="translate(-75.62 -401.644)"/><path class="f" d="M67.683,611.77a6.172,6.172,0,1,0,.822-11.834l.154,3.172-1.5-2.718a6.17,6.17,0,0,0,.527,11.38Z" transform="translate(-63.364 -407.098)"/><path class="k" d="M86.416,582.484a6.152,6.152,0,0,1,4.441-3.915l.51,3.013.942-3.167a6.175,6.175,0,1,1-5.893,4.069Z" transform="translate(-75.667 -395.374)"/><path class="f" d="M87.167,580.068a6.164,6.164,0,0,1,4.443-3.915l.509,3.026L93.06,576a6.175,6.175,0,1,1-5.893,4.069Z" transform="translate(-76.079 -394.042)"/><path class="k" d="M92.167,645.153a6.171,6.171,0,0,0,5.463-10.978l-.724,2.437-.513-3.058s-.011,0-.016-.013a6.175,6.175,0,0,0-4.209,11.611Z" transform="translate(-76.792 -425.406)"/><path class="f" d="M92.817,642.7a6.171,6.171,0,0,0,5.463-10.978l-.725,2.431-.513-3.052h-.016a6.169,6.169,0,1,0-4.209,11.6Z" transform="translate(-77.149 -424.065)"/><path class="k" d="M82.761,673.615a6.159,6.159,0,1,0,1.188-4.836l2.751,4.146-3.758-2.2A6.111,6.111,0,0,0,82.761,673.615Z" transform="translate(-73.813 -443.621)"/><path class="f" d="M83.324,671.8a6.176,6.176,0,1,0,1.19-4.823l2.749,4.133-3.758-2.188A6.056,6.056,0,0,0,83.324,671.8Z" transform="translate(-74.122 -442.628)"/></g></g></svg>