<svg xmlns="http://www.w3.org/2000/svg" width="60" height="60" viewBox="0 0 60 60"><defs><style>.a{fill:#ff453a;}.b{fill:#fff;}.c,.e{fill:none;}.c{stroke:#fff;}.d{stroke:none;}</style></defs><g transform="translate(-136 -271.022)"><circle class="a" cx="30" cy="30" r="30" transform="translate(136 271.022)"/><g transform="translate(153.43 288.932)"><path class="b" d="M17.782,28.634c1.44.772,4.215.536,6.324-1.574,2.092-2.092,2.883-5.15.905-7.194h0l-.052-.051h0c-2.042-1.977-5.1-1.187-7.193.905-2.109,2.11-2.346,4.884-1.574,6.324-.2,1.179-1.817,2.459-3.268,3.29a5.23,5.23,0,0,1-2.679-4.364,3.361,3.361,0,0,0-.965-2.748c-.069-.069-.267-.236-.267-.236L3.546,18.728l-.5.5L8.98,24.791l-.643.643L2.589,19.687l-.528.527,5.747,5.748-.543.543L1.518,20.759l-.481.476L6.75,26.948,6.1,27.6.545,21.729,0,22.276l4.537,5.717s.108.111.154.151A3.356,3.356,0,0,0,7,28.97l.018,0a5.388,5.388,0,0,1,4.334,2.468L2.923,39.871l0,0a.192.192,0,0,0-.021.016,1.331,1.331,0,0,0,0,1.881c.027.026.127.125.152.152a1.33,1.33,0,0,0,1.88,0,.18.18,0,0,0,.017-.021l0,0,8.19-8.189,8.148,8.145,0,0a.172.172,0,0,0,.015.021,1.311,1.311,0,0,0,1.854-1.855c-.008-.007-.016-.009-.022-.016v0s-6.613-6.613-8.448-8.449C15.523,30.207,16.7,28.817,17.782,28.634Zm-.7-3.95A6.864,6.864,0,0,1,17.3,23.5c.062-.212.135-.431.223-.652a3.742,3.742,0,0,1,.35-.652,4.634,4.634,0,0,1,.985-1.02,6.236,6.236,0,0,1,1-.656,4.544,4.544,0,0,1,.782-.336,1.487,1.487,0,0,1,.317-.074s-.1.073-.24.207l-.6.562a14.742,14.742,0,0,0-1.645,1.733,3.328,3.328,0,0,0-.311.531c-.1.186-.186.378-.266.568-.166.378-.3.744-.421,1.06s-.2.584-.258.774a.59.59,0,0,0-.041.3.575.575,0,0,1-.1-.313A4.091,4.091,0,0,1,17.079,24.684Z" transform="translate(0 -18.677)"/></g><g class="c" transform="translate(137 272.022)"><circle class="d" cx="29" cy="29" r="29"/><circle class="e" cx="29" cy="29" r="28.5"/></g></g></svg>