<svg xmlns="http://www.w3.org/2000/svg" xmlns:xlink="http://www.w3.org/1999/xlink" width="120" height="24" viewBox="0 0 120 24">
  <defs>
    <clipPath id="clip-path">
      <rect id="Base" width="120" height="24" transform="translate(13269 3942)" fill="#fff"/>
    </clipPath>
  </defs>
  <g id="Logo" transform="translate(-13269 -3942)" clip-path="url(#clip-path)">
    <g id="Layer_2" data-name="Layer 2" transform="translate(13269.999 3943)">
      <g id="Layer_1" data-name="Layer 1" transform="translate(0 0)">
        <path id="Path_3168" data-name="Path 3168" d="M0,16.532H3.093v.942h.034A3.715,3.715,0,0,1,5.7,16.27a3.391,3.391,0,0,1,3.132,1.641A3.936,3.936,0,0,1,11.8,16.27c1.641,0,3.5.821,3.5,3.321V25.5H12.2V20.431a1.519,1.519,0,0,0-1.568-1.68,1.384,1.384,0,0,0-1.457,1.4v5.341H6.1v-5.06a1.52,1.52,0,0,0-1.573-1.68,1.389,1.389,0,0,0-1.432,1.505V25.5H0Z" transform="translate(0 -8.37)" fill="#ff453a"/>
        <path id="Path_3169" data-name="Path 3169" d="M37.344,21.466a1.835,1.835,0,0,0,1.942,1.855,2.507,2.507,0,0,0,2.185-.971l2.234,1.117a4.986,4.986,0,0,1-4.647,2.345,4.856,4.856,0,0,1-4.929-4.739,4.856,4.856,0,0,1,4.929-4.754,4.445,4.445,0,0,1,4.807,4.754,2.869,2.869,0,0,1,0,.418Zm3.52-1.709A1.593,1.593,0,0,0,39.17,18.3a1.547,1.547,0,0,0-1.714,1.457Z" transform="translate(-17.557 -8.395)" fill="#ff453a"/>
        <path id="Path_3170" data-name="Path 3170" d="M57.1,16.532h3.093v.942h.034a3.7,3.7,0,0,1,2.569-1.2c1.641,0,3.933.821,3.933,3.321V25.5H63.636V20.431a1.656,1.656,0,0,0-1.607-1.748,1.9,1.9,0,0,0-1.835,1.748V25.5H57.1Z" transform="translate(-29.374 -8.37)" fill="#ff453a"/>
        <path id="Path_3171" data-name="Path 3171" d="M83.628,21.073c0,1.767.486,2.428,1.767,2.428s1.763-.68,1.763-2.428V16.81h3.093v5.016c0,3.006-1.5,4.215-4.856,4.215s-4.856-1.209-4.856-4.215V16.81h3.088Z" transform="translate(-41.432 -8.648)" fill="#ff453a"/>
        <path id="Path_3172" data-name="Path 3172" d="M104.484,16.532h3.093v.942h.058a3.715,3.715,0,0,1,2.569-1.2,3.379,3.379,0,0,1,3.127,1.641A3.951,3.951,0,0,1,116.3,16.27c1.646,0,3.5.821,3.5,3.321V25.5h-3.093V20.431a1.52,1.52,0,0,0-1.573-1.68,1.379,1.379,0,0,0-1.457,1.4v5.341h-3.093v-5.06a1.52,1.52,0,0,0-1.573-1.68,1.389,1.389,0,0,0-1.457,1.505V25.5H104.46Z" transform="translate(-53.737 -8.37)" fill="#f90"/>
        <path id="Path_3173" data-name="Path 3173" d="M143.088,16.268a4.089,4.089,0,0,1,2.938,1.117V16.53h3.093V25.5h-3.059V24.484h-.034a3.982,3.982,0,0,1-2.938,1.277,4.5,4.5,0,0,1-4.458-4.739A4.514,4.514,0,0,1,143.088,16.268Zm.927,6.851a2.015,2.015,0,0,0,2.078-2.1,2.088,2.088,0,1,0-4.176,0,2,2,0,0,0,2.1,2.1Z" transform="translate(-71.315 -8.368)" fill="#f90"/>
        <path id="Path_3174" data-name="Path 3174" d="M164.54,16.532h3.1v.942h.034a3.7,3.7,0,0,1,2.569-1.2c1.641,0,3.933.821,3.933,3.321V25.5h-3.1V20.431a1.656,1.656,0,0,0-1.607-1.748,1.9,1.9,0,0,0-1.835,1.748V25.5h-3.1Z" transform="translate(-84.639 -8.37)" fill="#f90"/>
        <path id="Path_3175" data-name="Path 3175" d="M189.813,26.46a2.709,2.709,0,0,0,2.428,1.151,2.064,2.064,0,0,0,2.18-2.1v-.665a3.729,3.729,0,0,1-2.913.913,4.5,4.5,0,0,1-4.458-4.739,4.514,4.514,0,0,1,4.458-4.754,4.089,4.089,0,0,1,2.884,1.068h.049V16.53h3.1v9.226c0,3.006-2.224,4.56-5.278,4.56-1.874,0-4.021-.418-4.967-2.6Zm2.6-3.341a2.015,2.015,0,0,0,2.083-2.1,2.088,2.088,0,0,0-4.176,0,2,2,0,0,0,2.093,2.1Z" transform="translate(-96.224 -8.368)" fill="#f90"/>
        <path id="Path_3176" data-name="Path 3176" d="M235.408,1.879c-.078.359-.626,2.991-2.821,3.787a4.705,4.705,0,0,1-2.564.049c-.539-.092-.859-.219-1.02-.486a1.384,1.384,0,0,1-.058-.918,4.37,4.37,0,0,1,.335-1.277A4.147,4.147,0,0,1,231.858.821c1.034-.257,1.51.175,2.651-.272A4.176,4.176,0,0,0,235.481,0a5.687,5.687,0,0,1-.073,1.879Z" transform="translate(-117.749 0)" fill="#74c51d"/>
        <path id="Path_3177" data-name="Path 3177" d="M233.393,3.126a4.151,4.151,0,0,1-1.01.845,9.473,9.473,0,0,1-1.821.646,8.877,8.877,0,0,0-2.855,2.331A10.168,10.168,0,0,1,226.464,8.2c-.024,0,.029-.121.068-.185a11.435,11.435,0,0,1,1.311-1.763,5.949,5.949,0,0,1,.971-1l.112-.083a5.769,5.769,0,0,1,1.413-.893c.782-.33,1.029-.2,1.7-.442a4.259,4.259,0,0,0,1.7-1.185,4.369,4.369,0,0,1-.345.476Z" transform="translate(-116.496 -1.363)" fill="#61a31a"/>
        <path id="Path_3178" data-name="Path 3178" d="M220.9,21.112c-1.51,1.816-4.453,3.651-6.575,2.8-2.724-1.1-2.719-6.075-1.277-9.226.413-.893,1.3-2.807,3.2-3.452,2.3-.777,4.948.68,6.026,2.719C224.021,17.266,221.064,20.922,220.9,21.112Z" transform="translate(-109.106 -5.67)" fill="#f90"/>
        <path id="Path_3179" data-name="Path 3179" d="M224.37,20.673c-.971,3.462-5.662,4.763-5.71,4.681s3.083-1.063,4.37-3.826c1.093-2.365.374-5.021-.35-6.827C223.272,15.477,225.1,18.041,224.37,20.673Z" transform="translate(-112.484 -7.562)" fill="#feca00"/>
      </g>
    </g>
  </g>
</svg>
