<?xml version="1.0" standalone="no"?>
<!DOCTYPE svg PUBLIC "-//W3C//DTD SVG 20010904//EN"
 "http://www.w3.org/TR/2001/REC-SVG-20010904/DTD/svg10.dtd">
<svg version="1.0" xmlns="http://www.w3.org/2000/svg"
 width="164.000000pt" height="164.000000pt" viewBox="0 0 164.000000 164.000000"
 preserveAspectRatio="xMidYMid meet">

<g transform="translate(0.000000,164.000000) scale(0.100000,-0.100000)"
fill="#000000" stroke="none">
<path d="M160 1340 l0 -140 140 0 140 0 0 140 0 140 -140 0 -140 0 0 -140z
m240 0 l0 -100 -100 0 -100 0 0 100 0 100 100 0 100 0 0 -100z"/>
<path d="M240 1340 l0 -60 60 0 60 0 0 60 0 60 -60 0 -60 0 0 -60z"/>
<path d="M600 1460 c0 -17 7 -20 40 -20 l40 0 0 -40 c0 -33 3 -40 20 -40 13 0
20 -7 20 -20 0 -13 7 -20 20 -20 17 0 20 -7 20 -40 0 -33 -3 -40 -20 -40 -13
0 -20 7 -20 20 0 13 -7 20 -20 20 -13 0 -20 -7 -20 -20 0 -13 -7 -20 -20 -20
-13 0 -20 -7 -20 -20 0 -13 -7 -20 -20 -20 -17 0 -20 7 -20 40 0 33 3 40 20
40 17 0 20 7 20 40 0 33 -3 40 -20 40 -13 0 -20 7 -20 20 0 13 -7 20 -20 20
-13 0 -20 -7 -20 -20 0 -13 -7 -20 -20 -20 -13 0 -20 7 -20 20 0 13 -7 20 -20
20 -19 0 -20 -7 -20 -120 0 -113 1 -120 20 -120 18 0 20 7 20 60 0 53 2 60 20
60 18 0 20 -7 20 -80 l0 -80 -40 0 c-33 0 -40 -3 -40 -20 0 -18 7 -20 60 -20
53 0 60 2 60 20 0 13 7 20 20 20 13 0 20 -7 20 -20 0 -13 7 -20 20 -20 13 0
20 7 20 20 0 18 7 20 60 20 53 0 60 -2 60 -20 0 -13 -7 -20 -20 -20 -13 0 -20
-7 -20 -20 0 -13 -7 -20 -20 -20 -13 0 -20 -7 -20 -20 0 -13 7 -20 20 -20 13
0 20 -7 20 -20 0 -17 -7 -20 -40 -20 -33 0 -40 3 -40 20 0 13 -7 20 -20 20
-17 0 -20 -7 -20 -40 l0 -40 -80 0 -80 0 0 -40 0 -40 -60 0 c-53 0 -60 2 -60
20 0 17 7 20 40 20 33 0 40 3 40 20 0 17 -7 20 -40 20 -33 0 -40 3 -40 20 0
18 7 20 80 20 73 0 80 2 80 20 0 13 7 20 20 20 13 0 20 -7 20 -20 0 -13 7 -20
20 -20 13 0 20 7 20 20 0 13 -7 20 -20 20 -13 0 -20 7 -20 20 0 18 -7 20 -60
20 -53 0 -60 2 -60 20 0 13 -7 20 -20 20 -13 0 -20 7 -20 20 0 13 7 20 20 20
13 0 20 7 20 20 0 19 -7 20 -100 20 -93 0 -100 -1 -100 -20 0 -17 7 -20 40
-20 l40 0 0 -40 0 -40 -60 0 -60 0 0 60 c0 53 -2 60 -20 60 -18 0 -20 -7 -20
-80 0 -73 2 -80 20 -80 17 0 20 -7 20 -40 0 -33 -3 -40 -20 -40 -17 0 -20 -7
-20 -40 l0 -40 40 0 c33 0 40 3 40 20 0 13 7 20 20 20 17 0 20 7 20 40 0 33 3
40 20 40 18 0 20 -7 20 -60 0 -53 -2 -60 -20 -60 -13 0 -20 -7 -20 -20 0 -17
-7 -20 -40 -20 l-40 0 0 -60 c0 -53 2 -60 20 -60 13 0 20 -7 20 -20 0 -17 -7
-20 -40 -20 l-40 0 0 -80 c0 -73 2 -80 20 -80 18 0 20 7 20 60 l0 60 40 0 c33
0 40 -3 40 -20 0 -13 7 -20 20 -20 13 0 20 -7 20 -20 0 -17 -7 -20 -40 -20
-33 0 -40 -3 -40 -20 0 -19 7 -20 100 -20 93 0 100 1 100 20 0 13 7 20 20 20
17 0 20 -7 20 -40 0 -33 3 -40 20 -40 13 0 20 7 20 20 0 13 7 20 20 20 17 0
20 -7 20 -40 l0 -40 -40 0 -40 0 0 -80 c0 -73 2 -80 20 -80 13 0 20 -7 20 -20
0 -13 -7 -20 -20 -20 -13 0 -20 -7 -20 -20 0 -13 7 -20 20 -20 13 0 20 7 20
20 0 17 7 20 40 20 33 0 40 -3 40 -20 0 -13 7 -20 20 -20 13 0 20 7 20 20 0
17 7 20 40 20 33 0 40 3 40 20 0 13 7 20 20 20 13 0 20 7 20 20 0 13 7 20 20
20 13 0 20 -7 20 -20 0 -17 7 -20 40 -20 33 0 40 -3 40 -20 0 -18 -7 -20 -60
-20 -53 0 -60 -2 -60 -20 0 -18 7 -20 60 -20 53 0 60 2 60 20 0 13 7 20 20 20
13 0 20 -7 20 -20 0 -13 7 -20 20 -20 13 0 20 7 20 20 0 13 -7 20 -20 20 -13
0 -20 7 -20 20 0 13 7 20 20 20 13 0 20 7 20 20 0 13 7 20 20 20 13 0 20 7 20
20 0 13 7 20 20 20 13 0 20 7 20 20 0 17 7 20 40 20 33 0 40 -3 40 -20 0 -13
-7 -20 -20 -20 -13 0 -20 -7 -20 -20 0 -13 -7 -20 -20 -20 -13 0 -20 -7 -20
-20 0 -13 -7 -20 -20 -20 -13 0 -20 -7 -20 -20 0 -18 7 -20 60 -20 53 0 60 -2
60 -20 0 -13 7 -20 20 -20 13 0 20 7 20 20 0 13 -7 20 -20 20 -13 0 -20 7 -20
20 0 13 7 20 20 20 13 0 20 7 20 20 0 13 7 20 20 20 13 0 20 -7 20 -20 0 -17
7 -20 40 -20 33 0 40 -3 40 -20 0 -13 -7 -20 -20 -20 -13 0 -20 -7 -20 -20 0
-13 7 -20 20 -20 13 0 20 7 20 20 0 13 7 20 20 20 13 0 20 -7 20 -20 0 -18 7
-20 60 -20 53 0 60 2 60 20 0 13 -7 20 -20 20 -17 0 -20 7 -20 40 0 33 -3 40
-20 40 -17 0 -20 7 -20 40 0 33 3 40 20 40 13 0 20 -7 20 -20 0 -13 7 -20 20
-20 13 0 20 -7 20 -20 0 -13 7 -20 20 -20 13 0 20 7 20 20 0 13 -7 20 -20 20
-18 0 -20 7 -20 60 0 53 2 60 20 60 13 0 20 7 20 20 0 13 -7 20 -20 20 -13 0
-20 7 -20 20 0 13 -7 20 -20 20 -13 0 -20 7 -20 20 0 13 7 20 20 20 13 0 20 7
20 20 0 13 7 20 20 20 13 0 20 7 20 20 0 13 -7 20 -20 20 -13 0 -20 -7 -20
-20 0 -13 -7 -20 -20 -20 -13 0 -20 7 -20 20 0 13 -7 20 -20 20 -13 0 -20 7
-20 20 0 18 7 20 60 20 53 0 60 2 60 20 0 13 -7 20 -20 20 -13 0 -20 7 -20 20
0 13 7 20 20 20 17 0 20 7 20 40 0 33 -3 40 -20 40 -13 0 -20 -7 -20 -20 0
-18 -7 -20 -60 -20 -53 0 -60 2 -60 20 0 17 7 20 40 20 33 0 40 3 40 20 0 13
7 20 20 20 13 0 20 7 20 20 0 13 7 20 20 20 13 0 20 7 20 20 0 17 -7 20 -40
20 -33 0 -40 -3 -40 -20 0 -18 -7 -20 -80 -20 -73 0 -80 2 -80 20 0 18 -7 20
-60 20 -53 0 -60 -2 -60 -20 0 -13 -7 -20 -20 -20 -17 0 -20 7 -20 40 l0 40
-40 0 c-33 0 -40 3 -40 20 0 17 7 20 40 20 33 0 40 3 40 20 0 13 7 20 20 20
13 0 20 7 20 20 0 13 7 20 20 20 18 0 20 7 20 60 0 53 -2 60 -20 60 -13 0 -20
7 -20 20 0 13 7 20 20 20 17 0 20 7 20 40 l0 40 -40 0 c-33 0 -40 3 -40 20 0
13 -7 20 -20 20 -13 0 -20 7 -20 20 0 17 -7 20 -40 20 -33 0 -40 3 -40 20 0
17 -7 20 -40 20 l-40 0 0 -40 c0 -33 -3 -40 -20 -40 -17 0 -20 7 -20 40 0 33
-3 40 -20 40 -13 0 -20 -7 -20 -20 0 -17 -7 -20 -40 -20 -33 0 -40 3 -40 20 0
18 -7 20 -60 20 -53 0 -60 -2 -60 -20z m360 -60 c0 -33 3 -40 20 -40 13 0 20
7 20 20 0 13 7 20 20 20 13 0 20 -7 20 -20 0 -13 7 -20 20 -20 13 0 20 -7 20
-20 0 -13 7 -20 20 -20 13 0 20 -7 20 -20 0 -13 -7 -20 -20 -20 -13 0 -20 -7
-20 -20 0 -13 7 -20 20 -20 17 0 20 -7 20 -40 0 -33 -3 -40 -20 -40 -17 0 -20
7 -20 40 0 33 -3 40 -20 40 -13 0 -20 -7 -20 -20 0 -13 -7 -20 -20 -20 -13 0
-20 -7 -20 -20 0 -13 7 -20 20 -20 13 0 20 -7 20 -20 0 -13 7 -20 20 -20 13 0
20 -7 20 -20 0 -13 -7 -20 -20 -20 -13 0 -20 7 -20 20 0 18 -7 20 -80 20 -73
0 -80 2 -80 20 0 13 -7 20 -20 20 -13 0 -20 -7 -20 -20 0 -13 -7 -20 -20 -20
-17 0 -20 7 -20 40 0 33 -3 40 -20 40 -13 0 -20 7 -20 20 0 13 7 20 20 20 13
0 20 -7 20 -20 0 -13 7 -20 20 -20 13 0 20 7 20 20 0 13 7 20 20 20 17 0 20 7
20 40 0 33 -3 40 -20 40 -13 0 -20 -7 -20 -20 0 -13 -7 -20 -20 -20 -13 0 -20
7 -20 20 0 13 7 20 20 20 13 0 20 7 20 20 0 18 -7 20 -60 20 -53 0 -60 2 -60
20 0 18 7 20 60 20 53 0 60 -2 60 -20 0 -13 7 -20 20 -20 13 0 20 7 20 20 0
13 7 20 20 20 13 0 20 7 20 20 0 13 7 20 20 20 17 0 20 -7 20 -40z m-360 -100
c0 -13 -7 -20 -20 -20 -13 0 -20 7 -20 20 0 13 7 20 20 20 13 0 20 -7 20 -20z
m120 -100 c0 -33 -3 -40 -20 -40 -17 0 -20 7 -20 40 0 33 3 40 20 40 17 0 20
-7 20 -40z m160 -160 c0 -33 3 -40 20 -40 13 0 20 -7 20 -20 0 -13 7 -20 20
-20 13 0 20 -7 20 -20 0 -13 7 -20 20 -20 13 0 20 7 20 20 0 13 7 20 20 20 17
0 20 -7 20 -40 l0 -40 40 0 c33 0 40 3 40 20 0 13 7 20 20 20 18 0 20 -7 20
-60 0 -53 2 -60 20 -60 13 0 20 7 20 20 0 13 7 20 20 20 13 0 20 -7 20 -20 0
-13 -7 -20 -20 -20 -13 0 -20 -7 -20 -20 0 -13 7 -20 20 -20 17 0 20 -7 20
-40 l0 -40 40 0 40 0 0 -40 c0 -33 3 -40 20 -40 17 0 20 -7 20 -40 0 -33 3
-40 20 -40 13 0 20 -7 20 -20 0 -13 -7 -20 -20 -20 -17 0 -20 -7 -20 -40 0
-33 -3 -40 -20 -40 -17 0 -20 7 -20 40 0 33 3 40 20 40 13 0 20 7 20 20 0 17
-7 20 -40 20 l-40 0 0 60 c0 53 -2 60 -20 60 -13 0 -20 -7 -20 -20 0 -13 -7
-20 -20 -20 -13 0 -20 7 -20 20 0 13 7 20 20 20 13 0 20 7 20 20 0 13 -7 20
-20 20 -17 0 -20 7 -20 40 l0 40 -40 0 c-33 0 -40 -3 -40 -20 0 -13 7 -20 20
-20 17 0 20 -7 20 -40 0 -33 -3 -40 -20 -40 -13 0 -20 -7 -20 -20 0 -13 7 -20
20 -20 13 0 20 -7 20 -20 0 -13 -7 -20 -20 -20 -18 0 -20 -7 -20 -60 0 -53 -2
-60 -20 -60 -13 0 -20 -7 -20 -20 0 -13 -7 -20 -20 -20 -13 0 -20 -7 -20 -20
0 -13 -7 -20 -20 -20 -13 0 -20 -7 -20 -20 0 -13 -7 -20 -20 -20 -13 0 -20 7
-20 20 0 13 7 20 20 20 13 0 20 7 20 20 0 17 -7 20 -40 20 l-40 0 0 -40 c0
-33 -3 -40 -20 -40 -17 0 -20 7 -20 40 0 33 -3 40 -20 40 -13 0 -20 7 -20 20
0 17 -7 20 -40 20 l-40 0 0 -60 0 -60 -40 0 c-33 0 -40 -3 -40 -20 0 -13 7
-20 20 -20 13 0 20 -7 20 -20 0 -13 -7 -20 -20 -20 -13 0 -20 7 -20 20 0 13
-7 20 -20 20 -17 0 -20 7 -20 40 0 33 3 40 20 40 17 0 20 7 20 40 l0 40 40 0
c33 0 40 3 40 20 0 18 -7 20 -60 20 -53 0 -60 -2 -60 -20 0 -13 -7 -20 -20
-20 -13 0 -20 7 -20 20 0 13 -7 20 -20 20 -13 0 -20 7 -20 20 0 13 7 20 20 20
13 0 20 -7 20 -20 0 -13 7 -20 20 -20 13 0 20 7 20 20 0 17 7 20 40 20 33 0
40 3 40 20 0 13 -7 20 -20 20 -13 0 -20 7 -20 20 0 17 7 20 40 20 33 0 40 -3
40 -20 0 -13 7 -20 20 -20 17 0 20 7 20 40 l0 40 -40 0 c-33 0 -40 3 -40 20 0
13 -7 20 -20 20 -13 0 -20 -7 -20 -20 0 -13 -7 -20 -20 -20 -17 0 -20 7 -20
40 0 33 -3 40 -20 40 -17 0 -20 7 -20 40 0 33 -3 40 -20 40 -17 0 -20 -7 -20
-40 0 -33 -3 -40 -20 -40 -17 0 -20 7 -20 40 0 33 -3 40 -20 40 -13 0 -20 7
-20 20 0 18 7 20 80 20 l80 0 0 40 c0 33 3 40 20 40 17 0 20 -7 20 -40 0 -33
3 -40 20 -40 17 0 20 7 20 40 l0 40 100 0 c93 0 100 1 100 20 0 18 -7 20 -60
20 l-60 0 0 40 c0 33 3 40 20 40 13 0 20 7 20 20 0 13 7 20 20 20 17 0 20 -7
20 -40z m80 20 c0 -13 -7 -20 -20 -20 -13 0 -20 7 -20 20 0 13 7 20 20 20 13
0 20 -7 20 -20z m-520 -40 c0 -17 -7 -20 -40 -20 -33 0 -40 -3 -40 -20 0 -13
-7 -20 -20 -20 -13 0 -20 7 -20 20 0 13 7 20 20 20 13 0 20 7 20 20 0 17 7 20
40 20 33 0 40 -3 40 -20z m-80 -240 l0 -60 40 0 c33 0 40 3 40 20 0 13 -7 20
-20 20 -13 0 -20 7 -20 20 0 13 7 20 20 20 13 0 20 -7 20 -20 0 -13 7 -20 20
-20 18 0 20 -7 20 -60 0 -53 -2 -60 -20 -60 -13 0 -20 -7 -20 -20 0 -17 7 -20
40 -20 33 0 40 3 40 20 0 13 7 20 20 20 13 0 20 7 20 20 0 13 7 20 20 20 18 0
20 -7 20 -60 l0 -60 -40 0 c-33 0 -40 -3 -40 -20 0 -13 -7 -20 -20 -20 -13 0
-20 7 -20 20 0 13 -7 20 -20 20 -13 0 -20 -7 -20 -20 0 -17 -7 -20 -40 -20
-33 0 -40 3 -40 20 0 17 7 20 40 20 33 0 40 3 40 20 0 13 -7 20 -20 20 -13 0
-20 7 -20 20 0 13 -7 20 -20 20 -13 0 -20 7 -20 20 0 13 -7 20 -20 20 -13 0
-20 -7 -20 -20 0 -13 -7 -20 -20 -20 -13 0 -20 7 -20 20 0 13 7 20 20 20 18 0
20 7 20 80 0 73 2 80 20 80 18 0 20 -7 20 -60z m960 0 c0 -13 7 -20 20 -20 13
0 20 -7 20 -20 0 -13 -7 -20 -20 -20 -13 0 -20 7 -20 20 0 13 -7 20 -20 20
-13 0 -20 7 -20 20 0 13 7 20 20 20 13 0 20 -7 20 -20z m-80 -240 c0 -13 -7
-20 -20 -20 -13 0 -20 7 -20 20 0 13 7 20 20 20 13 0 20 -7 20 -20z m40 -120
l0 -60 -60 0 -60 0 0 60 0 60 60 0 60 0 0 -60z m-680 -120 c0 -53 2 -60 20
-60 13 0 20 -7 20 -20 0 -13 -7 -20 -20 -20 -13 0 -20 7 -20 20 0 13 -7 20
-20 20 -18 0 -20 7 -20 60 0 53 2 60 20 60 18 0 20 -7 20 -60z m240 20 c0 -33
-3 -40 -20 -40 -17 0 -20 7 -20 40 0 33 3 40 20 40 17 0 20 -7 20 -40z m440
-20 c0 -13 7 -20 20 -20 13 0 20 -7 20 -20 0 -13 7 -20 20 -20 13 0 20 -7 20
-20 0 -13 -7 -20 -20 -20 -13 0 -20 7 -20 20 0 13 -7 20 -20 20 -13 0 -20 7
-20 20 0 17 -7 20 -40 20 -33 0 -40 3 -40 20 0 17 7 20 40 20 33 0 40 -3 40
-20z m-360 -40 c0 -13 -7 -20 -20 -20 -13 0 -20 7 -20 20 0 13 7 20 20 20 13
0 20 -7 20 -20z"/>
<path d="M880 1340 c0 -17 7 -20 40 -20 33 0 40 -3 40 -20 0 -13 -7 -20 -20
-20 -13 0 -20 -7 -20 -20 0 -13 -7 -20 -20 -20 -13 0 -20 -7 -20 -20 0 -13 7
-20 20 -20 13 0 20 7 20 20 0 13 7 20 20 20 13 0 20 -7 20 -20 0 -13 7 -20 20
-20 13 0 20 7 20 20 0 13 7 20 20 20 13 0 20 7 20 20 0 13 7 20 20 20 13 0 20
7 20 20 0 13 -7 20 -20 20 -13 0 -20 7 -20 20 0 13 -7 20 -20 20 -13 0 -20 -7
-20 -20 0 -13 -7 -20 -20 -20 -13 0 -20 7 -20 20 0 17 -7 20 -40 20 -33 0 -40
-3 -40 -20z m120 -80 c0 -13 -7 -20 -20 -20 -13 0 -20 7 -20 20 0 13 7 20 20
20 13 0 20 -7 20 -20z"/>
<path d="M920 900 c0 -13 7 -20 20 -20 13 0 20 7 20 20 0 13 -7 20 -20 20 -13
0 -20 -7 -20 -20z"/>
<path d="M800 860 c0 -13 7 -20 20 -20 13 0 20 -7 20 -20 0 -13 -7 -20 -20
-20 -13 0 -20 -7 -20 -20 0 -13 -7 -20 -20 -20 -13 0 -20 -7 -20 -20 0 -13 -7
-20 -20 -20 -13 0 -20 -7 -20 -20 0 -13 7 -20 20 -20 13 0 20 7 20 20 0 13 7
20 20 20 13 0 20 -7 20 -20 0 -13 7 -20 20 -20 13 0 20 -7 20 -20 0 -13 7 -20
20 -20 13 0 20 -7 20 -20 0 -13 7 -20 20 -20 13 0 20 -7 20 -20 0 -13 7 -20
20 -20 13 0 20 7 20 20 0 17 7 20 40 20 33 0 40 -3 40 -20 0 -13 -7 -20 -20
-20 -13 0 -20 -7 -20 -20 0 -13 7 -20 20 -20 13 0 20 -7 20 -20 0 -13 7 -20
20 -20 17 0 20 7 20 40 0 33 3 40 20 40 13 0 20 7 20 20 0 13 -7 20 -20 20
-13 0 -20 7 -20 20 0 13 7 20 20 20 17 0 20 7 20 40 l0 40 -40 0 -40 0 0 40
c0 33 3 40 20 40 13 0 20 -7 20 -20 0 -13 7 -20 20 -20 13 0 20 7 20 20 0 13
-7 20 -20 20 -13 0 -20 7 -20 20 0 13 -7 20 -20 20 -13 0 -20 7 -20 20 0 13
-7 20 -20 20 -13 0 -20 -7 -20 -20 0 -13 7 -20 20 -20 13 0 20 -7 20 -20 0
-17 -7 -20 -40 -20 -33 0 -40 3 -40 20 0 13 -7 20 -20 20 -13 0 -20 -7 -20
-20 0 -13 -7 -20 -20 -20 -13 0 -20 7 -20 20 0 13 -7 20 -20 20 -13 0 -20 7
-20 20 0 13 -7 20 -20 20 -13 0 -20 -7 -20 -20z m80 -120 l0 -60 40 0 c33 0
40 3 40 20 0 13 -7 20 -20 20 -13 0 -20 7 -20 20 0 13 7 20 20 20 13 0 20 -7
20 -20 0 -17 7 -20 40 -20 33 0 40 -3 40 -20 0 -13 7 -20 20 -20 13 0 20 -7
20 -20 0 -13 -7 -20 -20 -20 -13 0 -20 7 -20 20 0 17 -7 20 -40 20 l-40 0 0
-40 c0 -33 -3 -40 -20 -40 -13 0 -20 7 -20 20 0 13 -7 20 -20 20 -13 0 -20 7
-20 20 0 13 -7 20 -20 20 -18 0 -20 7 -20 60 0 53 2 60 20 60 18 0 20 -7 20
-60z"/>
<path d="M640 780 c0 -53 2 -60 20 -60 13 0 20 7 20 20 0 13 7 20 20 20 13 0
20 7 20 20 0 13 7 20 20 20 13 0 20 7 20 20 0 13 -7 20 -20 20 -13 0 -20 -7
-20 -20 0 -13 -7 -20 -20 -20 -13 0 -20 7 -20 20 0 13 -7 20 -20 20 -18 0 -20
-7 -20 -60z"/>
<path d="M800 540 c0 -13 -7 -20 -20 -20 -13 0 -20 -7 -20 -20 0 -17 7 -20 40
-20 33 0 40 -3 40 -20 0 -13 7 -20 20 -20 13 0 20 -7 20 -20 0 -13 7 -20 20
-20 13 0 20 7 20 20 0 17 7 20 40 20 33 0 40 -3 40 -20 0 -13 7 -20 20 -20 13
0 20 7 20 20 0 13 -7 20 -20 20 -13 0 -20 7 -20 20 0 18 -7 20 -60 20 -53 0
-60 2 -60 20 0 13 -7 20 -20 20 -13 0 -20 7 -20 20 0 13 -7 20 -20 20 -13 0
-20 -7 -20 -20z"/>
<path d="M400 660 c0 -13 7 -20 20 -20 13 0 20 7 20 20 0 13 -7 20 -20 20 -13
0 -20 -7 -20 -20z"/>
<path d="M1200 420 c0 -13 7 -20 20 -20 13 0 20 7 20 20 0 13 -7 20 -20 20
-13 0 -20 -7 -20 -20z"/>
<path d="M1080 1460 c0 -13 7 -20 20 -20 13 0 20 7 20 20 0 13 -7 20 -20 20
-13 0 -20 -7 -20 -20z"/>
<path d="M1200 1340 l0 -140 140 0 140 0 0 140 0 140 -140 0 -140 0 0 -140z
m240 0 l0 -100 -100 0 -100 0 0 100 0 100 100 0 100 0 0 -100z"/>
<path d="M1280 1340 l0 -60 60 0 60 0 0 60 0 60 -60 0 -60 0 0 -60z"/>
<path d="M1200 1120 l0 -40 40 0 40 0 0 -60 0 -60 40 0 c33 0 40 3 40 20 0 18
7 20 60 20 53 0 60 2 60 20 0 13 -7 20 -20 20 -13 0 -20 7 -20 20 0 13 7 20
20 20 13 0 20 7 20 20 0 13 -7 20 -20 20 -13 0 -20 -7 -20 -20 0 -13 -7 -20
-20 -20 -17 0 -20 7 -20 40 l0 40 -100 0 -100 0 0 -40z m120 -20 c0 -13 7 -20
20 -20 13 0 20 -7 20 -20 0 -13 -7 -20 -20 -20 -13 0 -20 7 -20 20 0 13 -7 20
-20 20 -13 0 -20 7 -20 20 0 13 7 20 20 20 13 0 20 -7 20 -20z"/>
<path d="M1160 1020 c0 -17 7 -20 40 -20 33 0 40 3 40 20 0 17 -7 20 -40 20
-33 0 -40 -3 -40 -20z"/>
<path d="M160 300 l0 -140 140 0 140 0 0 140 0 140 -140 0 -140 0 0 -140z
m240 0 l0 -100 -100 0 -100 0 0 100 0 100 100 0 100 0 0 -100z"/>
<path d="M240 300 l0 -60 60 0 60 0 0 60 0 60 -60 0 -60 0 0 -60z"/>
</g>
</svg>
