<svg width="22" height="22" viewBox="0 0 22 22" fill="none" xmlns="http://www.w3.org/2000/svg">
<path d="M7.24524 14.5438C7.24524 12.3438 9.92136 11.9908 9.92136 10.7777C9.92493 10.6623 9.90461 10.5473 9.86172 10.4403C9.81882 10.3333 9.75429 10.2366 9.67229 10.1564C9.59028 10.0762 9.49261 10.0142 9.38556 9.97456C9.2785 9.93488 9.16443 9.91833 9.05069 9.92599C8.83255 9.94972 8.62371 10.0283 8.44314 10.1545C8.26256 10.2807 8.11596 10.4506 8.01664 10.6488L7.24317 10.0988C7.41508 9.73661 7.68361 9.43033 8.01839 9.21465C8.35317 8.99897 8.74084 8.8825 9.13755 8.8784C9.37947 8.86172 9.62217 8.89634 9.85014 8.98007C10.0781 9.0638 10.2863 9.19478 10.4615 9.36465C10.6367 9.53452 10.7749 9.73954 10.8674 9.96661C10.96 10.1937 11.0047 10.4378 10.9988 10.6834C10.9988 12.6434 8.43543 12.9787 8.41372 14.131H11.0898V15.0885H7.29384C7.26659 14.9081 7.25036 14.7262 7.24524 14.5438ZM11.6741 12.8331L14.1413 8.98106H15.3749V12.5921H16.1163V13.5171H15.3749V15.0885H14.3512V13.5171H11.6741V12.8372V12.8331ZM14.3502 12.5921V10.7064C14.3527 10.4939 14.3662 10.2817 14.3905 10.0706H14.374C14.2961 10.2647 14.2017 10.4515 14.0917 10.6289L12.7702 12.5743V12.5911L14.3502 12.5921ZM19.3995 12.2684L19.1999 13.029C18.7387 15.0754 17.4954 16.8531 15.7425 17.9724C13.9897 19.0917 11.8703 19.4613 9.84898 19.0002C7.94023 18.4412 6.2991 17.1944 5.23464 15.4947C4.17018 13.795 3.75585 11.7597 4.06967 9.772L5.25263 10.124C5.31723 10.1405 5.38499 10.1395 5.4491 10.1211C5.5132 10.1027 5.5714 10.0676 5.61783 10.0191C5.66426 9.97073 5.69728 9.91078 5.71359 9.84532C5.72989 9.77987 5.7289 9.71122 5.71071 9.64628L4.42435 4.30357C4.41146 4.23728 4.38085 4.17585 4.33584 4.12599C4.29083 4.07613 4.23317 4.03975 4.16915 4.02084C4.10512 4.00192 4.0372 4.00118 3.97279 4.01871C3.90839 4.03624 3.84997 4.07136 3.80392 4.12024L0.112368 7.98166C0.0655126 8.03049 0.031659 8.09057 0.0139797 8.15627C-0.0036995 8.22197 -0.00462567 8.29115 0.011288 8.35731C0.0272017 8.42347 0.0594343 8.48446 0.104966 8.53456C0.150497 8.58465 0.207837 8.62222 0.271612 8.64374L1.559 9.02716C1.05794 11.7042 1.55164 14.4745 2.94513 16.805C4.33863 19.1355 6.5335 20.8618 9.10756 21.6517C14.588 23.1738 20.1781 19.5565 21.7002 13.7392L21.8905 13.0122C21.9182 12.9133 21.9069 12.8074 21.8591 12.7167C21.8112 12.6261 21.7306 12.5577 21.634 12.5261L19.8544 11.995C19.8068 11.9818 19.7571 11.9785 19.7082 11.9852C19.6593 11.9919 19.6122 12.0085 19.5698 12.034C19.5273 12.0595 19.4904 12.0934 19.4611 12.1337C19.4319 12.174 19.4109 12.2198 19.3995 12.2684ZM21.5089 8.94021L19.6414 9.19896C19.5416 9.21547 19.4521 9.27107 19.3924 9.35376C19.3326 9.43645 19.3073 9.53963 19.3219 9.64105L19.3953 10.2455C19.4001 10.2955 19.4146 10.344 19.4381 10.3883C19.4615 10.4326 19.4934 10.4717 19.5319 10.5034C19.5703 10.535 19.6147 10.5586 19.6622 10.5728C19.7098 10.587 19.7597 10.5915 19.8089 10.586L21.6764 10.3272C21.7763 10.3107 21.8657 10.2551 21.9255 10.1724C21.9853 10.0897 22.0106 9.98655 21.996 9.88514L21.9225 9.28068C21.9178 9.23068 21.9032 9.18214 21.8798 9.13787C21.8564 9.09361 21.8245 9.0545 21.786 9.02283C21.7475 8.99115 21.7032 8.96754 21.6556 8.95335C21.6081 8.93917 21.5582 8.9347 21.5089 8.94021ZM20.0706 5.17621L18.4295 6.162C18.3429 6.21654 18.2801 6.30255 18.2539 6.40243C18.2278 6.50232 18.2403 6.60855 18.2889 6.69941L18.5691 7.23054C18.5913 7.27501 18.6222 7.3144 18.66 7.34628C18.6978 7.37816 18.7417 7.40185 18.7889 7.41589C18.8361 7.42993 18.8856 7.43402 18.9344 7.42791C18.9832 7.42179 19.0303 7.4056 19.0727 7.38034L20.7137 6.39456C20.8004 6.34001 20.8632 6.25401 20.8893 6.15412C20.9154 6.05424 20.9029 5.94801 20.8544 5.85715L20.5741 5.32602C20.552 5.28097 20.5209 5.24105 20.4828 5.20879C20.4446 5.17652 20.4003 5.15259 20.3526 5.13852C20.305 5.12445 20.2549 5.12053 20.2056 5.12702C20.1564 5.13351 20.109 5.15025 20.0664 5.17621H20.0706ZM17.4151 2.26077L16.2404 3.83215C16.1791 3.9148 16.1509 4.01795 16.1617 4.12079C16.1724 4.22364 16.2212 4.31854 16.2983 4.38633L16.7451 4.76661C16.7824 4.79832 16.8258 4.82196 16.8725 4.83608C16.9192 4.8502 16.9683 4.8545 17.0167 4.84871C17.0651 4.84293 17.1119 4.82717 17.1541 4.80243C17.1963 4.77768 17.233 4.74446 17.2621 4.7048L18.4368 3.13341C18.4981 3.05077 18.5263 2.94762 18.5155 2.84477C18.5048 2.74192 18.4559 2.64703 18.3788 2.57923L17.9311 2.20315C17.8939 2.1707 17.8506 2.14634 17.8037 2.13159C17.7568 2.11685 17.7075 2.11203 17.6587 2.11743C17.6099 2.12283 17.5627 2.13835 17.5201 2.16301C17.4775 2.18766 17.4404 2.22094 17.411 2.26077H17.4151ZM13.9293 0.618143L13.3916 2.54257C13.3627 2.64107 13.3724 2.74712 13.4189 2.8385C13.4653 2.92988 13.5449 2.99952 13.6408 3.03284L14.1878 3.20674C14.2352 3.22098 14.285 3.22537 14.3341 3.21965C14.3832 3.21394 14.4307 3.19824 14.4736 3.17348C14.5166 3.14873 14.5542 3.11545 14.5842 3.07562C14.6141 3.03579 14.6358 2.99024 14.648 2.9417L15.1857 1.01728C15.2147 0.918768 15.2049 0.812724 15.1585 0.721342C15.112 0.629959 15.0325 0.560321 14.9365 0.527002L14.3895 0.353102C14.3418 0.338211 14.2917 0.333313 14.2421 0.338707C14.1925 0.344102 14.1445 0.359674 14.1011 0.384476C14.0576 0.409278 14.0196 0.44279 13.9894 0.482964C13.9592 0.523138 13.9373 0.569133 13.9252 0.618143H13.9293ZM10.1199 0.488241L10.2967 2.48809C10.2999 2.53835 10.3128 2.58748 10.3349 2.63262C10.3569 2.67777 10.3876 2.71803 10.4251 2.75107C10.4626 2.78411 10.5062 2.80927 10.5534 2.82509C10.6006 2.84091 10.6504 2.84707 10.7 2.84323L11.2687 2.78561C11.3687 2.77251 11.4596 2.72015 11.5219 2.63983C11.5842 2.5595 11.6128 2.45761 11.6017 2.3561L11.4249 0.356245C11.4217 0.305984 11.4088 0.256856 11.3867 0.211713C11.3647 0.166569 11.334 0.126309 11.2965 0.0932701C11.259 0.0602313 11.2154 0.0350722 11.1682 0.0192517C11.121 0.0034312 11.0712 -0.00273579 11.0216 0.00111076L10.4529 0.0587286C10.3523 0.0710771 10.2606 0.123106 10.1977 0.20352C10.1348 0.283935 10.1057 0.386243 10.1168 0.488241H10.1199ZM6.53898 1.88887L7.40552 3.66978C7.42617 3.71504 7.45574 3.75554 7.49241 3.7888C7.52908 3.82206 7.57209 3.84736 7.61877 3.86316C7.66545 3.87896 7.71483 3.88491 7.76387 3.88066C7.81291 3.87641 7.86057 3.86204 7.90393 3.83844L8.41061 3.55768C8.49913 3.50627 8.56484 3.42247 8.59427 3.3235C8.62369 3.22452 8.61459 3.11789 8.56882 3.02551L7.70229 1.2446C7.68164 1.19934 7.65207 1.15883 7.6154 1.12558C7.57872 1.09232 7.53572 1.06702 7.48904 1.05122C7.44236 1.03542 7.39298 1.02946 7.34394 1.03372C7.2949 1.03797 7.24723 1.05234 7.20388 1.07594L6.69719 1.35669C6.60868 1.40811 6.54296 1.49191 6.51354 1.59088C6.48412 1.68986 6.49322 1.79649 6.53898 1.88887Z" fill="#2B273C"/>
</svg>
