<svg width="12" height="16" viewBox="0 0 12 16" fill="none" xmlns="http://www.w3.org/2000/svg">
<path d="M4.70974 0.966H7.28319V1.416H8.2146V0.9C8.2146 0.661305 8.12318 0.432387 7.96044 0.263604C7.7977 0.0948212 7.57697 0 7.34683 0L4.64707 0C4.41692 0 4.1962 0.0948212 4.03346 0.263604C3.87072 0.432387 3.7793 0.661305 3.7793 0.9V1.413H4.71071L4.70974 0.966Z" fill="#FF453A"/>
<path d="M10.3696 5.24219H1.62823C1.57154 5.24213 1.51545 5.25427 1.46351 5.27785C1.41157 5.30142 1.36491 5.33592 1.32649 5.37915C1.28807 5.42239 1.25871 5.47342 1.24028 5.52902C1.22185 5.58463 1.21474 5.6436 1.21941 5.70219L1.95027 15.0742C1.96985 15.3258 2.07981 15.5606 2.25838 15.7321C2.43695 15.9036 2.6711 15.9992 2.91447 16.0002H9.07762C9.32099 15.9992 9.55515 15.9036 9.73372 15.7321C9.91228 15.5606 10.0222 15.3258 10.0418 15.0742L10.7727 5.70219C10.7774 5.6436 10.7702 5.58463 10.7518 5.52902C10.7334 5.47342 10.704 5.42239 10.6656 5.37915C10.6272 5.33592 10.5805 5.30142 10.5286 5.27785C10.4766 5.25427 10.4206 5.24213 10.3639 5.24219H10.3696ZM3.74464 15.0002H3.71572C3.59739 14.9999 3.4836 14.9529 3.39746 14.8688C3.31132 14.7847 3.25929 14.6697 3.25194 14.5472L2.79394 6.85318C2.78891 6.78914 2.79625 6.72472 2.81553 6.66367C2.83481 6.60261 2.86564 6.54615 2.90621 6.4976C2.94679 6.44906 2.9963 6.40939 3.05184 6.38094C3.10738 6.35248 3.16783 6.3358 3.22967 6.33188C3.2915 6.32795 3.35346 6.33686 3.41193 6.35808C3.4704 6.3793 3.5242 6.41241 3.57019 6.45546C3.61617 6.49851 3.65341 6.55065 3.67972 6.60881C3.70603 6.66697 3.72089 6.73 3.72343 6.79419L4.18046 14.4922C4.18706 14.6193 4.14497 14.7441 4.06335 14.8392C3.98173 14.9343 3.86719 14.9922 3.74464 15.0002ZM6.46947 14.5182C6.46947 14.6463 6.4204 14.7691 6.33306 14.8597C6.24573 14.9503 6.12727 15.0012 6.00376 15.0012C5.88024 15.0012 5.76179 14.9503 5.67445 14.8597C5.58712 14.7691 5.53805 14.6463 5.53805 14.5182V6.82419C5.53805 6.69609 5.58712 6.57323 5.67445 6.48265C5.76179 6.39207 5.88024 6.34119 6.00376 6.34119C6.12727 6.34119 6.24573 6.39207 6.33306 6.48265C6.4204 6.57323 6.46947 6.69609 6.46947 6.82419V14.5182ZM9.20393 6.85219L8.76715 14.5462C8.76003 14.669 8.70796 14.7844 8.62159 14.8688C8.53522 14.9531 8.42106 15.0002 8.30241 15.0002H8.27444C8.1512 14.9927 8.03587 14.9348 7.95378 14.8392C7.8717 14.7435 7.82959 14.618 7.8367 14.4902L8.27348 6.79619C8.28375 6.67068 8.34089 6.55429 8.43271 6.47185C8.52453 6.38941 8.64377 6.34744 8.76501 6.35487C8.88625 6.36231 8.99989 6.41857 9.0817 6.51166C9.16352 6.60475 9.20703 6.72729 9.20297 6.85318L9.20393 6.85219Z" fill="#FF453A"/>
<path d="M11.9799 3.75186L11.6742 2.80086C11.6349 2.67849 11.5595 2.57206 11.4586 2.49667C11.3577 2.42128 11.2365 2.38076 11.1121 2.38086H0.885816C0.761623 2.38097 0.64061 2.4216 0.539903 2.49697C0.439195 2.57235 0.363893 2.67865 0.324653 2.80086L0.019002 3.75186C0.000180384 3.81173 -0.00474886 3.87535 0.00461533 3.93756C0.0139795 3.99977 0.0373726 4.05882 0.0728912 4.10989C0.10841 4.16095 0.155051 4.2026 0.209019 4.23144C0.262987 4.26028 0.322758 4.2755 0.383469 4.27586H11.6164C11.6884 4.276 11.759 4.25483 11.8198 4.21486C11.8926 4.16734 11.9479 4.09597 11.9771 4.01209C12.0063 3.9282 12.0076 3.83661 11.9808 3.75186H11.9799Z" fill="#FF453A"/>
</svg>
