<svg xmlns="http://www.w3.org/2000/svg" width="18" height="18" viewBox="0 0 18 18"><defs><style>.a{fill:#fff;stroke:#707070;opacity:0;}.b{fill:#007aff;}.c{stroke:none;}.d{fill:none;}</style></defs><g transform="translate(-1437 -171)"><g class="a" transform="translate(1437 171)"><rect class="c" width="18" height="18"/><rect class="d" x="0.5" y="0.5" width="17" height="17"/></g><g transform="translate(1438.5 171.75)"><g transform="translate(0 5.304)"><g transform="translate(0)"><path class="b" d="M30.621,153.6H27.674a.589.589,0,0,0,0,1.179h2.946a.589.589,0,0,1,.589.589v7.661a.589.589,0,0,1-.589.589H18.835a.589.589,0,0,1-.589-.589v-7.661a.589.589,0,0,1,.589-.589h2.946a.589.589,0,1,0,0-1.179H18.835a1.768,1.768,0,0,0-1.768,1.768v7.661a1.768,1.768,0,0,0,1.768,1.768H30.621a1.768,1.768,0,0,0,1.768-1.768v-7.661A1.768,1.768,0,0,0,30.621,153.6Z" transform="translate(-17.067 -153.6)"/></g></g><g transform="translate(4.132)"><path class="b" d="M143.62,8.423a.589.589,0,0,0-.819,0l-1.942,1.94V.589a.589.589,0,0,0-1.179,0v9.774l-1.941-1.941a.589.589,0,0,0-.833.833l2.946,2.946a.589.589,0,0,0,.833,0h0l2.946-2.946A.589.589,0,0,0,143.62,8.423Z" transform="translate(-136.742)"/></g></g></g></svg>