<svg xmlns="http://www.w3.org/2000/svg"   viewBox="0 0 24 24"><defs><style>.a{fill:rgba(0,122,255,0.1);}.b{fill:#387dff;}</style></defs><rect class="a" width="24" height="24" rx="2"/><g transform="translate(5 5)"><g transform="translate(0 0)"><g transform="translate(0)"><path class="b" d="M13.84,3.049,10.954.164a.558.558,0,0,0-.789,0L1.08,9.23A.558.558,0,0,0,.931,9.5L.019,13.312a.558.558,0,0,0,.673.673l3.816-.912a.557.557,0,0,0,.265-.149L13.84,3.839A.558.558,0,0,0,13.84,3.049ZM4.1,12.023l-2.778.664.664-2.778,8.578-8.561,2.1,2.1Z" transform="translate(-0.004 0)"/></g></g><g transform="translate(8.02 2.286)"><g transform="translate(0 0)"><rect class="b" width="1.117" height="4.107" transform="translate(0 0.79) rotate(-45)"/></g></g><g transform="translate(2.491 3.738)"><g transform="translate(0 0)"><rect class="b" width="9.872" height="1.117" transform="translate(0 6.981) rotate(-45)"/></g></g><g transform="translate(1.057 9.267)"><g transform="translate(0 0)"><rect class="b" width="1.117" height="4.081" transform="translate(0 0.79) rotate(-45)"/></g></g></g></svg>