<svg xmlns="http://www.w3.org/2000/svg" width="18" height="18" viewBox="0 0 18 18">
    <defs>
        <style>.a,.b{fill:rgba(43,39,60,0.5);}.a{stroke:#707070;opacity:0;}.c{stroke:none;}.d{fill:none;}</style>
    </defs>

    <g transform="translate(-2.252 -3.5)">
        <path class="b"
              d="M5.479,4.664a.571.571,0,0,0-.808.808L18.957,19.766a.566.566,0,0,0,.551.145.557.557,0,0,0,.257-.149.57.57,0,0,0,0-.8Z"
              transform="translate(-0.966)"/>
        <g transform="translate(2.252 6.428)">
            <path class="b"
                  d="M11.421,18.841a3.613,3.613,0,0,1-3.436-5.16l-2.146-2.15A28.188,28.188,0,0,0,2.42,14.8a.635.635,0,0,0,0,.856c2.608,2.881,4.907,5.361,8.829,5.361a7.737,7.737,0,0,0,3.307-.772L12.8,18.5A3.651,3.651,0,0,1,11.421,18.841Z"
                  transform="translate(-2.252 -9.442)"/>
            <path class="b"
                  d="M24.356,14.063a.63.63,0,0,0,.02-.832c-2.1-2.552-5.015-5.357-8.861-5.357a7.522,7.522,0,0,0-3.3.764l1.756,1.756a3.541,3.541,0,0,1,1.378-.346,3.613,3.613,0,0,1,3.436,5.16l2.15,2.15A26.581,26.581,0,0,0,24.356,14.063Z"
                  transform="translate(-6.523 -7.875)"/>
            <path class="b"
                  d="M13.509,17.637A2.582,2.582,0,0,0,15.875,20a2.512,2.512,0,0,0,.94-.1l-3.207-3.207A2.629,2.629,0,0,0,13.509,17.637Z"
                  transform="translate(-7.072 -11.653)"/>
            <path class="b"
                  d="M21.855,17.883c0-.052,0-.1,0-.157a1.782,1.782,0,0,1-.731.157c-.044,0-.084,0-.125,0l.747.751A2.569,2.569,0,0,0,21.855,17.883Z"
                  transform="translate(-10.283 -12.096)"/>
            <path class="b"
                  d="M17.443,14.183a1.888,1.888,0,0,1,.125-.679c-.04,0-.08,0-.125,0a2.542,2.542,0,0,0-.743.113l.751.751C17.447,14.3,17.443,14.243,17.443,14.183Z"
                  transform="translate(-8.442 -10.285)"/>
        </g>
    </g>
</svg>