<svg width="19" height="12" viewBox="0 0 19 12" fill="none" xmlns="http://www.w3.org/2000/svg">
<path d="M8.98891 0C5.75891 0 3.21191 2.10856 0.165915 5.55402C0.0591745 5.67535 0 5.83368 0 5.99793C0 6.16218 0.0591745 6.3205 0.165915 6.44183C2.77291 9.42991 5.07092 12 8.99292 12C12.8659 12 15.7709 8.76197 17.8359 6.4159C17.9398 6.29918 17.9992 6.14718 18.0029 5.98836C18.0065 5.82953 17.9543 5.67475 17.8559 5.55298C15.7469 2.90821 12.8339 0 8.98891 0ZM9.16591 9.74935C8.43713 9.78473 7.71507 9.59063 7.0946 9.19255C6.47413 8.79447 5.98427 8.21104 5.68939 7.5189C5.3945 6.82676 5.30838 6.05829 5.44234 5.31445C5.5763 4.57062 5.92407 3.88621 6.43997 3.35114C6.95587 2.81607 7.61575 2.45537 8.33293 2.31643C9.05012 2.1775 9.79105 2.26682 10.4584 2.57266C11.1257 2.8785 11.6882 3.38656 12.0721 4.03009C12.4559 4.67362 12.643 5.42252 12.6089 6.17839C12.5659 7.11077 12.1892 7.99301 11.5525 8.65277C10.9159 9.31253 10.0649 9.7024 9.16591 9.74624V9.74935Z" fill="#007AFF"/>
<path d="M8.99671 4.04237C8.99675 3.80006 9.04016 3.55986 9.12471 3.33398C9.08471 3.33398 9.04471 3.33398 8.99971 3.33398C8.49122 3.33398 7.99414 3.49037 7.57134 3.78338C7.14854 4.07638 6.81901 4.49284 6.62442 4.98009C6.42983 5.46734 6.37891 6.00349 6.47811 6.52075C6.57732 7.03801 6.82218 7.51315 7.18174 7.88607C7.5413 8.259 7.99941 8.51296 8.49813 8.61585C8.99686 8.71874 9.5138 8.66593 9.98359 8.46411C10.4534 8.26228 10.8549 7.9205 11.1374 7.48199C11.4199 7.04348 11.5707 6.52793 11.5707 6.00053C11.5707 5.9466 11.5707 5.89682 11.5707 5.8377C11.3409 5.94498 11.0917 6.00048 10.8397 6.00053C10.5947 5.99756 10.3527 5.94454 10.1274 5.8445C9.90219 5.74447 9.69816 5.59938 9.527 5.41753C9.35585 5.23568 9.22092 5.02063 9.12993 4.78467C9.03894 4.54872 8.99367 4.29648 8.99671 4.04237Z" fill="#007AFF"/>
</svg>
