<svg width="32" height="32" viewBox="0 0 32 32" fill="none" xmlns="http://www.w3.org/2000/svg">
<rect width="32" height="32" rx="4" fill="white"/>
<g clip-path="url(#clip0_350_8368)">
<path d="M17.6203 27.9531H13.7694C13.1262 27.9531 12.603 27.4309 12.603 26.7889V18.12H10.3563C9.71306 18.12 9.18982 17.5976 9.18982 16.9558V13.2412C9.18982 12.5992 9.71306 12.077 10.3563 12.077H12.603V10.2168C12.603 8.37238 13.1833 6.80316 14.2809 5.67908C15.3836 4.54987 16.9245 3.95312 18.7371 3.95312L21.674 3.95789C22.3161 3.95898 22.8384 4.4812 22.8384 5.12207V8.57105C22.8384 9.21301 22.3154 9.73523 21.6723 9.73523L19.695 9.73596C19.0919 9.73596 18.9384 9.85663 18.9055 9.89362C18.8514 9.95496 18.787 10.1284 18.787 10.6072V12.0768H21.5237C21.7298 12.0768 21.9294 12.1275 22.1009 12.2231C22.4709 12.4294 22.701 12.8196 22.701 13.2413L22.6995 16.956C22.6995 17.5976 22.1763 18.1198 21.5331 18.1198H18.787V26.7889C18.787 27.4309 18.2636 27.9531 17.6203 27.9531V27.9531ZM14.0127 26.5461H17.3771V17.4901C17.3771 17.0615 17.7266 16.7128 18.1559 16.7128H21.2898L21.2911 13.4839H18.1557C17.7264 13.4839 17.3771 13.1353 17.3771 12.7067V10.6072C17.3771 10.0575 17.433 9.43237 17.8488 8.96252C18.3511 8.39453 19.1427 8.32898 19.6946 8.32898L21.4287 8.32825V5.3645L18.736 5.36011C15.823 5.36011 14.0127 7.22119 14.0127 10.2168V12.7067C14.0127 13.1351 13.6634 13.4839 13.2341 13.4839H10.5996V16.7128H13.2341C13.6634 16.7128 14.0127 17.0615 14.0127 17.4901V26.5461ZM21.6712 5.36487H21.6714H21.6712Z" fill="#FF9900"/>
</g>
<defs>
<clipPath id="clip0_350_8368">
<rect width="24" height="24" fill="white" transform="translate(4 4)"/>
</clipPath>
</defs>
</svg>
