<svg xmlns="http://www.w3.org/2000/svg" xmlns:xlink="http://www.w3.org/1999/xlink" width="63.001" height="63.001" viewBox="0 0 63.001 63.001"><defs><style>.a{fill:#ff453a;}.b{fill:#fff;font-size:18px;font-family:Poppins-SemiBold, Poppins;font-weight:600;}.c{filter:url(#c);}.d{filter:url(#a);}</style><filter id="a" x="0" y="0" width="63.001" height="63.001" filterUnits="userSpaceOnUse"><feOffset dy="3" input="SourceAlpha"/><feGaussianBlur stdDeviation="3" result="b"/><feFlood flood-opacity="0.161"/><feComposite operator="in" in2="b"/><feComposite in="SourceGraphic"/></filter><filter id="c" x="19" y="10.001" width="25" height="43" filterUnits="userSpaceOnUse"><feOffset dy="3" input="SourceAlpha"/><feGaussianBlur stdDeviation="3" result="d"/><feFlood flood-opacity="0.161"/><feComposite operator="in" in2="d"/><feComposite in="SourceGraphic"/></filter></defs><g transform="translate(-19975 -1692)"><g class="d" transform="matrix(1, 0, 0, 1, 19975, 1692)"><path class="a" d="M22.85,45H22.5A22.5,22.5,0,1,1,45,22.5c0,.074,0,.147,0,.221,0,.043,0,.086,0,.129V37a8,8,0,0,1-8,8Z" transform="translate(9 6)"/></g><g class="c" transform="matrix(1, 0, 0, 1, 19975, 1692)"><text class="b" transform="translate(28 35)"><tspan x="0" y="0">1</tspan></text></g></g></svg>