<svg xmlns="http://www.w3.org/2000/svg"   viewBox="0 0 50.001 50"><defs><style>.a,.b{fill:#2b273c;}.a{stroke:#707070;opacity:0;}.c{stroke:none;}.d{fill:none;}</style></defs><g transform="translate(-1300.999 -219)"><g class="a" transform="translate(1300.999 219)"><rect class="c" width="50" height="50"/><rect class="d" x="0.5" y="0.5" width="49" height="49"/></g><g transform="translate(1301 132.375)"><g transform="translate(0 121)"><path class="b" d="M49.846,352.494a1.049,1.049,0,0,0-.888-.494H1.042a1.041,1.041,0,0,0-.931,1.506,8.529,8.529,0,0,0,7.673,4.744H42.217a8.541,8.541,0,0,0,7.675-4.742A1.052,1.052,0,0,0,49.846,352.494Z" transform="translate(0 -352)"/></g><g transform="translate(4.294 96)"><path class="b" d="M67.529,100.383a3.125,3.125,0,1,0-5.713,0,20.786,20.786,0,0,0-17.85,18.533h41.41A20.792,20.792,0,0,0,67.529,100.383ZM63.7,106.415a14.547,14.547,0,0,0-12.781,9.692,1.044,1.044,0,0,1-.983.7,1.058,1.058,0,0,1-.346-.058,1.045,1.045,0,0,1-.638-1.329,16.623,16.623,0,0,1,14.61-11.079,1.057,1.057,0,0,1,1.108.971A1.041,1.041,0,0,1,63.7,106.415Z" transform="translate(-43.966 -96)"/></g></g></g></svg>