<svg xmlns="http://www.w3.org/2000/svg" xmlns:xlink="http://www.w3.org/1999/xlink" width="164" height="34" viewBox="0 0 164 34"><defs><style>.a{fill:#fff;}.b{clip-path:url(#a);}.c{fill:#f90;}.d{fill:#74c51d;}.e{fill:#61a31a;}.f{fill:#feca00;}</style><clipPath id="a"><rect class="a" width="164" height="34" transform="translate(15677 5531)"/></clipPath></defs><g class="b" transform="translate(-15677 -5531)"><g transform="translate(15679 5533)"><g transform="translate(0 0)"><path class="a" d="M0,16.626H4.2v1.28h.046a5.046,5.046,0,0,1,3.49-1.636,4.607,4.607,0,0,1,4.255,2.23,5.347,5.347,0,0,1,4.037-2.23c2.23,0,4.749,1.115,4.749,4.512V28.81H16.57V21.923a2.063,2.063,0,0,0-2.131-2.282,1.88,1.88,0,0,0-1.979,1.9V28.8H8.285V21.923a2.065,2.065,0,0,0-2.137-2.282A1.887,1.887,0,0,0,4.2,21.686V28.81H0Z" transform="translate(0 -5.538)"/><path class="a" d="M38.5,23.312a2.493,2.493,0,0,0,2.639,2.52A3.406,3.406,0,0,0,44.1,24.512l3.034,1.517c-1.372,2.3-3.608,3.186-6.313,3.186a6.6,6.6,0,0,1-6.7-6.438,6.6,6.6,0,0,1,6.7-6.458c3.7,0,6.53,2.183,6.53,6.458a3.9,3.9,0,0,1,0,.567Zm4.782-2.322a2.164,2.164,0,0,0-2.3-1.979,2.1,2.1,0,0,0-2.329,1.979Z" transform="translate(-11.616 -5.554)"/><path class="a" d="M57.1,16.626h4.2v1.28h.046a5.033,5.033,0,0,1,3.49-1.636c2.23,0,5.343,1.115,5.343,4.512V28.81h-4.2V21.923A2.249,2.249,0,0,0,63.8,19.548,2.586,2.586,0,0,0,61.3,21.923V28.81H57.1Z" transform="translate(-19.434 -5.538)"/><path class="a" d="M84.735,22.6c0,2.4.66,3.3,2.4,3.3s2.395-.924,2.395-3.3V16.81h4.2v6.814c0,4.083-2.038,5.726-6.6,5.726s-6.6-1.643-6.6-5.726V16.81h4.2Z" transform="translate(-27.412 -5.721)"/><path class="c" d="M104.493,16.626h4.2v1.28h.079a5.046,5.046,0,0,1,3.49-1.636,4.59,4.59,0,0,1,4.248,2.23,5.368,5.368,0,0,1,4.037-2.23c2.236,0,4.749,1.115,4.749,4.512V28.81h-4.2V21.923a2.065,2.065,0,0,0-2.137-2.282,1.873,1.873,0,0,0-1.979,1.9V28.8h-4.2V21.923a2.065,2.065,0,0,0-2.137-2.282,1.887,1.887,0,0,0-1.979,2.045V28.81h-4.2Z" transform="translate(-35.554 -5.538)"/><path class="c" d="M144.686,16.269a5.554,5.554,0,0,1,3.991,1.517V16.625h4.2V28.808h-4.156V27.43h-.046a5.409,5.409,0,0,1-3.991,1.735,6.115,6.115,0,0,1-6.056-6.438C138.63,19.164,141.123,16.269,144.686,16.269Zm1.26,9.308a2.738,2.738,0,0,0,2.823-2.85,2.836,2.836,0,1,0-5.673,0,2.718,2.718,0,0,0,2.85,2.85Z" transform="translate(-47.183 -5.536)"/><path class="c" d="M164.543,16.626h4.209v1.28h.046a5.033,5.033,0,0,1,3.49-1.636c2.23,0,5.343,1.115,5.343,4.512V28.81h-4.215V21.923a2.249,2.249,0,0,0-2.183-2.375,2.586,2.586,0,0,0-2.493,2.375V28.81H164.53Z" transform="translate(-55.999 -5.538)"/><path class="c" d="M190.8,30.115a3.681,3.681,0,0,0,3.3,1.563,2.8,2.8,0,0,0,2.962-2.85v-.9c-.9,1-2.322,1.24-3.958,1.24a6.115,6.115,0,0,1-6.056-6.438c0-3.562,2.493-6.458,6.056-6.458a5.554,5.554,0,0,1,3.918,1.451h.066v-1.1H201.3V29.158c0,4.083-3.021,6.194-7.17,6.194-2.546,0-5.462-.567-6.748-3.536Zm3.536-4.538a2.738,2.738,0,0,0,2.83-2.85,2.836,2.836,0,0,0-5.673,0,2.711,2.711,0,0,0,2.843,2.85Z" transform="translate(-63.663 -5.536)"/><path class="d" d="M237.743,2.553c-.106.488-.851,4.063-3.833,5.145a6.392,6.392,0,0,1-3.483.066c-.732-.125-1.168-.3-1.385-.66a1.88,1.88,0,0,1-.079-1.247,5.939,5.939,0,0,1,.455-1.735,5.633,5.633,0,0,1,3.5-3.008c1.405-.35,2.051.237,3.6-.369A5.673,5.673,0,0,0,237.842,0a7.725,7.725,0,0,1-.1,2.553Z" transform="translate(-77.905 0)"/><path class="e" d="M235.879,3.3a5.64,5.64,0,0,1-1.372,1.148,12.87,12.87,0,0,1-2.474.877c-1.247.515-2.137,1.372-3.879,3.166a13.814,13.814,0,0,1-1.689,1.7c-.033,0,.04-.165.092-.251a15.536,15.536,0,0,1,1.781-2.395,8.08,8.08,0,0,1,1.319-1.359l.152-.112a7.837,7.837,0,0,1,1.92-1.214c1.062-.449,1.4-.27,2.309-.6a5.785,5.785,0,0,0,2.309-1.61,5.934,5.934,0,0,1-.468.646Z" transform="translate(-77.076 -0.902)"/><path class="c" d="M224.063,24.728c-2.051,2.467-6.049,4.961-8.932,3.806-3.7-1.491-3.694-8.252-1.735-12.533.561-1.214,1.761-3.813,4.347-4.69,3.127-1.055,6.722.924,8.186,3.694C228.3,19.5,224.281,24.471,224.063,24.728Z" transform="translate(-72.186 -3.752)"/><path class="f" d="M226.417,22.814c-1.319,4.7-7.691,6.471-7.757,6.359s4.189-1.445,5.937-5.2c1.484-3.212.508-6.821-.475-9.275C224.926,15.755,227.406,19.238,226.417,22.814Z" transform="translate(-74.422 -5.003)"/></g></g></g></svg>