<svg xmlns="http://www.w3.org/2000/svg" xmlns:xlink="http://www.w3.org/1999/xlink" width="150" height="150" viewBox="0 0 150 150"><defs><style>.a{fill:#fff;}.b{clip-path:url(#a);}.c{fill:#f2f2f2;}.d{fill:#fbbebe;}.e{fill:#2f2e41;}.f{fill:#ff453a;}.g{opacity:0.1;}.h{fill:#7f7f89;}.i{fill:#3f3d56;}.j{fill:#ffb8b8;}.k{fill:#353446;}</style><clipPath id="a"><rect class="a" width="150" height="150" transform="translate(18562 -2766)"/></clipPath></defs><g class="b" transform="translate(-18562 2766)"><g transform="translate(18566 -2766)"><path class="c" d="M152.76,143.735a29.032,29.032,0,0,1-.851,7.006q-.286,1.158-.665,2.269a26.8,26.8,0,0,1-1.073,2.685q-.307.664-.648,1.3a17.511,17.511,0,0,1-1.464,7.036,18.139,18.139,0,0,1-8.8,9.07,18.517,18.517,0,0,1-7.859,1.8H37.969a23.54,23.54,0,0,1-11.84-3.165l-.055-.031q-.769-.45-1.5-.953a23.507,23.507,0,0,1-3.076-2.536,22.892,22.892,0,0,1-3.382-4.19A22.358,22.358,0,0,1,14.679,152.1a28.151,28.151,0,0,1-3.609-13.94,27.625,27.625,0,0,1,5.583-16.908,23.768,23.768,0,0,1,2.371-2.638,22.06,22.06,0,0,1,2.711-2.219,21.1,21.1,0,0,1,2.406-1.444c.348-.177.7-.344,1.051-.5.312-.138.627-.267.946-.389q.574-.218,1.162-.4t1.161-.32q.842-.206,1.713-.334c.481-.071.962-.12,1.444-.158.383-.029.769-.045,1.157-.049h.211c.428,0,.854.017,1.276.046.045-.089.093-.179.137-.267.168-.321.343-.641.518-.954a.03.03,0,0,1,0-.008c.03-.055.06-.109.091-.162.142-.256.29-.51.441-.761.07-.12.138-.233.209-.346a.922.922,0,0,1,.049-.082q.108-.18.22-.361.557-.89,1.158-1.749l.1-.147c.063-.089.12-.176.19-.265.166-.232.337-.466.509-.694.12-.164.241-.326.371-.481q.469-.6.962-1.2t1.025-1.187c.048-.054.1-.107.147-.16l.514-.561h0c.025-.026.047-.051.071-.075h0c.061-.066.12-.132.186-.2.275-.292.558-.579.842-.864A45.855,45.855,0,0,1,46.614,98.3c.064-.051.129-.1.192-.147.306-.23.616-.457.926-.681a48.756,48.756,0,0,1,5.342-3.332c.128-.073.257-.142.389-.209a51.008,51.008,0,0,1,5.111-2.353c.952-.377,1.925-.73,2.9-1.054.652-.214,1.306-.417,1.969-.609q1.554-.447,3.13-.8a55.74,55.74,0,0,1,9.412-1.282q1.444-.073,2.92-.076a55.938,55.938,0,0,1,14.075,1.78.508.508,0,0,0,.437.227h.4c.176.048.35.1.526.147q1.471.423,2.9.925l.241.087a51.783,51.783,0,0,1,6.846,3.007,49.406,49.406,0,0,1,5.732,3.542q.422.3.832.611.5-.319,1.013-.611a19.922,19.922,0,0,1,4.2-1.789,19.139,19.139,0,0,1,9.412-.368,20.826,20.826,0,0,1,10.545,5.947,24.6,24.6,0,0,1,3.163,4.016c.066.1.132.208.2.314a26.461,26.461,0,0,1,2.014,4.014c.02.052.041.1.059.15a27.8,27.8,0,0,1,1.239,4.012c.014.07.031.138.046.208a28.885,28.885,0,0,1,.592,4.014.78.78,0,0,0,.01.148q.076,1.048.077,2.117c0,.638-.022,1.27-.061,1.9,0,.069-.01.14-.016.211-.011.182-.026.361-.042.544a22.834,22.834,0,0,1,2.572,2.426q.526.574,1.018,1.191a25.332,25.332,0,0,1,2.622,4.014A28.171,28.171,0,0,1,152.76,143.735Z" transform="translate(-11.07 -31.448)"/><path class="d" d="M237.145,650.138h2.625l1.249-10.126h-3.875Z" transform="translate(-169.863 -502.957)"/><path class="e" d="M548.14,783.065h5.17a3.3,3.3,0,0,1,3.295,3.295v.107H548.14Z" transform="translate(-481.527 -636.741)"/><path class="d" d="M79.05,632.215l2.25,1.352,6.286-8.037-3.321-2Z" transform="translate(-45.623 -490.009)"/><path class="e" d="M384.371,761.712l1.752-2.916,4.432,2.663a3.3,3.3,0,0,1,1.127,4.521l-.055.092Z" transform="translate(-352.828 -617.669)"/><path class="e" d="M429,617.7c-.53-.539-1.845-9.4-3.792-22.845-.677-4.677-1.318-9.1-1.845-12.494-4.517,9.93-11.82,20.671-20.6,30.287l-.051.055-.069-.029a46.521,46.521,0,0,1-4.592-2.071c-.377-.193-.82-.421-1.411-.716l-.033-.025c-.271-.31,2.2-4.416,10.851-18.376,3.768-6.082,7.663-12.37,10.244-16.736l.024-.041.046-.01a19.246,19.246,0,0,1,16.935,4.3l.038.033v.05c-.126,5.12-.02,13.159.073,20.252.183,13.848.171,17.894-.26,18.022l-.022,0c-.632.052-1.157.1-1.641.151a35.251,35.251,0,0,1-3.822.22h-.045Z" transform="translate(-362.434 -472.641)"/><path class="e" d="M471.482,361.123c-.389-1.606-2.207-3.934,1.534-12.185-.575-9.5,1.8-12.265,2.733-14.147,1.156-2.332,5.435-3.117,7.887-2.277a8.47,8.47,0,0,1,5.005,5.6c.78,2.485-.151,13.334-.491,15.917C483.641,353.949,475.738,360.9,471.482,361.123Z" transform="translate(-422.746 -282.416)"/><circle class="d" cx="5.26" cy="5.26" r="5.26" transform="translate(55.322 52.981)"/><ellipse class="d" cx="2.191" cy="5.26" rx="2.191" ry="5.26" transform="translate(58.565 58.679)"/><path class="e" d="M489.945,341.975a6.606,6.606,0,1,1,13.2.174C498.647,342.159,494.146,342.168,489.945,341.975Z" transform="translate(-435.793 -284.818)"/><path class="f" d="M491.186,445.046c-.97-3.309-1.453-5.624-2.011-8.3-.765-3.666-1.632-7.821-4.02-15.912l-.006-.02,0-.021a23.869,23.869,0,0,0-7.692-19.431,1.877,1.877,0,0,0-2.562.13,25.383,25.383,0,0,0-5.859,9.807l-.019.069c1.273,4.1,2.7,8.214,4.076,12.2l.02.057-.039.046a34.987,34.987,0,0,0-7.843,22.811,45.969,45.969,0,0,1,15.371-2.573,49.8,49.8,0,0,1,10.57,1.137Z" transform="translate(-416.369 -336.431)"/><path class="g" d="M186.941,382.463l7.768,16.912,4.438-4.492Z" transform="translate(-130.41 -300.561)"/><path class="h" d="M596.592,117.008c.074-9.461-6.1-17.18-13.785-17.24s-13.979,7.561-14.053,17.022c-.067,8.578,5,15.723,11.675,17.027l-.461,2.762,5.1.04-.418-2.769C591.348,132.651,596.525,125.586,596.592,117.008Z" transform="translate(-497.727 -99.768)"/><path class="a" d="M581.915,160.3l-1.927-.015a31.373,31.373,0,0,1,.085-10.921l1.927.015A24.137,24.137,0,0,0,581.915,160.3Z" transform="translate(-506.211 -138.742)"/><rect class="i" width="5.782" height="1.285" transform="translate(81.924 34.026) rotate(0.447)"/><path class="f" d="M721.741,137.822c.749-9.432-4.856-17.571-12.519-18.18s-14.483,6.544-15.232,15.976c-.679,8.551,3.865,16.039,10.43,17.817l-.657,2.722,5.086.4-.219-2.792C715.393,153.051,721.062,146.373,721.741,137.822Z" transform="translate(-596.091 -115.358)"/><path class="a" d="M706.928,176.54l-1.921-.153a31.37,31.37,0,0,1,.865-10.887l1.921.153A24.136,24.136,0,0,0,706.928,176.54Z" transform="translate(-604.689 -151.424)"/><rect class="i" width="5.782" height="1.285" transform="matrix(0.997, 0.079, -0.079, 0.997, 107.553, 37.997)"/><rect class="i" width="80.548" height="0.642" transform="matrix(0.522, -0.853, 0.853, 0.522, 68.154, 107.176)"/><path class="h" d="M775.63,163.432c4.452-8.349,2.561-18.049-4.222-21.666s-15.891.219-20.343,8.568c-4.036,7.569-2.859,16.249,2.451,20.5l-1.689,2.234,4.5,2.4.914-2.647C763.731,174.861,771.594,171,775.63,163.432Z" transform="translate(-639.103 -131.702)"/><path class="a" d="M763.2,176.962l-1.7-.907a31.372,31.372,0,0,1,5.139-9.637l1.7.907A24.138,24.138,0,0,0,763.2,176.962Z" transform="translate(-649.198 -152.145)"/><rect class="i" width="5.782" height="1.285" transform="translate(113.734 38.749) rotate(28.067)"/><rect class="i" width="80.548" height="0.642" transform="matrix(0.588, -0.809, 0.809, 0.588, 68.21, 105.851)"/><rect class="i" width="80.548" height="0.642" transform="translate(71.083 113.951) rotate(-79.929)"/><path class="j" d="M551.333,535.194a2.153,2.153,0,0,1-1.939-2.673l-6.4-4.194,3.651-1.577,5.519,4.224a2.165,2.165,0,0,1-.829,4.219Z" transform="translate(-477.482 -435.315)"/><path class="f" d="M509.3,435.243c-3.828-4.4-7.786-8.957-11.389-13.535l-.023-.031v-.037a117.843,117.843,0,0,1,.476-11.927,3.422,3.422,0,0,1-.907-2.8,3.8,3.8,0,0,1,1.666-2.834,4.444,4.444,0,0,1,5.783,1.321,5.237,5.237,0,0,1,.112,5.612l-1.042,8.17-.092-.007.02.01.007-.006.013.016.032.016-.007.015c3.38,4.127,6.875,8.393,10.366,12.477l.077.091-.1.067c-1.635,1.121-3.327,2.281-4.85,3.4l-.081.057Z" transform="translate(-441.677 -338.46)"/><path class="i" d="M395.925,798.66H314.336a.214.214,0,1,1,0-.428h81.589a.214.214,0,0,1,0,.428Z" transform="translate(-297.623 -648.66)"/><path class="c" d="M492.715,480.274Z" transform="translate(-370.704 -377.426)"/><path class="k" d="M816.042,576.817l-.13.408-8.069-2.56c.715.945,3.112,3.9,5.6,4.547,2.975.777,4.507-.309,4.956-2.026s-.357-3.413-3.332-4.19c-2.522-.659-6.115.788-7.151,1.244Z" transform="translate(-685.617 -471.524)"/><path class="c" d="M350.832,578.73h0Z" transform="translate(-259.204 -454.799)"/><path class="k" d="M656.364,688.067l-.428.022-.428-8.454c-.635,1-2.559,4.28-2.3,6.84.314,3.059,1.868,4.113,3.633,3.932s3.072-1.53,2.758-4.589c-.266-2.593-2.879-5.451-3.67-6.262Z" transform="translate(-564.08 -555.398)"/><path class="c" d="M63.981,131.667Z" transform="translate(-33.781 -103.471)"/><path class="k" d="M334.91,198.765l.255-.344,6.8,5.043c-.369-1.126-1.677-4.7-3.821-6.12-2.561-1.7-4.363-1.172-5.345.305s-.772,3.344,1.79,5.046c2.171,1.442,6.039,1.242,7.167,1.147Z" transform="translate(-311.872 -175.616)"/></g></g></svg>