<svg xmlns="http://www.w3.org/2000/svg" width="45" height="45" viewBox="0 0 45 45"><defs><style>.a{fill:#54c762;}</style></defs><path class="a" d="M25.875,3.375a22.5,22.5,0,1,0,22.5,22.5A22.5,22.5,0,0,0,25.875,3.375ZM37.4,19.655,22.933,34.183h-.011a1.954,1.954,0,0,1-1.255.595,1.894,1.894,0,0,1-1.266-.617L14.344,28.1a.431.431,0,0,1,0-.617l1.925-1.925a.418.418,0,0,1,.606,0l4.8,4.8,13.2-13.294a.427.427,0,0,1,.3-.13h0a.393.393,0,0,1,.3.13l1.893,1.958A.426.426,0,0,1,37.4,19.655Z" transform="translate(-3.375 -3.375)"/></svg>