<svg width="32" height="32" viewBox="0 0 32 32" fill="none" xmlns="http://www.w3.org/2000/svg">
<rect width="32" height="32" rx="4" fill="white"/>
<g clip-path="url(#clip0_350_8371)">
<path d="M16.2362 27.9999C16.1567 27.9999 16.0773 27.9999 15.9973 27.9996C14.116 28.0041 12.3778 27.9563 10.6874 27.8534C9.13757 27.7591 7.7229 27.2236 6.59607 26.3047C5.50879 25.4181 4.7663 24.2194 4.38928 22.7421C4.06116 21.4559 4.04376 20.1934 4.0271 18.9723C4.01501 18.0961 4.00256 17.0579 4 16.0021C4.00256 14.9419 4.01501 13.9037 4.0271 13.0276C4.04376 11.8066 4.06116 10.5441 4.38928 9.25781C4.7663 7.78051 5.50879 6.58172 6.59607 5.69512C7.7229 4.7763 9.13757 4.24072 10.6876 4.14642C12.378 4.04369 14.1166 3.99572 16.0018 4.0003C17.8836 3.99627 19.6213 4.04369 21.3117 4.14642C22.8615 4.24072 24.2762 4.7763 25.403 5.69512C26.4905 6.58172 27.2328 7.78051 27.6098 9.25781C27.9379 10.5439 27.9553 11.8066 27.972 13.0276C27.9841 13.9037 27.9967 14.9419 27.9991 15.9977V16.0021C27.9967 17.0579 27.9841 18.0961 27.972 18.9723C27.9553 20.1932 27.9381 21.4557 27.6098 22.7421C27.2328 24.2194 26.4905 25.4181 25.403 26.3047C24.2762 27.2236 22.8615 27.7591 21.3117 27.8534C19.6929 27.952 18.0299 27.9999 16.2362 27.9999V27.9999ZM15.9973 26.1246C17.8479 26.129 19.5471 26.0823 21.1978 25.9819C22.3697 25.9107 23.3857 25.5304 24.2181 24.8516C24.9875 24.2241 25.5175 23.3584 25.793 22.2784C26.0662 21.2078 26.082 20.0583 26.0972 18.9466C26.1091 18.0763 26.1215 17.0455 26.1241 15.9999C26.1215 14.9542 26.1091 13.9235 26.0972 13.0532C26.082 11.9416 26.0662 10.792 25.793 9.72125C25.5175 8.64129 24.9875 7.77557 24.2181 7.14806C23.3857 6.46948 22.3697 6.08917 21.1978 6.01794C19.5471 5.91741 17.8479 5.87109 16.0016 5.87512C14.1514 5.87072 12.452 5.91741 10.8013 6.01794C9.62939 6.08917 8.61334 6.46948 7.78094 7.14806C7.01153 7.77557 6.48163 8.64129 6.20605 9.72125C5.93286 10.792 5.91711 11.9414 5.90192 13.0532C5.89001 13.9242 5.87756 14.9557 5.875 16.0021C5.87756 17.044 5.89001 18.0756 5.90192 18.9466C5.91711 20.0583 5.93286 21.2078 6.20605 22.2784C6.48163 23.3584 7.01153 24.2241 7.78094 24.8516C8.61334 25.5302 9.62939 25.9105 10.8013 25.9817C12.452 26.0823 14.1517 26.1291 15.9973 26.1246V26.1246ZM15.9526 21.8593C12.7219 21.8593 10.0932 19.2308 10.0932 15.9999C10.0932 12.769 12.7219 10.1406 15.9526 10.1406C19.1835 10.1406 21.8119 12.769 21.8119 15.9999C21.8119 19.2308 19.1835 21.8593 15.9526 21.8593V21.8593ZM15.9526 12.0156C13.7557 12.0156 11.9682 13.803 11.9682 15.9999C11.9682 18.1968 13.7557 19.9843 15.9526 19.9843C18.1497 19.9843 19.9369 18.1968 19.9369 15.9999C19.9369 13.803 18.1497 12.0156 15.9526 12.0156V12.0156ZM22.4682 8.26556C21.6916 8.26556 21.0619 8.89507 21.0619 9.67181C21.0619 10.4485 21.6916 11.0781 22.4682 11.0781C23.2449 11.0781 23.8744 10.4485 23.8744 9.67181C23.8744 8.89507 23.2449 8.26556 22.4682 8.26556Z" fill="#FF9900"/>
</g>
<defs>
<clipPath id="clip0_350_8371">
<rect width="24" height="24" fill="white" transform="translate(4 4)"/>
</clipPath>
</defs>
</svg>
