<svg xmlns="http://www.w3.org/2000/svg" width="29.999" height="30" viewBox="0 0 29.999 30"><defs><style>.a{fill:#fff;}.b,.d{fill:none;}.b{stroke:#ff453a;}.c{stroke:none;}</style></defs><g transform="translate(-136 -271)"><path class="a" d="M15,30A15.006,15.006,0,0,1,1.18,9.162a15.006,15.006,0,0,1,27.64,0A15,15,0,0,1,15,30ZM11.4,13.932c.006,0,.012,0,.012,0a3.325,3.325,0,0,1,2.711,1.541c-.831.833-2.8,2.8-4.1,4.1L8.857,20.745h0l0,0,0,0a.01.01,0,0,0,0,0,.835.835,0,0,0,0,1.178c.009.006.03.027.1.092a.829.829,0,0,0,1.174,0l.006-.007.006-.007,1.694-1.693c1.168-1.17,2.646-2.647,3.425-3.424.775.775,2.487,2.487,4.952,4.949l.141.141a.055.055,0,0,1,.009.014.822.822,0,0,0,1.158,0,.8.8,0,0,0,.239-.577.819.819,0,0,0-.236-.581c-.006,0-.012,0-.014-.008v0l-5.28-5.28c.309-.5,1.113-1.688,1.93-1.827a2.431,2.431,0,0,0,1.138.252A4.048,4.048,0,0,0,22.1,12.738c1.243-1.24,1.837-3.182.565-4.494l0,0-.017-.016a.062.062,0,0,1-.012-.01l0,0A2.476,2.476,0,0,0,20.875,7.5a4.014,4.014,0,0,0-2.741,1.277,3.62,3.62,0,0,0-.984,3.953c-.151.911-1.6,1.8-2.041,2.056a3.686,3.686,0,0,1-1.065-.951,3.274,3.274,0,0,1-.61-1.776,2.088,2.088,0,0,0-.6-1.718c-.041-.043-.163-.145-.166-.147L9.247,7.532l-.311.31,3.709,3.48-.405.4L8.649,8.13l-.33.331,3.592,3.593-.34.34L7.979,8.8l-.3.3,3.57,3.57-.411.413L7.371,9.408l-.34.342,2.835,3.572.1.1a2.1,2.1,0,0,0,1.38.516H11.4Zm6.357-1.951a.429.429,0,0,1-.058-.2,2.62,2.62,0,0,1,0-.532,4.1,4.1,0,0,1,.277-1.144A2.513,2.513,0,0,1,18.2,9.7a2.869,2.869,0,0,1,.617-.637,4.058,4.058,0,0,1,.626-.411,2.941,2.941,0,0,1,.488-.208.954.954,0,0,1,.2-.047,1.859,1.859,0,0,0-.149.128l-.061.057c-.036.035-.078.073-.124.114l-.051.049-.143.134-.1.092-.076.072a7.559,7.559,0,0,0-.856.918,2.511,2.511,0,0,0-.193.331c-.059.11-.112.227-.166.356-.1.226-.186.45-.264.661-.07.191-.125.358-.16.483a.436.436,0,0,0-.029.189Z" transform="translate(136 271)"/><g class="b" transform="translate(136.937 271.937)"><circle class="c" cx="14.062" cy="14.062" r="14.062"/><circle class="d" cx="14.062" cy="14.062" r="13.562"/></g></g></svg>