<svg xmlns="http://www.w3.org/2000/svg" xmlns:xlink="http://www.w3.org/1999/xlink" width="216" height="44" viewBox="0 0 216 44">
  <defs>
    <clipPath id="clip-path">
      <rect id="Base" width="216" height="44" transform="translate(13269 3942)" fill="#fff"/>
    </clipPath>
  </defs>
  <g id="Logo" transform="translate(-13269 -3942)" clip-path="url(#clip-path)">
    <g id="Layer_2" data-name="Layer 2" transform="translate(13271 3944)">
      <g id="Layer_1" data-name="Layer 1" transform="translate(0 0)">
        <path id="Path_3168" data-name="Path 3168" d="M0,16.742H5.568v1.7h.061a6.686,6.686,0,0,1,4.624-2.168,6.1,6.1,0,0,1,5.637,2.954,7.085,7.085,0,0,1,5.349-2.954c2.954,0,6.293,1.477,6.293,5.978V32.885H21.956V23.76a2.734,2.734,0,0,0-2.823-3.024,2.491,2.491,0,0,0-2.622,2.517v9.614H10.978V23.76a2.736,2.736,0,0,0-2.832-3.024,2.5,2.5,0,0,0-2.578,2.709v9.44H0Z" transform="translate(0 -2.05)" fill="#ff453a"/>
        <path id="Path_3169" data-name="Path 3169" d="M39.916,25.585a3.3,3.3,0,0,0,3.5,3.339,4.513,4.513,0,0,0,3.933-1.748l4.021,2.01c-1.818,3.05-4.781,4.222-8.364,4.222a8.74,8.74,0,0,1-8.871-8.531A8.74,8.74,0,0,1,43,16.32c4.9,0,8.653,2.893,8.653,8.557a5.165,5.165,0,0,1,0,.752Zm6.337-3.077a2.867,2.867,0,0,0-3.05-2.622,2.784,2.784,0,0,0-3.085,2.622Z" transform="translate(-4.299 -2.056)" fill="#ff453a"/>
        <path id="Path_3170" data-name="Path 3170" d="M57.1,16.742h5.568v1.7h.061a6.669,6.669,0,0,1,4.624-2.168c2.954,0,7.08,1.477,7.08,5.978V32.885H68.864V23.76a2.98,2.98,0,0,0-2.893-3.147,3.426,3.426,0,0,0-3.3,3.147v9.125H57.1Z" transform="translate(-7.193 -2.05)" fill="#ff453a"/>
        <path id="Path_3171" data-name="Path 3171" d="M86.1,24.484c0,3.181.874,4.37,3.181,4.37s3.173-1.224,3.173-4.37V16.81h5.568v9.029c0,5.41-2.7,7.587-8.74,7.587s-8.74-2.176-8.74-7.587V16.81H86.1Z" transform="translate(-10.146 -2.118)" fill="#ff453a"/>
        <path id="Path_3172" data-name="Path 3172" d="M104.5,16.742h5.568v1.7h.1A6.686,6.686,0,0,1,114.8,16.27a6.082,6.082,0,0,1,5.629,2.954,7.112,7.112,0,0,1,5.349-2.954c2.963,0,6.293,1.477,6.293,5.978V32.885H126.5V23.76a2.736,2.736,0,0,0-2.832-3.024,2.482,2.482,0,0,0-2.622,2.517v9.614h-5.568V23.76a2.736,2.736,0,0,0-2.832-3.024,2.5,2.5,0,0,0-2.622,2.709v9.44H104.46Z" transform="translate(-13.159 -2.05)" fill="#f90"/>
        <path id="Path_3173" data-name="Path 3173" d="M146.654,16.269a7.359,7.359,0,0,1,5.288,2.01V16.741h5.568V32.885H152V31.058h-.061a7.167,7.167,0,0,1-5.288,2.3c-4.72,0-8.024-3.811-8.024-8.531S141.934,16.269,146.654,16.269ZM148.323,28.6a3.627,3.627,0,0,0,3.741-3.776,3.758,3.758,0,0,0-7.517,0,3.6,3.6,0,0,0,3.776,3.776Z" transform="translate(-17.463 -2.049)" fill="#f90"/>
        <path id="Path_3174" data-name="Path 3174" d="M164.547,16.742h5.576v1.7h.061a6.669,6.669,0,0,1,4.624-2.168c2.954,0,7.08,1.477,7.08,5.978V32.885H176.3V23.76a2.98,2.98,0,0,0-2.893-3.147,3.426,3.426,0,0,0-3.3,3.147v9.125H164.53Z" transform="translate(-20.726 -2.05)" fill="#f90"/>
        <path id="Path_3175" data-name="Path 3175" d="M192.023,34.615a4.877,4.877,0,0,0,4.37,2.071,3.715,3.715,0,0,0,3.924-3.776v-1.2c-1.189,1.329-3.077,1.643-5.244,1.643-4.72,0-8.024-3.811-8.024-8.531s3.3-8.557,8.024-8.557a7.359,7.359,0,0,1,5.192,1.923h.087V16.741h5.576V33.348c0,5.41-4,8.207-9.5,8.207-3.374,0-7.237-.752-8.941-4.685Zm4.685-6.013a3.627,3.627,0,0,0,3.75-3.776,3.758,3.758,0,0,0-7.517,0,3.592,3.592,0,0,0,3.767,3.776Z" transform="translate(-23.563 -2.049)" fill="#f90"/>
        <path id="Path_3176" data-name="Path 3176" d="M240.62,3.382c-.14.647-1.128,5.384-5.078,6.817a8.469,8.469,0,0,1-4.615.087c-.97-.166-1.547-.393-1.835-.874a2.491,2.491,0,0,1-.1-1.652,7.866,7.866,0,0,1,.6-2.3,7.464,7.464,0,0,1,4.641-3.986c1.862-.463,2.718.315,4.772-.489A7.517,7.517,0,0,0,240.751,0a10.236,10.236,0,0,1-.131,3.382Z" transform="translate(-28.834 0)" fill="#74c51d"/>
        <path id="Path_3177" data-name="Path 3177" d="M238.941,3.507a7.473,7.473,0,0,1-1.818,1.521c-1.32.8-1.914.6-3.278,1.162-1.652.682-2.832,1.818-5.139,4.2a18.3,18.3,0,0,1-2.238,2.255c-.044,0,.052-.219.122-.332a20.583,20.583,0,0,1,2.36-3.173,10.706,10.706,0,0,1,1.748-1.8l.2-.149a10.383,10.383,0,0,1,2.543-1.608c1.407-.594,1.853-.358,3.059-.8a7.665,7.665,0,0,0,3.059-2.133,7.866,7.866,0,0,1-.621.857Z" transform="translate(-28.527 -0.334)" fill="#61a31a"/>
        <path id="Path_3178" data-name="Path 3178" d="M227.954,29.183c-2.718,3.269-8.015,6.573-11.834,5.043-4.9-1.975-4.895-10.934-2.3-16.607.743-1.608,2.334-5.052,5.76-6.214,4.143-1.4,8.906,1.224,10.847,4.895C233.565,22.26,228.242,28.842,227.954,29.183Z" transform="translate(-26.717 -1.389)" fill="#f90"/>
        <path id="Path_3179" data-name="Path 3179" d="M228.938,25.451c-1.748,6.232-10.191,8.574-10.279,8.426s5.55-1.914,7.866-6.887c1.967-4.257.673-9.037-.629-12.289C226.963,16.1,230.249,20.713,228.938,25.451Z" transform="translate(-27.545 -1.852)" fill="#feca00"/>
      </g>
    </g>
  </g>
</svg>
