<svg xmlns="http://www.w3.org/2000/svg"   viewBox="0 0 80 80">
    <defs><style>.a{stroke:#707070;opacity:0;}.c{stroke:none;}.d{fill:none;}</style></defs>
    <g transform="translate(-1300.999 -219)"><g class="a" transform="translate(1300.999 219)">
    <rect class="c" width="80" height="80"/><rect class="d" x="0.5" y="0.5" width="79" height="79"/></g>
    <g transform="translate(1311.002 222.333)"><path class="b" d="M118.865,23.2a2.865,2.865,0,0,0,2.865-2.865V2.865a2.865,2.865,0,0,0-5.729,0V20.339A2.865,2.865,0,0,0,118.865,23.2Z" transform="translate(-105.258)"/>
    <path class="b" d="M65.349,0a2.865,2.865,0,0,0-2.865,2.865v17.9a7.878,7.878,0,0,1-15.755,0V2.865a2.865,2.865,0,0,0-5.729,0v17.9a13.63,13.63,0,0,0,10.742,13.3v36.4a2.865,2.865,0,1,0,5.729,0v-36.4a13.63,13.63,0,0,0,10.742-13.3V2.865A2.865,2.865,0,0,0,65.349,0Z" transform="translate(-41)"/>
    <path class="b" d="M304.714,7.641C302.011,2.713,298.421,0,294.607,0S287.2,2.713,284.5,7.641A28.66,28.66,0,0,0,281,20.768a13.63,13.63,0,0,0,10.742,13.3v36.4a2.865,2.865,0,1,0,5.729,0v-36.4a13.63,13.63,0,0,0,10.742-13.3A28.659,28.659,0,0,0,304.714,7.641Zm-10.107,21a7.887,7.887,0,0,1-7.878-7.878A23.008,23.008,0,0,1,289.522,10.4c1.579-2.879,3.528-4.667,5.084-4.667s3.505,1.788,5.084,4.667a23.009,23.009,0,0,1,2.793,10.372A7.887,7.887,0,0,1,294.607,28.646Z" transform="translate(-246.625)"/></g>
    </g>
</svg>