<svg width="24" height="24" viewBox="0 0 24 24" fill="none" xmlns="http://www.w3.org/2000/svg">
<path d="M11.9748 8.54493H11.0251C10.6063 8.54493 10.2655 8.21681 10.2655 7.81348C10.2655 7.41019 10.6063 7.08208 11.0251 7.08208H12.9244C13.2917 7.08208 13.5894 6.79538 13.5894 6.44174C13.5894 6.0881 13.2917 5.80139 12.9244 5.80139H12.1648V5.07003C12.1648 4.71639 11.8671 4.42969 11.4999 4.42969C11.1326 4.42969 10.8349 4.71639 10.8349 5.07003V5.81014C9.77157 5.90299 8.93555 6.76584 8.93555 7.81353C8.93555 8.92303 9.87291 9.82566 11.0251 9.82566H11.9748C12.3936 9.82566 12.7344 10.1538 12.7344 10.5571C12.7344 10.9604 12.3937 11.2885 11.9748 11.2885H10.0753C9.70808 11.2885 9.41035 11.5752 9.41035 11.9288C9.41035 12.2824 9.70808 12.5692 10.0753 12.5692H10.8349V13.3006C10.8349 13.6542 11.1326 13.9409 11.4999 13.9409C11.8671 13.9409 12.1648 13.6542 12.1648 13.3006V12.5604C13.2282 12.4676 14.0644 11.6048 14.0644 10.557C14.0644 9.44756 13.127 8.54493 11.9748 8.54493Z" fill="black"/>
<path d="M15.0614 16.0898H7.93867C7.57142 16.0898 7.27368 16.3765 7.27368 16.7302C7.27368 17.0838 7.57142 17.3705 7.93867 17.3705H15.0614C15.4286 17.3705 15.7264 17.0838 15.7264 16.7302C15.7264 16.3765 15.4286 16.0898 15.0614 16.0898Z" fill="black"/>
<path d="M19.335 1H3.66499C3.29774 1 3 1.2867 3 1.64034V20.3306C3 20.5004 3.07009 20.6632 3.1948 20.7834L5.15358 22.6696C5.41323 22.9196 5.8343 22.9196 6.094 22.6696L7.58255 21.2362L9.07105 22.6696C9.19576 22.7897 9.36489 22.8571 9.54128 22.8571C9.71764 22.8571 9.88681 22.7897 10.0115 22.6696L11.5 21.2362L12.9885 22.6696C13.1132 22.7897 13.2824 22.8571 13.4587 22.8571C13.6351 22.8571 13.8042 22.7897 13.9289 22.6696L15.4175 21.2362L16.906 22.6696C17.0358 22.7946 17.206 22.8571 17.3762 22.8571C17.5464 22.8571 17.7166 22.7946 17.8464 22.6696L19.8052 20.7834C19.9299 20.6633 20 20.5004 20 20.3306V1.64034C20 1.2867 19.7023 1 19.335 1ZM17.3762 21.3112L15.8876 19.8778C15.7629 19.7577 15.5938 19.6902 15.4174 19.6902C15.241 19.6902 15.0719 19.7577 14.9472 19.8778L13.4587 21.3112L11.9701 19.8778C11.7105 19.6277 11.2894 19.6277 11.0297 19.8778L9.54115 21.3112L8.05265 19.8778C7.92794 19.7577 7.75881 19.6902 7.58242 19.6902C7.40606 19.6902 7.23693 19.7577 7.11223 19.8778L5.62368 21.3112L4.32988 20.0653V2.28069H18.6699V20.0653H18.67L17.3762 21.3112Z" fill="black"/>
</svg>
