<svg xmlns="http://www.w3.org/2000/svg" width="24" height="24" viewBox="0 0 24 24"><defs><style>.a,.b{fill:#2b273c;}.a{stroke:#707070;opacity:0;}.b{stroke:#2b273c;stroke-width:0.3px;}.c{stroke:none;}.d{fill:none;}</style></defs><g transform="translate(0.001)"><g class="a" transform="translate(-0.001)"><rect class="c" width="24" height="24"/><rect class="d" x="0.5" y="0.5" width="23" height="23"/></g><g transform="translate(4.026 3.019)"><g transform="translate(0 10.204)"><path class="b" d="M25.881,288.389c-5.443,0-8.441,2.575-8.441,7.251a.661.661,0,0,0,.661.661H33.66a.661.661,0,0,0,.661-.661C34.321,290.964,31.324,288.389,25.881,288.389Zm-7.094,6.589c.26-3.5,2.643-5.267,7.094-5.267s6.834,1.771,7.095,5.267Z" transform="translate(-17.44 -288.389)"/></g><g transform="translate(4.055)"><path class="b" d="M136.435,0a4.333,4.333,0,0,0-4.386,4.474,4.4,4.4,0,1,0,8.771,0A4.333,4.333,0,0,0,136.435,0Zm0,7.912a3.271,3.271,0,0,1-3.063-3.438,3.006,3.006,0,0,1,3.063-3.151A3.04,3.04,0,0,1,139.5,4.474,3.271,3.271,0,0,1,136.435,7.912Z" transform="translate(-132.049)"/></g></g></g></svg>