<svg xmlns="http://www.w3.org/2000/svg" xmlns:xlink="http://www.w3.org/1999/xlink" width="280" height="192" viewBox="0 0 280 192"><defs><style>.a{fill:#fff;}.b{clip-path:url(#a);}.c{fill:#f2f2f2;}.d{fill:#7e7e7e;}.e{fill:#3f3d56;}.f,.k{fill:#ff453a;}.g{opacity:0.2;}.h{fill:#fbbebe;}.i{fill:#2f2e41;}.j{fill:#ccc;}.k{stroke:#3f3d56;}</style><clipPath id="a"><rect class="a" width="280" height="192" transform="translate(1278 407)"/></clipPath></defs><g class="b" transform="translate(-1278 -407)"><g transform="translate(1283.25 408.746)"><path class="c" d="M273.666,213.862a46.073,46.073,0,0,1-5.609,22.22,29.112,29.112,0,0,1-9.088,21.034,31.394,31.394,0,0,1-4.527,3.617c-.064.045-.131.088-.2.13l-.363.237-.114.073h0a32.809,32.809,0,0,1-17.416,4.923H74.635q-1.933,0-3.831-.17a41.858,41.858,0,0,1-13.112-3.347q-1.228-.535-2.409-1.15-.563-.291-1.115-.6c-.23-.128-.46-.26-.687-.393a40.306,40.306,0,0,1-7.4-5.536,37.145,37.145,0,0,1-11.828-27.032A45.942,45.942,0,0,1,28,204.515c0-23.465,17.016-42.487,38.009-42.487.644,0,1.288.021,1.933.059a1.788,1.788,0,0,1,.275.014,70.886,70.886,0,0,1,13.958-18.135c15.513-14.651,38.186-23.886,63.441-23.886,21.221,0,40.619,6.521,55.477,17.295a34.745,34.745,0,0,1,18.457-5.337c20.989,0,38.01,19.022,38.01,42.487q0,2.227-.215,4.445C267.612,186.981,273.7,200,273.666,213.862Z" transform="translate(-28 -114.944)"/><ellipse class="d" cx="46.924" cy="3.533" rx="46.924" ry="3.533" transform="translate(175.222 181.575)"/><path class="e" d="M265.916,322.945a6.638,6.638,0,0,0-6.643-6.536H225.909a6.655,6.655,0,0,0-6.637,6.431,6.494,6.494,0,0,0,2.52,5.219,1.453,1.453,0,0,1,.575,1.33,6.463,6.463,0,0,0-.058.865v23.077a6.468,6.468,0,0,0,6.468,6.468h27.416a6.468,6.468,0,0,0,6.468-6.468V330.254a6.51,6.51,0,0,0-.044-.759,1.4,1.4,0,0,1,.59-1.295A6.5,6.5,0,0,0,265.916,322.945Z" transform="translate(-176.13 -252.029)"/><path class="f" d="M266.742,324.579a5.175,5.175,0,0,0-5.179-4.493H228.171a5.188,5.188,0,0,0-5.1,4.018,5.107,5.107,0,0,0,2.441,5.5,1.4,1.4,0,0,1,.657,1.59,5.008,5.008,0,0,0-.178,1.328V355.6a5.061,5.061,0,0,0,4.121,4.972,5.116,5.116,0,0,0,.938.087h27.416a5,5,0,0,0,1.369-.189,5.058,5.058,0,0,0,3.688-4.868V332.519a5.036,5.036,0,0,0-.156-1.246,1.443,1.443,0,0,1-.043-.344,1.407,1.407,0,0,1,.746-1.241l0,0A5.1,5.1,0,0,0,266.742,324.579Z" transform="translate(-178.401 -254.296)"/><path class="g" d="M268.4,334.731v-2.169h-3.688V320.086h-2.17v12.475H250.938V320.086h-2.17v12.475H237.161V320.086h-2.169v12.475H230.87v2.169h4.122v6.509H230.87v2.169h4.122v6.509H230.87v2.17h4.122v8.483a5.123,5.123,0,0,0,.937.087h1.232v-8.57h11.607v8.57h2.17v-8.57h11.607v8.57h.8a5,5,0,0,0,1.369-.189v-8.381H268.4v-2.17h-3.688v-6.508H268.4v-2.17h-3.688v-6.509Zm-31.241,0h11.607v6.509H237.162Zm0,15.187v-6.508h11.607v6.509Zm25.383,0H250.938v-6.508h11.607Zm0-8.678H250.938v-6.509h11.607Z" transform="translate(-183.281 -254.296)"/><path class="f" d="M266.008,190.527a23.17,23.17,0,1,1-46.34,0Z" transform="translate(-176.375 -174.419)"/><path class="e" d="M240.292,199.49c0,.606-.215,1.1-.48,1.1s-.48-.491-.48-1.1a1.788,1.788,0,0,1,.48-1.1A1.788,1.788,0,0,1,240.292,199.49Z" transform="translate(-188.498 -179.268)"/><path class="e" d="M303.575,209.5c0,.606-.215,1.1-.48,1.1s-.48-.491-.48-1.1a.653.653,0,1,1,.96,0Z" transform="translate(-227.514 -185.441)"/><path class="e" d="M257.1,203.781c0,.606-.215,1.1-.48,1.1s-.48-.491-.48-1.1a1.788,1.788,0,0,1,.48-1.1A1.788,1.788,0,0,1,257.1,203.781Z" transform="translate(-198.859 -181.914)"/><path class="e" d="M282.123,226.3c0,.606-.215,1.1-.48,1.1s-.48-.491-.48-1.1a.653.653,0,1,1,.96,0Z" transform="translate(-214.288 -195.801)"/><path class="e" d="M255.308,223.445c0,.606-.215,1.1-.48,1.1s-.48-.491-.48-1.1a1.788,1.788,0,0,1,.48-1.1A1.788,1.788,0,0,1,255.308,223.445Z" transform="translate(-197.756 -194.037)"/><path class="e" d="M317.876,196.63c0,.606-.215,1.1-.48,1.1s-.48-.491-.48-1.1a.653.653,0,1,1,.96,0Z" transform="translate(-236.331 -177.505)"/><path class="e" d="M294.994,232.025c0,.606-.215,1.1-.48,1.1s-.48-.491-.48-1.1a.653.653,0,1,1,.96,0Z" transform="translate(-222.224 -199.327)"/><path class="e" d="M240.745,215a24.5,24.5,0,0,1-24.473-24.473h2.6a21.868,21.868,0,1,0,43.735,0h2.6A24.5,24.5,0,0,1,240.745,215Z" transform="translate(-174.281 -174.419)"/><rect class="e" width="7.669" height="7.669" transform="translate(115.164 24.51)"/><rect class="e" width="61.739" height="0.767" transform="translate(136.255 27.961)"/><rect class="e" width="7.669" height="7.669" transform="translate(115.164 82.241)"/><rect class="e" width="61.739" height="0.767" transform="translate(136.255 85.692)"/><rect class="e" width="7.669" height="7.669" transform="translate(115.164 139.57)"/><rect class="e" width="61.739" height="0.767" transform="translate(136.255 143.021)"/><path class="h" d="M781.476,321.78l-9.8,7.722-20.759-7.3s-7.058-7.939-11.05-2.026c-1.367,2.025,7.586,5.767,8.431,6.114,2.112.869,22.34,11.967,24.323,10.511s13.135-8.82,13.135-8.82Z" transform="translate(-564.226 -279.472)"/><path class="i" d="M896.348,257.218c-9.285-3.47-19.3-15.651-26.464-10.54v-16.5a12.639,12.639,0,0,1,12.639-12.64h0a12.64,12.64,0,0,1,12.64,12.64Z" transform="translate(-644.47 -217.542)"/><path class="i" d="M824.646,384.533l-.759,5.311s-1.9,5.69,0,16.313l-30.539,83.27,22.572,6.449,11.191-45.524,15.744-34.712-1.517,39.454-7.967,42.11,23.521-.948,6.854-72.2a63.96,63.96,0,0,0-5.731-33.295c-1.9-4.038-3.946-7.22-5.8-7.682C846.649,381.688,824.646,384.533,824.646,384.533Z" transform="translate(-597.284 -319.363)"/><path class="i" d="M775.131,659.546l-7.777,8.346s-14.985,7.777-4.363,8.725,14.226-3.225,14.226-3.225,13.278-.948,13.088-2.845-1.138-8.156-1.138-8.156Z" transform="translate(-576.222 -490.051)"/><path class="i" d="M909.95,663.269v5.88a15.912,15.912,0,0,1,0,3.035c-.19.569-3.035,7.587,6.449,6.07s5.69-7.4,5.69-7.4l-2.276-8.536Z" transform="translate(-668.836 -491.762)"/><circle class="h" cx="9.531" cy="9.531" r="9.531" transform="translate(228.405 5.136)"/><path class="h" d="M898.078,267.732s-1.328,12.519,0,14.8-13.467-2.276-13.467-2.276,3.225-8.536,2.086-11.95S898.078,267.732,898.078,267.732Z" transform="translate(-653.549 -247.8)"/><path class="f" d="M869.361,317.4l3.035,8.346-28.263,3.225s-3.035-.569-3.035-3.035-3.225-11.191-3.225-11.191-7.9-6.4-11.691-8.108c-1.375-.618.682-.363,1.839-2.988.347-.789.762-1.622,1.216-2.466.37-.692.768-1.394,1.176-2.086.5-.844,1.005-1.675,1.5-2.466,1.5-2.392,2.866-4.4,3.3-5.216,1.328-2.466,13.811-2.686,13.811-2.686,3.57,2.246,13.883,2.686,13.883,2.686s7.094,2.969,10.049,5.216C873.175,296.794,869.361,317.4,869.361,317.4Z" transform="translate(-617.245 -261.432)"/><path class="i" d="M892.517,221.457v-.226l-.269.015a12.649,12.649,0,0,0-10.871-2.172,12.6,12.6,0,0,1,4.852,2.507l-9.136.507-3.856,8.569h17.54c.011.214.027.426.027.643l-1.761,18.537,8.188-5.469V231.3A12.614,12.614,0,0,0,892.517,221.457Z" transform="translate(-646.537 -218.231)"/><path class="h" d="M943.714,339.758l-.569,14.985-1.518,29.021s2.086,12.519-3.225,12.329-1.328-14.8-1.328-14.8l-1.517-22.951,1.517-16.123Z" transform="translate(-684.961 -292.892)"/><path class="f" d="M937.3,320.773c0,1.707-9.579,1.233-9.579,1.233L922.7,295.735s7.094,2.969,10.049,5.216a8.908,8.908,0,0,1,1.682,2.466c.226.609.44,1.314.643,2.087s.389,1.6.565,2.466A100.921,100.921,0,0,1,937.3,320.773Z" transform="translate(-677.032 -265.75)"/><path class="j" d="M241.33,509.061l-14.519-1.5a4.609,4.609,0,1,0-7.936,2.479,4.611,4.611,0,1,0,7.885,2.132l14.57-1.339Z" transform="translate(-175.124 -366.629)"/><path class="k" d="M279.964,516.563a9.447,9.447,0,0,0,11.755-8.515q.012-.244.012-.491t-.012-.491a9.447,9.447,0,0,0-11.755-8.515L260.6,503.312a4.245,4.245,0,0,0,0,8.49Z" transform="translate(-198.994 -364.152)"/></g></g></svg>