<svg width="18" height="18" viewBox="0 0 18 18" fill="none" xmlns="http://www.w3.org/2000/svg">
<path fill-rule="evenodd" clip-rule="evenodd" d="M10.4362 15.7477C9.97282 15.8461 9.49228 15.8978 9 15.8978C5.18777 15.8978 2.09302 12.7896 2.09302 8.96065C2.09302 8.38087 1.62419 7.90957 1.04651 7.90957C0.468837 7.90957 0 8.38087 0 8.96065C0 13.95 4.03284 18 9 18C9.64088 18 10.2663 17.9327 10.8695 17.8045C11.4346 17.6843 11.7963 17.1259 11.6766 16.5583C11.5572 15.9907 11.0013 15.6275 10.4362 15.7477V15.7477ZM9.97326 2.09201C13.3254 2.5671 15.907 5.4639 15.907 8.96065C15.907 11.4345 14.6147 13.6077 12.672 14.8362C12.1831 15.1453 12.0361 15.7948 12.3442 16.2855C12.6519 16.7765 13.2986 16.9241 13.7872 16.6151C16.3176 15.0145 18 12.1833 18 8.96065C18 4.40356 14.6344 0.629742 10.2659 0.0104413C9.69404 -0.0707026 9.16408 0.329962 9.08329 0.904276C9.0025 1.47859 9.40145 2.01087 9.97326 2.09201V2.09201ZM2.58991 6.3733C3.33 4.52801 4.83782 3.07457 6.71484 2.4128C7.25987 2.22066 7.5466 1.62028 7.3553 1.07287C7.16399 0.525464 6.56624 0.237057 6.02163 0.429195C3.57656 1.29109 1.61289 3.1843 0.648423 5.58792C0.432842 6.12608 0.692381 6.73907 1.22819 6.95559C1.76401 7.17254 2.37433 6.91146 2.58991 6.3733V6.3733Z" fill="black"/>
</svg>
