<svg width="40" height="40" viewBox="0 0 24 24" fill="none" xmlns="http://www.w3.org/2000/svg">
<g clip-path="url(#clip0_285_10401)">
<path d="M12.0547 3.61727H14.8511L13.792 4.67819C13.5177 4.95303 13.5181 5.39816 13.7929 5.67263C14.0672 5.94638 14.5125 5.94693 14.7872 5.67172L17.0427 3.41238C17.3203 3.13424 17.3179 2.67703 17.0266 2.40273L14.7872 0.159508C14.5129 -0.115333 14.0678 -0.1157 13.7929 0.158593C13.5181 0.433068 13.5177 0.878197 13.792 1.15304L14.8482 2.21102C11.6619 2.21102 12.0593 2.21084 12.0245 2.21084C4.59133 2.21084 -0.126939 10.3006 3.60036 16.8031C3.79335 17.1398 4.22273 17.2566 4.56001 17.0634C4.89693 16.8703 5.01338 16.4407 4.82039 16.1038C1.61787 10.5172 5.70699 3.58541 12.0547 3.61727Z" fill="black"/>
<path d="M20.4679 7.10302C20.2749 6.76629 19.8452 6.64965 19.5082 6.84264C19.1713 7.03582 19.0549 7.46557 19.2481 7.80248C22.4315 13.3561 18.4136 20.289 12.0342 20.289H9.21716L10.2762 19.2281C10.5507 18.9532 10.5504 18.5081 10.2755 18.2336C10.0007 17.9593 9.55536 17.9597 9.28107 18.2346L7.02557 20.4939C6.74414 20.7759 6.75329 21.2329 7.0426 21.5045L9.28107 23.7468C9.55536 24.0214 10.0005 24.0222 10.2755 23.7477C10.5504 23.4732 10.5507 23.0281 10.2764 22.7532L9.22028 21.6953H12.043C19.48 21.6951 24.1945 13.6042 20.4679 7.10302Z" fill="black"/>
<path d="M11.3311 9.84375H14.1436C14.5317 9.84375 14.8467 9.52881 14.8467 9.14063C14.8467 8.75226 14.5317 8.4375 14.1436 8.4375H12.7373V7.73438C12.7373 7.34601 12.4224 7.03125 12.0342 7.03125C11.6458 7.03125 11.3311 7.34601 11.3311 7.73438V8.4375C10.1678 8.4375 9.22168 9.38379 9.22168 10.5469C9.22168 11.71 10.1678 12.6563 11.3311 12.6563H12.7371C13.1249 12.6563 13.4404 12.9716 13.4404 13.3594C13.4404 13.7472 13.1268 14.0627 12.7371 14.0627C12.7369 14.0627 9.92462 14.0625 9.92481 14.0625C9.53644 14.0625 9.22168 14.3773 9.22168 14.7654C9.2215 15.1538 9.53626 15.4686 9.92462 15.4688H11.3311V16.1719C11.3311 16.5601 11.6458 16.875 12.0342 16.875C12.4224 16.875 12.7373 16.5601 12.7373 16.1719V15.4689C13.903 15.4689 14.8467 14.5258 14.8467 13.3594C14.8467 12.1963 13.9002 11.25 12.7371 11.25H11.3311C10.9432 11.25 10.6279 10.9345 10.6279 10.5469C10.6279 10.1591 10.9432 9.84375 11.3311 9.84375Z" fill="black"/>
</g>
<defs>
<clipPath id="clip0_285_10401">
<rect width="40" height="40" fill="white"/>
</clipPath>
</defs>
</svg>
