<svg xmlns="http://www.w3.org/2000/svg" width="23.631" height="19.2" viewBox="0 0 23.631 19.2"><defs><style>.a{fill:#03a9f4;}</style></defs><path class="a" d="M23.631,50.273a10.1,10.1,0,0,1-2.791.765,4.817,4.817,0,0,0,2.131-2.678A9.682,9.682,0,0,1,19.9,49.533a4.844,4.844,0,0,0-8.38,3.313,4.988,4.988,0,0,0,.112,1.1,13.712,13.712,0,0,1-9.985-5.067,4.846,4.846,0,0,0,1.489,6.475,4.784,4.784,0,0,1-2.189-.6v.053a4.867,4.867,0,0,0,3.881,4.76,4.835,4.835,0,0,1-1.27.16,4.284,4.284,0,0,1-.917-.083,4.891,4.891,0,0,0,4.527,3.375,9.734,9.734,0,0,1-6.007,2.066A9.073,9.073,0,0,1,0,65.026,13.639,13.639,0,0,0,7.432,67.2,13.693,13.693,0,0,0,21.22,53.414c0-.214-.007-.421-.018-.626A9.665,9.665,0,0,0,23.631,50.273Z" transform="translate(0 -48)"/></svg>