<svg width="22" height="8" viewBox="0 0 22 8" fill="none" xmlns="http://www.w3.org/2000/svg">
<path d="M7.80994 0.244141L6.60544 7.73968H8.53069L9.73446 0.244141H7.80994ZM13.6172 3.2974C12.9444 2.96516 12.532 2.74093 12.532 2.40112C12.5402 2.09215 12.8808 1.77562 13.6412 1.77562C14.2667 1.75991 14.7265 1.90691 15.0752 2.05316L15.25 2.13114L15.5117 0.562891C15.1314 0.415896 14.5285 0.253929 13.7837 0.253929C11.8825 0.253929 10.5437 1.24243 10.5354 2.6562C10.5197 3.69948 11.4939 4.27841 12.2229 4.62571C12.9677 4.98197 13.2212 5.21295 13.2212 5.52948C13.213 6.01546 12.619 6.2397 12.0648 6.2397C11.2968 6.2397 10.8843 6.12421 10.258 5.85341L10.0045 5.73792L9.73528 7.36771C10.1875 7.56875 11.0192 7.74568 11.8826 7.75473C13.9031 7.75473 15.2178 6.7812 15.2343 5.27448C15.2409 4.44795 14.7272 3.81489 13.6172 3.2974ZM20.4474 0.267337H18.9579C18.4989 0.267337 18.1501 0.399362 17.9514 0.870373L15.0916 7.73968H17.1121L17.6686 6.25245H19.9291L20.2179 7.74568H21.9999L20.4474 0.267337ZM18.2289 4.75156C18.2679 4.75535 19.0045 2.32379 19.0045 2.32379L19.591 4.75156C19.591 4.75156 18.6092 4.75156 18.2289 4.75156ZM4.99671 0.244141L3.11045 5.33667L2.90497 4.33238C2.55619 3.1736 1.46273 1.91439 0.242432 1.2889L1.96969 7.73219H4.00673L7.03376 0.244963H4.99671V0.244141Z" fill="#2394BC"/>
</svg>
