<svg width="32" height="32" viewBox="0 0 32 32" fill="none" xmlns="http://www.w3.org/2000/svg">
<rect width="32" height="32" rx="4" fill="white"/>
<path fill-rule="evenodd" clip-rule="evenodd" d="M16 6.75C10.8914 6.75 6.75 10.8914 6.75 16C6.75 21.1086 10.8914 25.25 16 25.25C21.1086 25.25 25.25 21.1086 25.25 16C25.25 10.8914 21.1086 6.75 16 6.75ZM5.25 16C5.25 10.0629 10.0629 5.25 16 5.25C21.9371 5.25 26.75 10.0629 26.75 16C26.75 21.9371 21.9371 26.75 16 26.75C10.0629 26.75 5.25 21.9371 5.25 16Z" fill="#FF9900"/>
<path fill-rule="evenodd" clip-rule="evenodd" d="M11.25 7C11.25 6.58579 11.5858 6.25 12 6.25H13C13.2411 6.25 13.4676 6.36596 13.6085 6.56162C13.7495 6.75729 13.7878 7.0088 13.7114 7.23754C11.8129 12.9234 11.8129 19.0766 13.7114 24.7625C13.7878 24.9912 13.7495 25.2427 13.6085 25.4384C13.4676 25.634 13.2411 25.75 13 25.75H12C11.5858 25.75 11.25 25.4142 11.25 25C11.25 24.593 11.5741 24.2618 11.9783 24.2503C10.3906 18.8661 10.3906 13.1339 11.9783 7.74969C11.5741 7.73823 11.25 7.40697 11.25 7Z" fill="#FF9900"/>
<path fill-rule="evenodd" clip-rule="evenodd" d="M18.7625 6.28881C19.1554 6.15763 19.5802 6.36978 19.7114 6.76267C21.7129 12.7568 21.7129 19.2436 19.7114 25.2377C19.5802 25.6306 19.1554 25.8428 18.7625 25.7116C18.3696 25.5804 18.1574 25.1556 18.2886 24.7627C20.1871 19.0768 20.1871 12.9236 18.2886 7.23774C18.1574 6.84485 18.3696 6.42 18.7625 6.28881Z" fill="#FF9900"/>
<path fill-rule="evenodd" clip-rule="evenodd" d="M6.56162 18.3915C6.75729 18.2505 7.0088 18.2122 7.23754 18.2886C12.9234 20.1871 19.0766 20.1871 24.7625 18.2886C24.9912 18.2122 25.2427 18.2505 25.4384 18.3915C25.634 18.5324 25.75 18.7589 25.75 19V20C25.75 20.4142 25.4142 20.75 25 20.75C24.593 20.75 24.2618 20.4259 24.2503 20.0217C18.8661 21.6094 13.1339 21.6094 7.74969 20.0217C7.73823 20.4259 7.40697 20.75 7 20.75C6.58579 20.75 6.25 20.4142 6.25 20V19C6.25 18.7589 6.36596 18.5324 6.56162 18.3915Z" fill="#FF9900"/>
<path fill-rule="evenodd" clip-rule="evenodd" d="M24.7625 13.711C19.0766 11.8125 12.9234 11.8125 7.23753 13.711C6.84464 13.8422 6.41979 13.63 6.28861 13.2371C6.15742 12.8443 6.36957 12.4194 6.76246 12.2882C12.7566 10.2867 19.2434 10.2867 25.2375 12.2882C25.6304 12.4194 25.8426 12.8443 25.7114 13.2371C25.5802 13.63 25.1554 13.8422 24.7625 13.711Z" fill="#FF9900"/>
</svg>
