<svg xmlns="http://www.w3.org/2000/svg" width="24" height="24" viewBox="0 0 24 24"><defs><style>.a,.b{fill:#2b273c;}.a{stroke:#707070;opacity:0;}.c{stroke:none;}.d{fill:none;}</style></defs><g transform="translate(-75 -571)"><g class="a" transform="translate(75 571)"><rect class="c" width="24" height="24"/><rect class="d" x="0.5" y="0.5" width="23" height="23"/></g><g transform="translate(78 573.744)"><g transform="translate(9.843 0.256)"><g transform="translate(0 0)"><path class="b" d="M260.113.256a18.228,18.228,0,0,1,2.372,4.837,10.45,10.45,0,0,0,3.557-1.246l.323-.2A9.022,9.022,0,0,0,260.113.256Z" transform="translate(-260.113 -0.256)"/></g></g><g transform="translate(6.446 6.543)"><path class="b" d="M175.15,166.4a19.844,19.844,0,0,1-4.521,0,12.336,12.336,0,0,0-.3,2.067h5.128A12.338,12.338,0,0,0,175.15,166.4Z" transform="translate(-170.326 -166.4)"/></g><g transform="translate(7.104 13.131)"><path class="b" d="M189.638,340.48a18.74,18.74,0,0,0-1.905.1,17.334,17.334,0,0,0,1.905,3.945,17.338,17.338,0,0,0,1.905-3.945A18.74,18.74,0,0,0,189.638,340.48Z" transform="translate(-187.733 -340.48)"/></g><g transform="translate(12.552 9.902)"><path class="b" d="M332,255.147a13.677,13.677,0,0,1-.308,2.264,11.56,11.56,0,0,1,3.9,1.4l.365.227a8.982,8.982,0,0,0,1.2-3.895Z" transform="translate(-331.69 -255.147)"/></g><g transform="translate(12.552 4.716)"><path class="b" d="M335.958,118.118l-.365.227a11.561,11.561,0,0,1-3.9,1.406,13.683,13.683,0,0,1,.308,2.26h5.159A8.982,8.982,0,0,0,335.958,118.118Z" transform="translate(-331.69 -118.118)"/></g><g transform="translate(6.446 9.902)"><path class="b" d="M170.325,255.147a12.328,12.328,0,0,0,.3,2.067,19.92,19.92,0,0,1,4.521,0,12.331,12.331,0,0,0,.3-2.067Z" transform="translate(-170.325 -255.147)"/></g><g transform="translate(0 4.716)"><path class="b" d="M1.564,118.345l-.365-.227A8.983,8.983,0,0,0,0,122.012H5.159a13.681,13.681,0,0,1,.308-2.26A11.561,11.561,0,0,1,1.564,118.345Z" transform="translate(0 -118.118)"/></g><g transform="translate(1.924 13.42)"><path class="b" d="M54.722,348.109a10.462,10.462,0,0,0-3.557,1.245l-.323.2a9.019,9.019,0,0,0,6.252,3.39A18.214,18.214,0,0,1,54.722,348.109Z" transform="translate(-50.842 -348.109)"/></g><g transform="translate(7.104 1.337)"><path class="b" d="M189.638,28.826a17.344,17.344,0,0,0-1.905,3.945,18.42,18.42,0,0,0,3.811,0A17.344,17.344,0,0,0,189.638,28.826Z" transform="translate(-187.733 -28.826)"/></g><g transform="translate(9.842 13.42)"><path class="b" d="M265.993,349.353a10.464,10.464,0,0,0-3.557-1.245,18.212,18.212,0,0,1-2.374,4.836,9.019,9.019,0,0,0,6.252-3.39Z" transform="translate(-260.062 -348.108)"/></g><g transform="translate(1.926 0.256)"><g transform="translate(0 0)"><path class="b" d="M50.893,3.648l.321.2a10.45,10.45,0,0,0,3.557,1.246A18.228,18.228,0,0,1,57.145.257,9.022,9.022,0,0,0,50.893,3.648Z" transform="translate(-50.893 -0.257)"/></g></g><g transform="translate(0 9.902)"><path class="b" d="M5.159,255.147H0a8.981,8.981,0,0,0,1.2,3.895l.365-.227a11.562,11.562,0,0,1,3.9-1.4A13.671,13.671,0,0,1,5.159,255.147Z" transform="translate(0 -255.147)"/></g></g></g></svg>